Geologica-Black.ufo
<glyph name="ampersand" format="2">
  <advance width="1558"/>
  <unicode hex="0026"/>
  <outline>
    <contour>
      <point x="562" y="-30" type="curve" smooth="yes"/>
      <point x="698" y="-30"/>
      <point x="856" y="26"/>
      <point x="966" y="114" type="curve"/>
      <point x="1074" y="0" type="line"/>
      <point x="1510" y="0" type="line"/>
      <point x="1202" y="340" type="line"/>
      <point x="1308" y="450"/>
      <point x="1426" y="640"/>
      <point x="1474" y="772" type="curve"/>
      <point x="1168" y="888" type="line"/>
      <point x="1118" y="744"/>
      <point x="1068" y="656"/>
      <point x="998" y="570" type="curve"/>
      <point x="838" y="738" type="line"/>
      <point x="1008" y="840"/>
      <point x="1086" y="950"/>
      <point x="1086" y="1084" type="curve" smooth="yes"/>
      <point x="1086" y="1290"/>
      <point x="902" y="1430"/>
      <point x="666" y="1430" type="curve" smooth="yes"/>
      <point x="424" y="1430"/>
      <point x="238" y="1266"/>
      <point x="238" y="1054" type="curve" smooth="yes"/>
      <point x="238" y="960"/>
      <point x="274" y="876"/>
      <point x="358" y="782" type="curve"/>
      <point x="184" y="692"/>
      <point x="88" y="554"/>
      <point x="88" y="396" type="curve" smooth="yes"/>
      <point x="88" y="150"/>
      <point x="286" y="-30"/>
    </contour>
    <contour>
      <point x="596" y="286" type="curve" smooth="yes"/>
      <point x="508" y="286"/>
      <point x="444" y="338"/>
      <point x="444" y="412" type="curve" smooth="yes"/>
      <point x="444" y="470"/>
      <point x="486" y="530"/>
      <point x="554" y="564" type="curve"/>
      <point x="760" y="346" type="line"/>
      <point x="712" y="310"/>
      <point x="650" y="286"/>
    </contour>
    <contour>
      <point x="650" y="922" type="curve"/>
      <point x="594" y="964"/>
      <point x="562" y="1016"/>
      <point x="562" y="1056" type="curve" smooth="yes"/>
      <point x="562" y="1114"/>
      <point x="604" y="1152"/>
      <point x="666" y="1152" type="curve" smooth="yes"/>
      <point x="730" y="1152"/>
      <point x="770" y="1114"/>
      <point x="770" y="1054" type="curve" smooth="yes"/>
      <point x="770" y="1000"/>
      <point x="728" y="952"/>
    </contour>
  </outline>
</glyph>
<glyph name="parenleft" format="2">
  <advance width="732"/>
  <unicode hex="0028"/>
  <outline>
    <contour>
      <point x="348" y="-230" type="curve"/>
      <point x="662" y="-118" type="line"/>
      <point x="522" y="118"/>
      <point x="450" y="406"/>
      <point x="450" y="696" type="curve" smooth="yes"/>
      <point x="450" y="982"/>
      <point x="520" y="1268"/>
      <point x="662" y="1498" type="curve"/>
      <point x="348" y="1610" type="line"/>
      <point x="182" y="1318"/>
      <point x="100" y="1006"/>
      <point x="100" y="692" type="curve" smooth="yes"/>
      <point x="100" y="376"/>
      <point x="182" y="64"/>
    </contour>
  </outline>
</glyph>
<glyph name="parenright" format="2">
  <advance width="732"/>
  <unicode hex="0029"/>
  <outline>
    <contour>
      <point x="384" y="-230" type="line"/>
      <point x="550" y="62"/>
      <point x="632" y="374"/>
      <point x="632" y="688" type="curve" smooth="yes"/>
      <point x="632" y="1004"/>
      <point x="550" y="1316"/>
      <point x="384" y="1610" type="curve"/>
      <point x="70" y="1498" type="line"/>
      <point x="210" y="1262"/>
      <point x="282" y="974"/>
      <point x="282" y="684" type="curve" smooth="yes"/>
      <point x="282" y="398"/>
      <point x="212" y="112"/>
      <point x="70" y="-118" type="curve"/>
    </contour>
  </outline>
</glyph>
<glyph name="hyphen" format="2">
  <advance width="800"/>
  <unicode hex="002D"/>
  <outline>
    <contour>
      <point x="90" y="392" type="line"/>
      <point x="710" y="392" type="line"/>
      <point x="710" y="742" type="line"/>
      <point x="90" y="742" type="line"/>
    </contour>
  </outline>
</glyph>
<glyph name="zero" format="2">
  <advance width="1376"/>
  <unicode hex="0030"/>
  <outline>
    <contour>
      <point x="688" y="-30" type="curve" smooth="yes"/>
      <point x="1080" y="-30"/>
      <point x="1296" y="300"/>
      <point x="1296" y="700" type="curve" smooth="yes"/>
      <point x="1296" y="1102"/>
      <point x="1080" y="1430"/>
      <point x="688" y="1430" type="curve" smooth="yes"/>
      <point x="296" y="1430"/>
      <point x="80" y="1102"/>
      <point x="80" y="700" type="curve" smooth="yes"/>
      <point x="80" y="300"/>
      <point x="296" y="-30"/>
    </contour>
    <contour>
      <point x="688" y="312" type="curve" smooth="yes"/>
      <point x="548" y="312"/>
      <point x="458" y="442"/>
      <point x="458" y="700" type="curve" smooth="yes"/>
      <point x="458" y="958"/>
      <point x="548" y="1088"/>
      <point x="688" y="1088" type="curve" smooth="yes"/>
      <point x="828" y="1088"/>
      <point x="918" y="958"/>
      <point x="918" y="700" type="curve" smooth="yes"/>
      <point x="918" y="442"/>
      <point x="828" y="312"/>
    </contour>
  </outline>
</glyph>
<glyph name="one" format="2">
  <advance width="958"/>
  <unicode hex="0031"/>
  <outline>
    <contour>
      <point x="394" y="0" type="line"/>
      <point x="762" y="0" type="line"/>
      <point x="762" y="1430" type="line"/>
      <point x="736" y="1430" type="line"/>
      <point x="2" y="1176" type="line"/>
      <point x="108" y="860" type="line"/>
      <point x="394" y="958" type="line"/>
    </contour>
  </outline>
</glyph>
<glyph name="five" format="2">
  <advance width="1188"/>
  <unicode hex="0035"/>
  <outline>
    <contour>
      <point x="534" y="-30" type="curve" smooth="yes"/>
      <point x="868" y="-30"/>
      <point x="1086" y="154"/>
      <point x="1086" y="438" type="curve" smooth="yes"/>
      <point x="1086" y="726"/>
      <point x="884" y="898"/>
      <point x="584" y="898" type="curve" smooth="yes"/>
      <point x="544" y="898"/>
      <point x="508" y="894"/>
      <point x="474" y="890" type="curve"/>
      <point x="498" y="1054" type="line"/>
      <point x="1054" y="1054" type="line"/>
      <point x="1054" y="1396" type="line"/>
      <point x="224" y="1400" type="line"/>
      <point x="150" y="738" type="line"/>
      <point x="314" y="554" type="line"/>
      <point x="382" y="584"/>
      <point x="448" y="598"/>
      <point x="508" y="598" type="curve" smooth="yes"/>
      <point x="640" y="598"/>
      <point x="716" y="544"/>
      <point x="716" y="458" type="curve" smooth="yes"/>
      <point x="716" y="348"/>
      <point x="638" y="304"/>
      <point x="512" y="304" type="curve" smooth="yes"/>
      <point x="380" y="304"/>
      <point x="256" y="340"/>
      <point x="170" y="434" type="curve"/>
      <point x="60" y="124" type="line"/>
      <point x="170" y="26"/>
      <point x="345" y="-30"/>
    </contour>
  </outline>
</glyph>
<glyph name="six" format="2">
  <advance width="1304"/>
  <unicode hex="0036"/>
  <outline>
    <contour>
      <point x="659" y="-30" type="curve" smooth="yes"/>
      <point x="989" y="-30"/>
      <point x="1213" y="186"/>
      <point x="1213" y="462" type="curve" smooth="yes"/>
      <point x="1213" y="724"/>
      <point x="1015" y="914"/>
      <point x="739" y="914" type="curve" smooth="yes"/>
      <point x="675" y="914"/>
      <point x="613" y="902"/>
      <point x="557" y="880" type="curve"/>
      <point x="663" y="1012"/>
      <point x="849" y="1098"/>
      <point x="1135" y="1138" type="curve"/>
      <point x="1001" y="1430" type="line"/>
      <point x="493" y="1349"/>
      <point x="87" y="1015"/>
      <point x="87" y="542" type="curve" smooth="yes"/>
      <point x="87" y="194"/>
      <point x="327" y="-30"/>
    </contour>
    <contour>
      <point x="659" y="286" type="curve" smooth="yes"/>
      <point x="553" y="286"/>
      <point x="475" y="356"/>
      <point x="475" y="452" type="curve" smooth="yes"/>
      <point x="475" y="548"/>
      <point x="553" y="618"/>
      <point x="659" y="618" type="curve" smooth="yes"/>
      <point x="765" y="618"/>
      <point x="843" y="548"/>
      <point x="843" y="452" type="curve" smooth="yes"/>
      <point x="843" y="356"/>
      <point x="765" y="286"/>
    </contour>
  </outline>
</glyph>
<glyph name="seven" format="2">
  <advance width="1162"/>
  <unicode hex="0037"/>
  <outline>
    <contour>
      <point x="134" y="0" type="line"/>
      <point x="556" y="0" type="line"/>
      <point x="1092" y="1122" type="line"/>
      <point x="1092" y="1400" type="line"/>
      <point x="70" y="1400" type="line"/>
      <point x="70" y="1042" type="line"/>
      <point x="644" y="1042" type="line"/>
    </contour>
  </outline>
</glyph>
<glyph name="less" format="2">
  <advance width="1296"/>
  <unicode hex="003C"/>
  <outline>
    <contour>
      <point x="1136" y="72" type="line"/>
      <point x="1236" y="328" type="line"/>
      <point x="488" y="630" type="line"/>
      <point x="1236" y="930" type="line"/>
      <point x="1134" y="1186" type="line"/>
      <point x="68" y="764" type="line"/>
      <point x="68" y="494" type="line"/>
    </contour>
  </outline>
</glyph>
<glyph name="question" format="2">
  <advance width="1052"/>
  <unicode hex="003F"/>
  <outline>
    <contour>
      <point x="300" y="524" type="curve"/>
      <point x="656" y="524" type="line"/>
      <point x="646" y="652"/>
      <point x="648" y="690"/>
      <point x="750" y="762" type="curve" smooth="yes"/>
      <point x="908" y="874"/>
      <point x="978" y="946"/>
      <point x="978" y="1076" type="curve" smooth="yes"/>
      <point x="978" y="1284"/>
      <point x="762" y="1430"/>
      <point x="490" y="1430" type="curve" smooth="yes"/>
      <point x="274" y="1430"/>
      <point x="90" y="1348"/>
      <point x="60" y="1314" type="curve"/>
      <point x="134" y="990" type="line"/>
      <point x="226" y="1036"/>
      <point x="290" y="1064"/>
      <point x="378" y="1064" type="curve" smooth="yes"/>
      <point x="472" y="1064"/>
      <point x="512" y="1036"/>
      <point x="512" y="982" type="curve" smooth="yes"/>
      <point x="512" y="934"/>
      <point x="484" y="912"/>
      <point x="394" y="850" type="curve" smooth="yes"/>
      <point x="312" y="794"/>
      <point x="240" y="718"/>
    </contour>
    <contour>
      <point x="480" y="-30" type="curve" smooth="yes"/>
      <point x="606" y="-30"/>
      <point x="714" y="54"/>
      <point x="714" y="192" type="curve" smooth="yes"/>
      <point x="714" y="332"/>
      <point x="606" y="416"/>
      <point x="480" y="416" type="curve" smooth="yes"/>
      <point x="354" y="416"/>
      <point x="246" y="332"/>
      <point x="246" y="192" type="curve" smooth="yes"/>
      <point x="246" y="54"/>
      <point x="354" y="-30"/>
    </contour>
  </outline>
</glyph>
<glyph name="at" format="2">
  <advance width="1682"/>
  <unicode hex="0040"/>
  <guideline x="490" y="264" angle="86.6499"/>
  <outline>
    <contour>
      <point x="853" y="-234" type="curve" smooth="yes"/>
      <point x="1057" y="-234"/>
      <point x="1255" y="-174"/>
      <point x="1415" y="-64" type="curve"/>
      <point x="1335" y="116" type="line"/>
      <point x="1197" y="14"/>
      <point x="1029" y="-40"/>
      <point x="849" y="-40" type="curve" smooth="yes"/>
      <point x="507" y="-40"/>
      <point x="275" y="170"/>
      <point x="275" y="480" type="curve" smooth="yes"/>
      <point x="275" y="810"/>
      <point x="527" y="1054"/>
      <point x="865" y="1054" type="curve" smooth="yes"/>
      <point x="1187" y="1054"/>
      <point x="1407" y="860"/>
      <point x="1407" y="576" type="curve" smooth="yes"/>
      <point x="1407" y="428"/>
      <point x="1355" y="346"/>
      <point x="1261" y="346" type="curve" smooth="yes"/>
      <point x="1201" y="346"/>
      <point x="1171" y="382"/>
      <point x="1175" y="450" type="curve" smooth="yes"/>
      <point x="1197" y="840" type="line"/>
      <point x="1011" y="840" type="line"/>
      <point x="1009" y="788" type="line"/>
      <point x="943" y="842"/>
      <point x="877" y="866"/>
      <point x="799" y="866" type="curve" smooth="yes"/>
      <point x="589" y="866"/>
      <point x="437" y="708"/>
      <point x="437" y="492" type="curve" smooth="yes"/>
      <point x="437" y="292"/>
      <point x="573" y="154"/>
      <point x="771" y="154" type="curve" smooth="yes"/>
      <point x="869" y="154"/>
      <point x="941" y="186"/>
      <point x="1015" y="262" type="curve"/>
      <point x="1059" y="192"/>
      <point x="1137" y="154"/>
      <point x="1241" y="154" type="curve" smooth="yes"/>
      <point x="1447" y="154"/>
      <point x="1615" y="344"/>
      <point x="1615" y="576" type="curve" smooth="yes"/>
      <point x="1615" y="970"/>
      <point x="1311" y="1242"/>
      <point x="871" y="1242" type="curve" smooth="yes"/>
      <point x="409" y="1242"/>
      <point x="67" y="920"/>
      <point x="67" y="486" type="curve" smooth="yes"/>
      <point x="67" y="60"/>
      <point x="389" y="-234"/>
    </contour>
    <contour>
      <point x="797" y="366" type="curve" smooth="yes"/>
      <point x="727" y="366"/>
      <point x="685" y="412"/>
      <point x="685" y="490" type="curve" smooth="yes"/>
      <point x="685" y="588"/>
      <point x="741" y="652"/>
      <point x="825" y="652" type="curve" smooth="yes"/>
      <point x="897" y="652"/>
      <point x="939" y="606"/>
      <point x="939" y="528" type="curve" smooth="yes"/>
      <point x="939" y="428"/>
      <point x="883" y="366"/>
    </contour>
  </outline>
</glyph>
<glyph name="B" format="2">
  <advance width="1354"/>
  <unicode hex="0042"/>
  <outline>
    <contour>
      <point x="156" y="0" type="line"/>
      <point x="746" y="0" type="line" smooth="yes"/>
      <point x="1078" y="0"/>
      <point x="1284" y="160"/>
      <point x="1284" y="422" type="curve" smooth="yes"/>
      <point x="1284" y="586"/>
      <point x="1190" y="718"/>
      <point x="1042" y="774" type="curve"/>
      <point x="1150" y="830"/>
      <point x="1224" y="920"/>
      <point x="1224" y="1044" type="curve" smooth="yes"/>
      <point x="1224" y="1280"/>
      <point x="1036" y="1400"/>
      <point x="740" y="1400" type="curve" smooth="yes"/>
      <point x="156" y="1400" type="line"/>
    </contour>
    <contour>
      <point x="560" y="290" type="line"/>
      <point x="560" y="574" type="line"/>
      <point x="712" y="574" type="line" smooth="yes"/>
      <point x="808" y="574"/>
      <point x="862" y="520"/>
      <point x="862" y="432" type="curve" smooth="yes"/>
      <point x="862" y="340"/>
      <point x="804" y="290"/>
      <point x="692" y="290" type="curve" smooth="yes"/>
    </contour>
    <contour>
      <point x="560" y="842" type="line"/>
      <point x="560" y="1110" type="line"/>
      <point x="682" y="1110" type="line" smooth="yes"/>
      <point x="780" y="1110"/>
      <point x="834" y="1062"/>
      <point x="834" y="978" type="curve" smooth="yes"/>
      <point x="834" y="892"/>
      <point x="780" y="842"/>
      <point x="688" y="842" type="curve" smooth="yes"/>
    </contour>
  </outline>
</glyph>
<glyph name="C" format="2">
  <advance width="1399"/>
  <unicode hex="0043"/>
  <anchor x="769" y="0" name="bottom"/>
  <anchor x="769" y="1400" name="top"/>
  <outline>
    <contour>
      <point x="809" y="-30" type="curve" smooth="yes"/>
      <point x="1065" y="-30"/>
      <point x="1247" y="42"/>
      <point x="1373" y="138" type="curve"/>
      <point x="1189" y="476" type="line"/>
      <point x="1081" y="398"/>
      <point x="959" y="364"/>
      <point x="845" y="364" type="curve" smooth="yes"/>
      <point x="621" y="364"/>
      <point x="491" y="490"/>
      <point x="491" y="700" type="curve" smooth="yes"/>
      <point x="491" y="906"/>
      <point x="615" y="1036"/>
      <point x="841" y="1036" type="curve" smooth="yes"/>
      <point x="967" y="1036"/>
      <point x="1073" y="996"/>
      <point x="1145" y="918" type="curve"/>
      <point x="1343" y="1250" type="line"/>
      <point x="1207" y="1364"/>
      <point x="1063" y="1430"/>
      <point x="815" y="1430" type="curve" smooth="yes"/>
      <point x="379" y="1430"/>
      <point x="67" y="1128"/>
      <point x="67" y="694" type="curve" smooth="yes"/>
      <point x="67" y="248"/>
      <point x="373" y="-30"/>
    </contour>
  </outline>
</glyph>
<glyph name="D" format="2">
  <advance width="1474"/>
  <unicode hex="0044"/>
  <anchor x="437" y="712" name="bar"/>
  <anchor x="721" y="1400" name="top"/>
  <outline>
    <contour>
      <point x="153" y="0" type="line"/>
      <point x="661" y="0" type="line" smooth="yes"/>
      <point x="1111" y="0"/>
      <point x="1407" y="280"/>
      <point x="1407" y="700" type="curve" smooth="yes"/>
      <point x="1407" y="1116"/>
      <point x="1109" y="1400"/>
      <point x="661" y="1400" type="curve" smooth="yes"/>
      <point x="153" y="1400" type="line"/>
    </contour>
    <contour>
      <point x="557" y="376" type="line"/>
      <point x="557" y="1024" type="line"/>
      <point x="651" y="1024" type="line" smooth="yes"/>
      <point x="847" y="1024"/>
      <point x="983" y="920"/>
      <point x="983" y="700" type="curve" smooth="yes"/>
      <point x="983" y="480"/>
      <point x="847" y="376"/>
      <point x="651" y="376" type="curve" smooth="yes"/>
    </contour>
  </outline>
</glyph>
<glyph name="F" format="2">
  <advance width="1210"/>
  <unicode hex="0046"/>
  <outline>
    <contour>
      <point x="153" y="0" type="line"/>
      <point x="557" y="0" type="line"/>
      <point x="557" y="466" type="line"/>
      <point x="1051" y="466" type="line"/>
      <point x="1051" y="818" type="line"/>
      <point x="557" y="818" type="line"/>
      <point x="557" y="1032" type="line"/>
      <point x="1113" y="1032" type="line"/>
      <point x="1113" y="1400" type="line"/>
      <point x="153" y="1400" type="line"/>
    </contour>
  </outline>
</glyph>
<glyph name="G" format="2">
  <advance width="1506"/>
  <unicode hex="0047"/>
  <anchor x="847" y="0" name="bottom"/>
  <anchor x="787" y="1400" name="top"/>
  <outline>
    <contour>
      <point x="861" y="-30" type="curve" smooth="yes"/>
      <point x="1021" y="-30"/>
      <point x="1237" y="13"/>
      <point x="1373" y="84" type="curve"/>
      <point x="1373" y="838" type="line"/>
      <point x="757" y="838" type="line"/>
      <point x="757" y="522" type="line"/>
      <point x="1023" y="522" type="line"/>
      <point x="1023" y="334" type="line"/>
      <point x="977" y="324"/>
      <point x="929" y="318"/>
      <point x="887" y="318" type="curve" smooth="yes"/>
      <point x="669" y="318"/>
      <point x="483" y="440"/>
      <point x="483" y="696" type="curve" smooth="yes"/>
      <point x="483" y="928"/>
      <point x="627" y="1068"/>
      <point x="879" y="1068" type="curve" smooth="yes"/>
      <point x="999" y="1068"/>
      <point x="1097" y="1040"/>
      <point x="1189" y="980" type="curve"/>
      <point x="1355" y="1291" type="line"/>
      <point x="1175" y="1405"/>
      <point x="992" y="1430"/>
      <point x="847" y="1430" type="curve" smooth="yes"/>
      <point x="421" y="1430"/>
      <point x="67" y="1154"/>
      <point x="67" y="700" type="curve" smooth="yes"/>
      <point x="67" y="241"/>
      <point x="435" y="-30"/>
    </contour>
  </outline>
</glyph>
<glyph name="H" format="2">
  <advance width="1582"/>
  <unicode hex="0048"/>
  <anchor x="791" y="1400" name="top"/>
  <anchor x="37" y="1400" name="topleft"/>
  <outline>
    <contour>
      <point x="153" y="0" type="line"/>
      <point x="557" y="0" type="line"/>
      <point x="557" y="538" type="line"/>
      <point x="1025" y="538" type="line"/>
      <point x="1025" y="0" type="line"/>
      <point x="1429" y="0" type="line"/>
      <point x="1429" y="1400" type="line"/>
      <point x="1025" y="1400" type="line"/>
      <point x="1025" y="906" type="line"/>
      <point x="557" y="906" type="line"/>
      <point x="557" y="1400" type="line"/>
      <point x="153" y="1400" type="line"/>
    </contour>
  </outline>
</glyph>
<glyph name="I" format="2">
  <advance width="710"/>
  <unicode hex="0049"/>
  <anchor x="355" y="0" name="bottom"/>
  <anchor x="557" y="0" name="ogonek"/>
  <anchor x="355" y="1400" name="top"/>
  <anchor x="37" y="1400" name="topleft"/>
  <outline>
    <contour>
      <point x="153" y="0" type="line"/>
      <point x="557" y="0" type="line"/>
      <point x="557" y="1400" type="line"/>
      <point x="153" y="1400" type="line"/>
    </contour>
  </outline>
</glyph>
<glyph name="K" format="2">
  <advance width="1516"/>
  <unicode hex="004B"/>
  <anchor x="789" y="0" name="bottom"/>
  <outline>
    <contour>
      <point x="153" y="0" type="line"/>
      <point x="557" y="0" type="line"/>
      <point x="557" y="312" type="line"/>
      <point x="681" y="446" type="line"/>
      <point x="1011" y="0" type="line"/>
      <point x="1529" y="0" type="line"/>
      <point x="947" y="750" type="line"/>
      <point x="1469" y="1400" type="line"/>
      <point x="963" y="1400" type="line"/>
      <point x="557" y="882" type="line"/>
      <point x="557" y="1400" type="line"/>
      <point x="153" y="1400" type="line"/>
    </contour>
  </outline>
</glyph>
<glyph name="L" format="2">
  <advance width="1144"/>
  <unicode hex="004C"/>
  <anchor x="621" y="0" name="bottom"/>
  <anchor x="557" y="1440" name="caron"/>
  <anchor x="355" y="1400" name="top"/>
  <outline>
    <contour>
      <point x="153" y="0" type="line"/>
      <point x="1087" y="0" type="line"/>
      <point x="1087" y="368" type="line"/>
      <point x="557" y="368" type="line"/>
      <point x="557" y="1400" type="line"/>
      <point x="153" y="1400" type="line"/>
    </contour>
  </outline>
</glyph>
<glyph name="N" format="2">
  <advance width="1596"/>
  <unicode hex="004E"/>
  <anchor x="798" y="0" name="bottom"/>
  <anchor x="798" y="1400" name="top"/>
  <outline>
    <contour>
      <point x="156" y="0" type="line"/>
      <point x="546" y="0" type="line"/>
      <point x="546" y="764" type="line"/>
      <point x="1036" y="0" type="line"/>
      <point x="1440" y="0" type="line"/>
      <point x="1440" y="1400" type="line"/>
      <point x="1050" y="1400" type="line"/>
      <point x="1050" y="648" type="line"/>
      <point x="560" y="1400" type="line"/>
      <point x="156" y="1400" type="line"/>
    </contour>
  </outline>
</glyph>
<glyph name="O" format="2">
  <advance width="1648"/>
  <unicode hex="004F"/>
  <anchor x="824" y="0" name="bottom"/>
  <anchor x="1228" y="1400" name="horn"/>
  <anchor x="1084" y="0" name="ogonek"/>
  <anchor x="824" y="1400" name="top"/>
  <anchor x="90" y="1400" name="topleft"/>
  <outline>
    <contour>
      <point x="824" y="-30" type="curve" smooth="yes"/>
      <point x="1260" y="-30"/>
      <point x="1578" y="286"/>
      <point x="1578" y="700" type="curve" smooth="yes"/>
      <point x="1578" y="1108"/>
      <point x="1260" y="1430"/>
      <point x="824" y="1430" type="curve" smooth="yes"/>
      <point x="386" y="1430"/>
      <point x="70" y="1116"/>
      <point x="70" y="700" type="curve" smooth="yes"/>
      <point x="70" y="286"/>
      <point x="386" y="-30"/>
    </contour>
    <contour>
      <point x="824" y="348" type="curve" smooth="yes"/>
      <point x="630" y="348"/>
      <point x="494" y="484"/>
      <point x="494" y="700" type="curve" smooth="yes"/>
      <point x="494" y="916"/>
      <point x="630" y="1052"/>
      <point x="824" y="1052" type="curve" smooth="yes"/>
      <point x="1018" y="1052"/>
      <point x="1154" y="916"/>
      <point x="1154" y="700" type="curve" smooth="yes"/>
      <point x="1154" y="484"/>
      <point x="1018" y="348"/>
    </contour>
  </outline>
</glyph>
<glyph name="P" format="2">
  <advance width="1346"/>
  <unicode hex="0050"/>
  <outline>
    <contour>
      <point x="153" y="0" type="line"/>
      <point x="557" y="0" type="line"/>
      <point x="557" y="432" type="line"/>
      <point x="741" y="432" type="line" smooth="yes"/>
      <point x="1101" y="432"/>
      <point x="1309" y="608"/>
      <point x="1309" y="916" type="curve" smooth="yes"/>
      <point x="1309" y="1222"/>
      <point x="1073" y="1400"/>
      <point x="751" y="1400" type="curve" smooth="yes"/>
      <point x="153" y="1400" type="line"/>
    </contour>
    <contour>
      <point x="557" y="766" type="line"/>
      <point x="557" y="1056" type="line"/>
      <point x="727" y="1056" type="line" smooth="yes"/>
      <point x="831" y="1056"/>
      <point x="905" y="1022"/>
      <point x="905" y="910" type="curve" smooth="yes"/>
      <point x="905" y="802"/>
      <point x="837" y="766"/>
      <point x="725" y="766" type="curve" smooth="yes"/>
    </contour>
  </outline>
</glyph>
<glyph name="Q" format="2">
  <advance width="1642"/>
  <unicode hex="0051"/>
  <outline>
    <contour>
      <point x="1333" y="-124" type="line"/>
      <point x="1561" y="74" type="line"/>
      <point x="1409" y="240" type="line"/>
      <point x="1513" y="364"/>
      <point x="1575" y="526"/>
      <point x="1575" y="708" type="curve" smooth="yes"/>
      <point x="1575" y="1120"/>
      <point x="1241" y="1430"/>
      <point x="821" y="1430" type="curve" smooth="yes"/>
      <point x="389" y="1430"/>
      <point x="67" y="1116"/>
      <point x="67" y="700" type="curve" smooth="yes"/>
      <point x="67" y="276"/>
      <point x="393" y="-30"/>
      <point x="805" y="-30" type="curve" smooth="yes"/>
      <point x="937" y="-30"/>
      <point x="1061" y="0"/>
      <point x="1173" y="54" type="curve"/>
    </contour>
    <contour>
      <point x="821" y="306" type="curve" smooth="yes"/>
      <point x="613" y="306"/>
      <point x="467" y="468"/>
      <point x="467" y="700" type="curve" smooth="yes"/>
      <point x="467" y="932"/>
      <point x="613" y="1078"/>
      <point x="821" y="1078" type="curve" smooth="yes"/>
      <point x="1029" y="1078"/>
      <point x="1191" y="932"/>
      <point x="1191" y="700" type="curve" smooth="yes"/>
      <point x="1191" y="628"/>
      <point x="1177" y="566"/>
      <point x="1153" y="514" type="curve"/>
      <point x="995" y="692" type="line"/>
      <point x="787" y="512" type="line"/>
      <point x="945" y="326" type="line"/>
      <point x="905" y="312"/>
      <point x="861" y="306"/>
    </contour>
  </outline>
</glyph>
<glyph name="R" format="2">
  <advance width="1404"/>
  <unicode hex="0052"/>
  <anchor x="731" y="0" name="bottom"/>
  <anchor x="665" y="1400" name="top"/>
  <outline>
    <contour>
      <point x="153" y="0" type="line"/>
      <point x="557" y="0" type="line"/>
      <point x="557" y="482" type="line"/>
      <point x="635" y="482" type="line"/>
      <point x="897" y="0" type="line"/>
      <point x="1373" y="0" type="line"/>
      <point x="1027" y="572" type="line"/>
      <point x="1171" y="632"/>
      <point x="1291" y="760"/>
      <point x="1291" y="964" type="curve" smooth="yes"/>
      <point x="1291" y="1242"/>
      <point x="1075" y="1400"/>
      <point x="747" y="1400" type="curve" smooth="yes"/>
      <point x="153" y="1400" type="line"/>
    </contour>
    <contour>
      <point x="557" y="800" type="line"/>
      <point x="557" y="1072" type="line"/>
      <point x="707" y="1072" type="line" smooth="yes"/>
      <point x="815" y="1072"/>
      <point x="883" y="1038"/>
      <point x="883" y="936" type="curve" smooth="yes"/>
      <point x="883" y="834"/>
      <point x="815" y="800"/>
      <point x="705" y="800" type="curve" smooth="yes"/>
    </contour>
  </outline>
</glyph>
<glyph name="T" format="2">
  <advance width="1180"/>
  <unicode hex="0054"/>
  <anchor x="591" y="644" name="bar"/>
  <anchor x="589" y="0" name="bottom"/>
  <anchor x="589" y="1400" name="top"/>
  <outline>
    <contour>
      <point x="387" y="0" type="line"/>
      <point x="793" y="0" type="line"/>
      <point x="793" y="1032" type="line"/>
      <point x="1153" y="1032" type="line"/>
      <point x="1153" y="1400" type="line"/>
      <point x="27" y="1400" type="line"/>
      <point x="27" y="1032" type="line"/>
      <point x="387" y="1032" type="line"/>
    </contour>
  </outline>
</glyph>
<glyph name="V" format="2">
  <advance width="1440"/>
  <unicode hex="0056"/>
  <outline>
    <contour>
      <point x="484" y="0" type="line"/>
      <point x="954" y="0" type="line"/>
      <point x="1458" y="1400" type="line"/>
      <point x="1010" y="1400" type="line"/>
      <point x="724" y="504" type="line"/>
      <point x="438" y="1400" type="line"/>
      <point x="-18" y="1400" type="line"/>
    </contour>
  </outline>
</glyph>
<glyph name="W" format="2">
  <advance width="2104"/>
  <unicode hex="0057"/>
  <anchor x="1052" y="1400" name="top"/>
  <outline>
    <contour>
      <point x="448" y="0" type="line"/>
      <point x="830" y="0" type="line"/>
      <point x="1050" y="806" type="line"/>
      <point x="1270" y="0" type="line"/>
      <point x="1656" y="0" type="line"/>
      <point x="2084" y="1400" type="line"/>
      <point x="1678" y="1400" type="line"/>
      <point x="1478" y="618" type="line"/>
      <point x="1256" y="1400" type="line"/>
      <point x="858" y="1400" type="line"/>
      <point x="636" y="618" type="line"/>
      <point x="436" y="1400" type="line"/>
      <point x="20" y="1400" type="line"/>
    </contour>
  </outline>
</glyph>
<glyph name="X" format="2">
  <advance width="1418"/>
  <unicode hex="0058"/>
  <outline>
    <contour>
      <point x="11" y="0" type="line"/>
      <point x="491" y="0" type="line"/>
      <point x="703" y="402" type="line"/>
      <point x="915" y="0" type="line"/>
      <point x="1407" y="0" type="line"/>
      <point x="995" y="704" type="line"/>
      <point x="1401" y="1400" type="line"/>
      <point x="925" y="1400" type="line"/>
      <point x="719" y="1020" type="line"/>
      <point x="513" y="1400" type="line"/>
      <point x="25" y="1400" type="line"/>
      <point x="431" y="710" type="line"/>
    </contour>
  </outline>
</glyph>
<glyph name="Z" format="2">
  <advance width="1184"/>
  <unicode hex="005A"/>
  <anchor x="595" y="1400" name="top"/>
  <outline>
    <contour>
      <point x="67" y="0" type="line"/>
      <point x="1121" y="0" type="line"/>
      <point x="1121" y="368" type="line"/>
      <point x="561" y="368" type="line"/>
      <point x="1117" y="1066" type="line"/>
      <point x="1117" y="1400" type="line"/>
      <point x="91" y="1400" type="line"/>
      <point x="91" y="1032" type="line"/>
      <point x="627" y="1032" type="line"/>
      <point x="67" y="336" type="line"/>
    </contour>
  </outline>
</glyph>
<glyph name="bracketleft" format="2">
  <advance width="732"/>
  <unicode hex="005B"/>
  <outline>
    <contour>
      <point x="150" y="-220" type="line"/>
      <point x="666" y="-220" type="line"/>
      <point x="666" y="46" type="line"/>
      <point x="466" y="46" type="line"/>
      <point x="466" y="1334" type="line"/>
      <point x="666" y="1334" type="line"/>
      <point x="666" y="1600" type="line"/>
      <point x="150" y="1600" type="line"/>
    </contour>
  </outline>
</glyph>
<glyph name="backslash" format="2">
  <advance width="948"/>
  <unicode hex="005C"/>
  <outline>
    <contour>
      <point x="656" y="-230" type="line"/>
      <point x="978" y="-104" type="line"/>
      <point x="292" y="1610" type="line"/>
      <point x="-30" y="1484" type="line"/>
    </contour>
  </outline>
</glyph>
<glyph name="bracketright" format="2">
  <advance width="732"/>
  <unicode hex="005D"/>
  <outline>
    <contour>
      <point x="582" y="-220" type="line"/>
      <point x="582" y="1600" type="line"/>
      <point x="66" y="1600" type="line"/>
      <point x="66" y="1334" type="line"/>
      <point x="266" y="1334" type="line"/>
      <point x="266" y="46" type="line"/>
      <point x="66" y="46" type="line"/>
      <point x="66" y="-220" type="line"/>
    </contour>
  </outline>
</glyph>
<glyph name="a" format="2">
  <advance width="1197"/>
  <unicode hex="0061"/>
  <anchor x="567" y="0" name="bottom"/>
  <anchor x="1085" y="0" name="ogonek"/>
  <anchor x="567" y="1040" name="top"/>
  <outline>
    <contour>
      <point x="419" y="-30" type="curve" smooth="yes"/>
      <point x="565" y="-30"/>
      <point x="681" y="18"/>
      <point x="745" y="102" type="curve"/>
      <point x="745" y="0" type="line"/>
      <point x="1085" y="0" type="line"/>
      <point x="1085" y="620" type="line" smooth="yes"/>
      <point x="1085" y="944"/>
      <point x="865" y="1080"/>
      <point x="567" y="1080" type="curve" smooth="yes"/>
      <point x="410" y="1080"/>
      <point x="241" y="1038"/>
      <point x="103" y="954" type="curve"/>
      <point x="201" y="688" type="line"/>
      <point x="279" y="746"/>
      <point x="390" y="780"/>
      <point x="497" y="780" type="curve" smooth="yes"/>
      <point x="656" y="780"/>
      <point x="705" y="710"/>
      <point x="705" y="614" type="curve" smooth="yes"/>
      <point x="705" y="402" type="line" smooth="yes"/>
      <point x="705" y="296"/>
      <point x="629" y="250"/>
      <point x="534" y="250" type="curve" smooth="yes"/>
      <point x="463" y="250"/>
      <point x="415" y="276"/>
      <point x="415" y="331" type="curve" smooth="yes"/>
      <point x="415" y="432"/>
      <point x="577" y="450"/>
      <point x="759" y="410" type="curve"/>
      <point x="757" y="648" type="line"/>
      <point x="299" y="686"/>
      <point x="53" y="556"/>
      <point x="53" y="308" type="curve" smooth="yes"/>
      <point x="53" y="94"/>
      <point x="219" y="-30"/>
    </contour>
  </outline>
</glyph>
<glyph name="b" format="2">
  <advance width="1358"/>
  <unicode hex="0062"/>
  <outline>
    <contour>
      <point x="797" y="-30" type="curve" smooth="yes"/>
      <point x="1089" y="-30"/>
      <point x="1311" y="180"/>
      <point x="1311" y="520" type="curve" smooth="yes"/>
      <point x="1311" y="834"/>
      <point x="1093" y="1070"/>
      <point x="789" y="1070" type="curve" smooth="yes"/>
      <point x="649" y="1070"/>
      <point x="527" y="1018"/>
      <point x="431" y="900" type="curve"/>
      <point x="523" y="808" type="line"/>
      <point x="523" y="1440" type="line"/>
      <point x="125" y="1440" type="line"/>
      <point x="125" y="0" type="line"/>
      <point x="465" y="0" type="line"/>
      <point x="465" y="282" type="line"/>
      <point x="411" y="192" type="line"/>
      <point x="461" y="58"/>
      <point x="611" y="-30"/>
    </contour>
    <contour>
      <point x="723" y="310" type="curve" smooth="yes"/>
      <point x="611" y="310"/>
      <point x="523" y="390"/>
      <point x="523" y="520" type="curve" smooth="yes"/>
      <point x="523" y="650"/>
      <point x="609" y="730"/>
      <point x="723" y="730" type="curve" smooth="yes"/>
      <point x="837" y="730"/>
      <point x="923" y="650"/>
      <point x="923" y="520" type="curve" smooth="yes"/>
      <point x="923" y="390"/>
      <point x="835" y="310"/>
    </contour>
  </outline>
</glyph>
<glyph name="c" format="2">
  <advance width="1099"/>
  <unicode hex="0063"/>
  <anchor x="589" y="0" name="bottom"/>
  <anchor x="601" y="1040" name="top"/>
  <outline>
    <contour>
      <point x="629" y="-30" type="curve" smooth="yes"/>
      <point x="785" y="-30"/>
      <point x="955" y="24"/>
      <point x="1075" y="114" type="curve"/>
      <point x="923" y="416" type="line"/>
      <point x="845" y="344"/>
      <point x="763" y="310"/>
      <point x="671" y="310" type="curve" smooth="yes"/>
      <point x="527" y="310"/>
      <point x="441" y="388"/>
      <point x="441" y="520" type="curve" smooth="yes"/>
      <point x="441" y="654"/>
      <point x="525" y="730"/>
      <point x="669" y="730" type="curve" smooth="yes"/>
      <point x="751" y="730"/>
      <point x="829" y="702"/>
      <point x="897" y="638" type="curve"/>
      <point x="1067" y="932" type="line"/>
      <point x="953" y="1022"/>
      <point x="807" y="1070"/>
      <point x="641" y="1070" type="curve" smooth="yes"/>
      <point x="305" y="1070"/>
      <point x="47" y="832"/>
      <point x="47" y="520" type="curve" smooth="yes"/>
      <point x="47" y="206"/>
      <point x="297" y="-30"/>
    </contour>
  </outline>
</glyph>
<glyph name="e" format="2">
  <advance width="1217"/>
  <unicode hex="0065"/>
  <anchor x="593" y="0" name="bottom"/>
  <anchor x="1077" y="0" name="ogonek"/>
  <anchor x="613" y="1040" name="top"/>
  <outline>
    <contour>
      <point x="629" y="-30" type="curve" smooth="yes"/>
      <point x="789" y="-30"/>
      <point x="1001" y="28"/>
      <point x="1093" y="98" type="curve"/>
      <point x="977" y="362" type="line"/>
      <point x="869" y="298"/>
      <point x="763" y="270"/>
      <point x="637" y="270" type="curve" smooth="yes"/>
      <point x="507" y="270"/>
      <point x="413" y="326"/>
      <point x="405" y="408" type="curve"/>
      <point x="1155" y="408" type="line"/>
      <point x="1231" y="786"/>
      <point x="1003" y="1070"/>
      <point x="625" y="1070" type="curve" smooth="yes"/>
      <point x="287" y="1070"/>
      <point x="47" y="844"/>
      <point x="47" y="522" type="curve" smooth="yes"/>
      <point x="47" y="190"/>
      <point x="279" y="-30"/>
    </contour>
    <contour>
      <point x="431" y="668" type="line"/>
      <point x="437" y="740"/>
      <point x="511" y="790"/>
      <point x="613" y="790" type="curve" smooth="yes"/>
      <point x="711" y="790"/>
      <point x="779" y="740"/>
      <point x="779" y="668" type="curve"/>
    </contour>
  </outline>
</glyph>
<glyph name="f" format="2">
  <advance width="878"/>
  <unicode hex="0066"/>
  <outline>
    <contour>
      <point x="201" y="0" type="line"/>
      <point x="601" y="0" type="line"/>
      <point x="601" y="728" type="line"/>
      <point x="843" y="728" type="line"/>
      <point x="843" y="1040" type="line"/>
      <point x="601" y="1040" type="line"/>
      <point x="601" y="1064" type="line" smooth="yes"/>
      <point x="601" y="1114"/>
      <point x="637" y="1144"/>
      <point x="703" y="1144" type="curve" smooth="yes"/>
      <point x="735" y="1144"/>
      <point x="769" y="1138"/>
      <point x="807" y="1116" type="curve"/>
      <point x="861" y="1416" type="line"/>
      <point x="777" y="1456"/>
      <point x="695" y="1470"/>
      <point x="613" y="1470" type="curve" smooth="yes"/>
      <point x="345" y="1470"/>
      <point x="201" y="1318"/>
      <point x="201" y="1086" type="curve" smooth="yes"/>
    </contour>
    <contour>
      <point x="37" y="728" type="line"/>
      <point x="233" y="728" type="line"/>
      <point x="233" y="1040" type="line"/>
      <point x="37" y="1040" type="line"/>
    </contour>
  </outline>
</glyph>
<glyph name="g" format="2">
  <advance width="1244"/>
  <unicode hex="0067"/>
  <guideline x="203" y="181" angle="354.2894"/>
  <anchor x="591" y="1040" name="top"/>
  <outline>
    <contour>
      <point x="527" y="-450" type="curve" smooth="yes"/>
      <point x="913" y="-450"/>
      <point x="1165" y="-292"/>
      <point x="1165" y="-72" type="curve" smooth="yes"/>
      <point x="1165" y="120"/>
      <point x="993" y="194"/>
      <point x="739" y="218" type="curve" smooth="yes"/>
      <point x="561" y="234" type="line" smooth="yes"/>
      <point x="469" y="242"/>
      <point x="449" y="260"/>
      <point x="449" y="282" type="curve" smooth="yes"/>
      <point x="449" y="310"/>
      <point x="483" y="330"/>
      <point x="589" y="328" type="curve"/>
      <point x="523" y="470" type="line"/>
      <point x="305" y="480"/>
      <point x="133" y="352"/>
      <point x="133" y="220" type="curve" smooth="yes"/>
      <point x="133" y="148"/>
      <point x="167" y="90"/>
      <point x="243" y="44" type="curve"/>
      <point x="103" y="14"/>
      <point x="17" y="-76"/>
      <point x="17" y="-172" type="curve" smooth="yes"/>
      <point x="17" y="-344"/>
      <point x="217" y="-450"/>
    </contour>
    <contour>
      <point x="591" y="-208" type="curve" smooth="yes"/>
      <point x="447" y="-208"/>
      <point x="355" y="-174"/>
      <point x="355" y="-122" type="curve" smooth="yes"/>
      <point x="355" y="-86"/>
      <point x="397" y="-56"/>
      <point x="473" y="-46" type="curve"/>
      <point x="675" y="-62" type="line" smooth="yes"/>
      <point x="769" y="-70"/>
      <point x="807" y="-86"/>
      <point x="807" y="-126" type="curve" smooth="yes"/>
      <point x="807" y="-176"/>
      <point x="723" y="-208"/>
    </contour>
    <contour>
      <point x="571" y="320" type="curve" smooth="yes"/>
      <point x="855" y="320"/>
      <point x="1045" y="488"/>
      <point x="1045" y="696" type="curve" smooth="yes"/>
      <point x="1045" y="908"/>
      <point x="849" y="1070"/>
      <point x="571" y="1070" type="curve" smooth="yes"/>
      <point x="291" y="1070"/>
      <point x="95" y="904"/>
      <point x="95" y="696" type="curve" smooth="yes"/>
      <point x="95" y="482"/>
      <point x="285" y="320"/>
    </contour>
    <contour>
      <point x="571" y="580" type="curve" smooth="yes"/>
      <point x="487" y="580"/>
      <point x="421" y="628"/>
      <point x="421" y="696" type="curve" smooth="yes"/>
      <point x="421" y="764"/>
      <point x="487" y="812"/>
      <point x="571" y="812" type="curve" smooth="yes"/>
      <point x="653" y="812"/>
      <point x="721" y="764"/>
      <point x="721" y="696" type="curve" smooth="yes"/>
      <point x="721" y="628"/>
      <point x="653" y="580"/>
    </contour>
    <contour>
      <point x="723" y="748" type="line"/>
      <point x="1225" y="728" type="line"/>
      <point x="1225" y="1040" type="line"/>
      <point x="571" y="1000" type="line"/>
    </contour>
  </outline>
</glyph>
<glyph name="h" format="2">
  <advance width="1360"/>
  <unicode hex="0068"/>
  <anchor x="403" y="1224" name="bar"/>
  <anchor x="325" y="1440" name="top"/>
  <outline>
    <contour>
      <point x="125" y="0" type="line"/>
      <point x="525" y="0" type="line"/>
      <point x="525" y="534" type="line" smooth="yes"/>
      <point x="525" y="644"/>
      <point x="575" y="712"/>
      <point x="683" y="710" type="curve" smooth="yes"/>
      <point x="787" y="708"/>
      <point x="845" y="638"/>
      <point x="845" y="534" type="curve" smooth="yes"/>
      <point x="845" y="0" type="line"/>
      <point x="1245" y="0" type="line"/>
      <point x="1245" y="646" type="line" smooth="yes"/>
      <point x="1245" y="874"/>
      <point x="1099" y="1070"/>
      <point x="801" y="1070" type="curve" smooth="yes"/>
      <point x="649" y="1070"/>
      <point x="529" y="996"/>
      <point x="441" y="896" type="curve"/>
      <point x="525" y="794" type="line"/>
      <point x="525" y="1440" type="line"/>
      <point x="125" y="1440" type="line"/>
    </contour>
  </outline>
</glyph>
<glyph name="n" format="2">
  <advance width="1360"/>
  <unicode hex="006E"/>
  <anchor x="685" y="0" name="bottom"/>
  <anchor x="687" y="1040" name="top"/>
  <outline>
    <contour>
      <point x="125" y="0" type="line"/>
      <point x="525" y="0" type="line"/>
      <point x="525" y="536" type="line" smooth="yes"/>
      <point x="525" y="638"/>
      <point x="583" y="710"/>
      <point x="687" y="710" type="curve" smooth="yes"/>
      <point x="795" y="710"/>
      <point x="845" y="646"/>
      <point x="845" y="536" type="curve" smooth="yes"/>
      <point x="845" y="0" type="line"/>
      <point x="1245" y="0" type="line"/>
      <point x="1245" y="662" type="line" smooth="yes"/>
      <point x="1245" y="874"/>
      <point x="1113" y="1070"/>
      <point x="813" y="1070" type="curve" smooth="yes"/>
      <point x="699" y="1070"/>
      <point x="597" y="1030"/>
      <point x="525" y="944" type="curve"/>
      <point x="525" y="1040" type="line"/>
      <point x="125" y="1040" type="line"/>
    </contour>
  </outline>
</glyph>
<glyph name="o" format="2">
  <advance width="1270"/>
  <unicode hex="006F"/>
  <anchor x="635" y="0" name="bottom"/>
  <anchor x="1035" y="1040" name="horn"/>
  <anchor x="909" y="0" name="ogonek"/>
  <anchor x="635" y="1040" name="top"/>
  <outline>
    <contour>
      <point x="635" y="-30" type="curve" smooth="yes"/>
      <point x="983" y="-30"/>
      <point x="1223" y="232"/>
      <point x="1223" y="520" type="curve" smooth="yes"/>
      <point x="1223" y="820"/>
      <point x="983" y="1070"/>
      <point x="635" y="1070" type="curve" smooth="yes"/>
      <point x="287" y="1070"/>
      <point x="47" y="808"/>
      <point x="47" y="520" type="curve" smooth="yes"/>
      <point x="47" y="220"/>
      <point x="287" y="-30"/>
    </contour>
    <contour>
      <point x="635" y="310" type="curve" smooth="yes"/>
      <point x="523" y="310"/>
      <point x="435" y="390"/>
      <point x="435" y="520" type="curve" smooth="yes"/>
      <point x="435" y="650"/>
      <point x="521" y="730"/>
      <point x="635" y="730" type="curve" smooth="yes"/>
      <point x="749" y="730"/>
      <point x="835" y="650"/>
      <point x="835" y="520" type="curve" smooth="yes"/>
      <point x="835" y="390"/>
      <point x="747" y="310"/>
    </contour>
  </outline>
</glyph>
<glyph name="p" format="2">
  <advance width="1364"/>
  <unicode hex="0070"/>
  <outline>
    <contour>
      <point x="128" y="-420" type="line"/>
      <point x="526" y="-420" type="line"/>
      <point x="526" y="52" type="line"/>
      <point x="604" y="-4"/>
      <point x="694" y="-30"/>
      <point x="792" y="-30" type="curve" smooth="yes"/>
      <point x="1096" y="-30"/>
      <point x="1314" y="206"/>
      <point x="1314" y="520" type="curve" smooth="yes"/>
      <point x="1314" y="860"/>
      <point x="1092" y="1070"/>
      <point x="800" y="1070" type="curve" smooth="yes"/>
      <point x="660" y="1070"/>
      <point x="540" y="1020"/>
      <point x="468" y="938" type="curve"/>
      <point x="468" y="1040" type="line"/>
      <point x="128" y="1040" type="line"/>
    </contour>
    <contour>
      <point x="726" y="310" type="curve" smooth="yes"/>
      <point x="612" y="310"/>
      <point x="526" y="390"/>
      <point x="526" y="520" type="curve" smooth="yes"/>
      <point x="526" y="650"/>
      <point x="614" y="730"/>
      <point x="726" y="730" type="curve" smooth="yes"/>
      <point x="838" y="730"/>
      <point x="926" y="650"/>
      <point x="926" y="520" type="curve" smooth="yes"/>
      <point x="926" y="390"/>
      <point x="840" y="310"/>
    </contour>
  </outline>
</glyph>
<glyph name="r" format="2">
  <advance width="930"/>
  <unicode hex="0072"/>
  <anchor x="325" y="0" name="bottom"/>
  <anchor x="525" y="1040" name="top"/>
  <outline>
    <contour>
      <point x="125" y="0" type="line"/>
      <point x="525" y="0" type="line"/>
      <point x="525" y="506" type="line" smooth="yes"/>
      <point x="525" y="626"/>
      <point x="601" y="680"/>
      <point x="705" y="680" type="curve" smooth="yes"/>
      <point x="761" y="680"/>
      <point x="819" y="668"/>
      <point x="869" y="648" type="curve"/>
      <point x="914" y="1058" type="line"/>
      <point x="879" y="1065"/>
      <point x="847" y="1072"/>
      <point x="798" y="1072" type="curve" smooth="yes"/>
      <point x="681" y="1072"/>
      <point x="577" y="1026"/>
      <point x="525" y="932" type="curve"/>
      <point x="525" y="1040" type="line"/>
      <point x="125" y="1040" type="line"/>
    </contour>
  </outline>
</glyph>
<glyph name="s" format="2">
  <advance width="1082"/>
  <unicode hex="0073"/>
  <anchor x="541" y="0" name="bottom"/>
  <anchor x="547" y="1040" name="top"/>
  <outline>
    <contour>
      <point x="541" y="-28" type="curve" smooth="yes"/>
      <point x="823" y="-28"/>
      <point x="1017" y="116"/>
      <point x="1017" y="334" type="curve" smooth="yes"/>
      <point x="1017" y="522"/>
      <point x="901" y="614"/>
      <point x="589" y="676" type="curve" smooth="yes"/>
      <point x="457" y="702"/>
      <point x="437" y="710"/>
      <point x="437" y="740" type="curve" smooth="yes"/>
      <point x="437" y="770"/>
      <point x="485" y="788"/>
      <point x="561" y="788" type="curve" smooth="yes"/>
      <point x="667" y="788"/>
      <point x="799" y="746"/>
      <point x="889" y="684" type="curve"/>
      <point x="1001" y="952" type="line"/>
      <point x="889" y="1030"/>
      <point x="723" y="1080"/>
      <point x="547" y="1080" type="curve" smooth="yes"/>
      <point x="275" y="1080"/>
      <point x="85" y="942"/>
      <point x="85" y="728" type="curve" smooth="yes"/>
      <point x="85" y="528"/>
      <point x="217" y="417"/>
      <point x="509" y="374" type="curve" smooth="yes"/>
      <point x="637" y="355"/>
      <point x="667" y="348"/>
      <point x="667" y="318" type="curve" smooth="yes"/>
      <point x="667" y="282"/>
      <point x="623" y="264"/>
      <point x="537" y="264" type="curve" smooth="yes"/>
      <point x="423" y="264"/>
      <point x="281" y="308"/>
      <point x="159" y="378" type="curve"/>
      <point x="43" y="110" type="line"/>
      <point x="168" y="20"/>
      <point x="334" y="-28"/>
    </contour>
  </outline>
</glyph>
<glyph name="t" format="2">
  <advance width="924"/>
  <unicode hex="0074"/>
  <anchor x="417" y="534" name="bar"/>
  <anchor x="555" y="0" name="bottom"/>
  <anchor x="601" y="1440" name="caron"/>
  <outline>
    <contour>
      <point x="595" y="-30" type="curve" smooth="yes"/>
      <point x="707" y="-30"/>
      <point x="809" y="2"/>
      <point x="875" y="40" type="curve"/>
      <point x="831" y="350" type="line"/>
      <point x="795" y="330"/>
      <point x="753" y="320"/>
      <point x="715" y="320" type="curve" smooth="yes"/>
      <point x="653" y="320"/>
      <point x="601" y="352"/>
      <point x="601" y="440" type="curve" smooth="yes"/>
      <point x="601" y="728" type="line"/>
      <point x="817" y="728" type="line"/>
      <point x="817" y="1040" type="line"/>
      <point x="601" y="1040" type="line"/>
      <point x="601" y="1334" type="line"/>
      <point x="201" y="1334" type="line"/>
      <point x="201" y="378" type="line" smooth="yes"/>
      <point x="201" y="110"/>
      <point x="347" y="-30"/>
    </contour>
    <contour>
      <point x="17" y="728" type="line"/>
      <point x="233" y="728" type="line"/>
      <point x="233" y="1040" type="line"/>
      <point x="17" y="1040" type="line"/>
    </contour>
  </outline>
</glyph>
<glyph name="v" format="2">
  <advance width="1172"/>
  <unicode hex="0076"/>
  <outline>
    <contour>
      <point x="361" y="0" type="line"/>
      <point x="829" y="0" type="line"/>
      <point x="1165" y="1040" type="line"/>
      <point x="749" y="1040" type="line"/>
      <point x="575" y="346" type="line"/>
      <point x="613" y="346" type="line"/>
      <point x="433" y="1040" type="line"/>
      <point x="7" y="1040" type="line"/>
    </contour>
  </outline>
</glyph>
<glyph name="w" format="2">
  <advance width="1710"/>
  <unicode hex="0077"/>
  <anchor x="853" y="1034" name="top"/>
  <outline>
    <contour>
      <point x="309" y="0" type="line"/>
      <point x="701" y="0" type="line"/>
      <point x="859" y="558" type="line"/>
      <point x="1009" y="0" type="line"/>
      <point x="1401" y="0" type="line"/>
      <point x="1703" y="1040" type="line"/>
      <point x="1333" y="1040" type="line"/>
      <point x="1205" y="458" type="line"/>
      <point x="1045" y="1040" type="line"/>
      <point x="685" y="1040" type="line"/>
      <point x="523" y="458" type="line"/>
      <point x="389" y="1040" type="line"/>
      <point x="7" y="1040" type="line"/>
    </contour>
  </outline>
</glyph>
<glyph name="x" format="2">
  <advance width="1340"/>
  <unicode hex="0078"/>
  <outline>
    <contour>
      <point x="20" y="-4" type="line"/>
      <point x="512" y="4" type="line"/>
      <point x="660" y="248" type="line"/>
      <point x="808" y="0" type="line"/>
      <point x="1320" y="0" type="line"/>
      <point x="952" y="512" type="line"/>
      <point x="1298" y="1040" type="line"/>
      <point x="802" y="1040" type="line"/>
      <point x="674" y="776" type="line"/>
      <point x="542" y="1040" type="line"/>
      <point x="38" y="1040" type="line"/>
      <point x="392" y="506" type="line"/>
    </contour>
  </outline>
</glyph>
<glyph name="y" format="2">
  <advance width="1230"/>
  <unicode hex="0079"/>
  <anchor x="1113" y="0" name="bottom"/>
  <anchor x="615" y="1040" name="top"/>
  <outline>
    <contour>
      <point x="321" y="-446" type="curve" smooth="yes"/>
      <point x="521" y="-446"/>
      <point x="703" y="-348"/>
      <point x="813" y="-74" type="curve" smooth="yes"/>
      <point x="1233" y="1040" type="line"/>
      <point x="811" y="1040" type="line"/>
      <point x="623" y="386" type="line"/>
      <point x="429" y="1040" type="line"/>
      <point x="-3" y="1040" type="line"/>
      <point x="397" y="4" type="line"/>
      <point x="393" y="-12" type="line" smooth="yes"/>
      <point x="377" y="-70"/>
      <point x="321" y="-88"/>
      <point x="261" y="-88" type="curve" smooth="yes"/>
      <point x="211" y="-88"/>
      <point x="153" y="-74"/>
      <point x="109" y="-52" type="curve"/>
      <point x="26" y="-384" type="line"/>
      <point x="107" y="-426"/>
      <point x="213" y="-446"/>
    </contour>
  </outline>
</glyph>
<glyph name="braceleft" format="2">
  <advance width="732"/>
  <unicode hex="007B"/>
  <outline>
    <contour>
      <point x="666" y="-226" type="curve"/>
      <point x="666" y="40" type="line"/>
      <point x="542" y="34"/>
      <point x="494" y="74"/>
      <point x="512" y="164" type="curve" smooth="yes"/>
      <point x="566" y="442" type="line" smooth="yes"/>
      <point x="590" y="570"/>
      <point x="530" y="664"/>
      <point x="394" y="690" type="curve"/>
      <point x="394" y="692" type="line"/>
      <point x="524" y="714"/>
      <point x="586" y="808"/>
      <point x="562" y="938" type="curve" smooth="yes"/>
      <point x="512" y="1216" type="line" smooth="yes"/>
      <point x="496" y="1310"/>
      <point x="542" y="1348"/>
      <point x="666" y="1340" type="curve"/>
      <point x="666" y="1606" type="line"/>
      <point x="296" y="1634"/>
      <point x="138" y="1504"/>
      <point x="196" y="1188" type="curve" smooth="yes"/>
      <point x="240" y="948" type="line" smooth="yes"/>
      <point x="256" y="856"/>
      <point x="216" y="824"/>
      <point x="66" y="824" type="curve"/>
      <point x="66" y="558" type="line"/>
      <point x="216" y="558"/>
      <point x="256" y="526"/>
      <point x="240" y="434" type="curve" smooth="yes"/>
      <point x="196" y="190" type="line" smooth="yes"/>
      <point x="140" y="-124"/>
      <point x="296" y="-254"/>
    </contour>
  </outline>
</glyph>
<glyph name="asciitilde" format="2">
  <advance width="1296"/>
  <unicode hex="007E"/>
  <outline>
    <contour>
      <point x="886" y="460" type="curve" smooth="yes"/>
      <point x="1018" y="460"/>
      <point x="1142" y="526"/>
      <point x="1236" y="656" type="curve"/>
      <point x="1100" y="874" type="line"/>
      <point x="1034" y="778"/>
      <point x="956" y="732"/>
      <point x="874" y="732" type="curve" smooth="yes"/>
      <point x="764" y="732"/>
      <point x="576" y="880"/>
      <point x="410" y="880" type="curve" smooth="yes"/>
      <point x="278" y="880"/>
      <point x="154" y="814"/>
      <point x="60" y="684" type="curve"/>
      <point x="196" y="466" type="line"/>
      <point x="260" y="560"/>
      <point x="338" y="608"/>
      <point x="422" y="608" type="curve" smooth="yes"/>
      <point x="532" y="608"/>
      <point x="720" y="460"/>
    </contour>
  </outline>
</glyph>
<glyph name="currency" format="2">
  <advance width="1296"/>
  <unicode hex="00A4"/>
  <outline>
    <contour>
      <point x="290" y="66" type="line"/>
      <point x="442" y="220" type="line"/>
      <point x="506" y="186"/>
      <point x="574" y="170"/>
      <point x="648" y="170" type="curve" smooth="yes"/>
      <point x="722" y="170"/>
      <point x="790" y="186"/>
      <point x="854" y="220" type="curve"/>
      <point x="1006" y="66" type="line"/>
      <point x="1206" y="264" type="line"/>
      <point x="1052" y="414" type="line"/>
      <point x="1086" y="478"/>
      <point x="1104" y="552"/>
      <point x="1104" y="620" type="curve" smooth="yes"/>
      <point x="1104" y="690"/>
      <point x="1086" y="764"/>
      <point x="1052" y="826" type="curve"/>
      <point x="1206" y="980" type="line"/>
      <point x="1006" y="1178" type="line"/>
      <point x="854" y="1024" type="line"/>
      <point x="790" y="1058"/>
      <point x="720" y="1074"/>
      <point x="648" y="1074" type="curve" smooth="yes"/>
      <point x="576" y="1074"/>
      <point x="506" y="1058"/>
      <point x="442" y="1024" type="curve"/>
      <point x="290" y="1178" type="line"/>
      <point x="90" y="980" type="line"/>
      <point x="244" y="826" type="line"/>
      <point x="210" y="764"/>
      <point x="192" y="690"/>
      <point x="192" y="620" type="curve" smooth="yes"/>
      <point x="192" y="552"/>
      <point x="210" y="478"/>
      <point x="244" y="414" type="curve"/>
      <point x="90" y="264" type="line"/>
    </contour>
    <contour>
      <point x="648" y="456" type="curve" smooth="yes"/>
      <point x="552" y="456"/>
      <point x="482" y="524"/>
      <point x="482" y="620" type="curve" smooth="yes"/>
      <point x="482" y="718"/>
      <point x="552" y="786"/>
      <point x="648" y="786" type="curve" smooth="yes"/>
      <point x="744" y="786"/>
      <point x="814" y="718"/>
      <point x="814" y="620" type="curve" smooth="yes"/>
      <point x="814" y="524"/>
      <point x="744" y="456"/>
    </contour>
  </outline>
</glyph>
<glyph name="brokenbar" format="2">
  <advance width="720"/>
  <unicode hex="00A6"/>
  <outline>
    <contour>
      <point x="200" y="810" type="line"/>
      <point x="520" y="810" type="line"/>
      <point x="520" y="1480" type="line"/>
      <point x="200" y="1480" type="line"/>
    </contour>
    <contour>
      <point x="200" y="-100" type="line"/>
      <point x="520" y="-100" type="line"/>
      <point x="520" y="570" type="line"/>
      <point x="200" y="570" type="line"/>
    </contour>
  </outline>
</glyph>
<glyph name="section" format="2">
  <advance width="1319"/>
  <unicode hex="00A7"/>
  <outline>
    <contour>
      <point x="641" y="-450" type="curve" smooth="yes"/>
      <point x="949" y="-450"/>
      <point x="1169" y="-294"/>
      <point x="1169" y="-50" type="curve" smooth="yes"/>
      <point x="1169" y="174"/>
      <point x="1035" y="288"/>
      <point x="717" y="350" type="curve" smooth="yes"/>
      <point x="531" y="386"/>
      <point x="437" y="428"/>
      <point x="437" y="514" type="curve" smooth="yes"/>
      <point x="437" y="618"/>
      <point x="545" y="666"/>
      <point x="665" y="666" type="curve"/>
      <point x="663" y="874" type="line"/>
      <point x="341" y="876"/>
      <point x="93" y="714"/>
      <point x="93" y="488" type="curve" smooth="yes"/>
      <point x="93" y="260"/>
      <point x="267" y="164"/>
      <point x="639" y="90" type="curve" smooth="yes"/>
      <point x="801" y="58"/>
      <point x="843" y="24"/>
      <point x="843" y="-40" type="curve" smooth="yes"/>
      <point x="843" y="-100"/>
      <point x="767" y="-142"/>
      <point x="653" y="-142" type="curve" smooth="yes"/>
      <point x="515" y="-142"/>
      <point x="357" y="-90"/>
      <point x="247" y="-8" type="curve"/>
      <point x="125" y="-292" type="line"/>
      <point x="247" y="-386"/>
      <point x="439" y="-450"/>
    </contour>
    <contour>
      <point x="675" y="112" type="line"/>
      <point x="997" y="112"/>
      <point x="1247" y="266"/>
      <point x="1247" y="504" type="curve" smooth="yes"/>
      <point x="1247" y="720"/>
      <point x="1075" y="822"/>
      <point x="707" y="896" type="curve" smooth="yes"/>
      <point x="537" y="930"/>
      <point x="497" y="958"/>
      <point x="497" y="1024" type="curve" smooth="yes"/>
      <point x="497" y="1082"/>
      <point x="569" y="1122"/>
      <point x="677" y="1122" type="curve" smooth="yes"/>
      <point x="799" y="1122"/>
      <point x="959" y="1070"/>
      <point x="1063" y="988" type="curve"/>
      <point x="1185" y="1272" type="line"/>
      <point x="1055" y="1374"/>
      <point x="869" y="1430"/>
      <point x="685" y="1430" type="curve" smooth="yes"/>
      <point x="385" y="1430"/>
      <point x="173" y="1272"/>
      <point x="173" y="1036" type="curve" smooth="yes"/>
      <point x="173" y="812"/>
      <point x="305" y="694"/>
      <point x="617" y="636" type="curve" smooth="yes"/>
      <point x="815" y="600"/>
      <point x="903" y="560"/>
      <point x="903" y="478" type="curve" smooth="yes"/>
      <point x="903" y="364"/>
      <point x="791" y="316"/>
      <point x="671" y="316" type="curve"/>
    </contour>
  </outline>
</glyph>
<glyph name="registered" format="2">
  <advance width="1212"/>
  <unicode hex="00AE"/>
  <anchor x="624" y="870" name="bottom"/>
  <anchor x="606" y="982" name="center"/>
  <anchor x="614" y="1092" name="top"/>
  <outline>
    <contour>
      <point x="606" y="470" type="curve" smooth="yes"/>
      <point x="900" y="470"/>
      <point x="1130" y="692"/>
      <point x="1130" y="982" type="curve" smooth="yes"/>
      <point x="1130" y="1266"/>
      <point x="900" y="1492"/>
      <point x="606" y="1492" type="curve" smooth="yes"/>
      <point x="310" y="1492"/>
      <point x="82" y="1272"/>
      <point x="82" y="982" type="curve" smooth="yes"/>
      <point x="82" y="692"/>
      <point x="310" y="470"/>
    </contour>
    <contour>
      <point x="606" y="566" type="curve" smooth="yes"/>
      <point x="378" y="566"/>
      <point x="190" y="732"/>
      <point x="190" y="982" type="curve" smooth="yes"/>
      <point x="190" y="1230"/>
      <point x="380" y="1394"/>
      <point x="606" y="1394" type="curve" smooth="yes"/>
      <point x="832" y="1394"/>
      <point x="1022" y="1230"/>
      <point x="1022" y="982" type="curve" smooth="yes"/>
      <point x="1022" y="732"/>
      <point x="834" y="566"/>
    </contour>
    <contour>
      <point x="410" y="706" type="line"/>
      <point x="532" y="706" type="line"/>
      <point x="532" y="912" type="line"/>
      <point x="592" y="912" type="line"/>
      <point x="730" y="706" type="line"/>
      <point x="876" y="706" type="line"/>
      <point x="716" y="936" type="line"/>
      <point x="790" y="956"/>
      <point x="846" y="1008"/>
      <point x="846" y="1088" type="curve" smooth="yes"/>
      <point x="846" y="1194"/>
      <point x="762" y="1256"/>
      <point x="638" y="1256" type="curve" smooth="yes"/>
      <point x="410" y="1256" type="line"/>
    </contour>
    <contour>
      <point x="532" y="1010" type="line"/>
      <point x="532" y="1156" type="line"/>
      <point x="628" y="1156" type="line" smooth="yes"/>
      <point x="688" y="1156"/>
      <point x="722" y="1130"/>
      <point x="722" y="1082" type="curve" smooth="yes"/>
      <point x="722" y="1034"/>
      <point x="684" y="1010"/>
      <point x="622" y="1010" type="curve" smooth="yes"/>
    </contour>
  </outline>
</glyph>
<glyph name="degree" format="2">
  <advance width="890"/>
  <unicode hex="00B0"/>
  <outline>
    <contour>
      <point x="446" y="606" type="curve" smooth="yes"/>
      <point x="680" y="606"/>
      <point x="860" y="786"/>
      <point x="860" y="1014" type="curve" smooth="yes"/>
      <point x="860" y="1242"/>
      <point x="680" y="1420"/>
      <point x="446" y="1420" type="curve" smooth="yes"/>
      <point x="212" y="1420"/>
      <point x="30" y="1242"/>
      <point x="30" y="1014" type="curve" smooth="yes"/>
      <point x="30" y="784"/>
      <point x="212" y="606"/>
    </contour>
    <contour>
      <point x="446" y="852" type="curve" smooth="yes"/>
      <point x="354" y="852"/>
      <point x="288" y="918"/>
      <point x="288" y="1014" type="curve" smooth="yes"/>
      <point x="288" y="1108"/>
      <point x="352" y="1174"/>
      <point x="446" y="1174" type="curve" smooth="yes"/>
      <point x="538" y="1174"/>
      <point x="604" y="1106"/>
      <point x="604" y="1014" type="curve" smooth="yes"/>
      <point x="604" y="922"/>
      <point x="536" y="852"/>
    </contour>
  </outline>
</glyph>
<glyph name="twosuperior" format="2">
  <advance width="844"/>
  <unicode hex="00B2"/>
  <outline>
    <contour>
      <point x="78" y="722" type="line"/>
      <point x="766" y="722" type="line"/>
      <point x="766" y="934" type="line"/>
      <point x="420" y="934" type="line"/>
      <point x="482" y="988" type="line" smooth="yes"/>
      <point x="676" y="1156"/>
      <point x="740" y="1250"/>
      <point x="740" y="1366" type="curve" smooth="yes"/>
      <point x="740" y="1534"/>
      <point x="606" y="1652"/>
      <point x="390" y="1652" type="curve" smooth="yes"/>
      <point x="270" y="1652"/>
      <point x="147" y="1605"/>
      <point x="57" y="1525" type="curve"/>
      <point x="144" y="1336" type="line"/>
      <point x="204" y="1398"/>
      <point x="280" y="1434"/>
      <point x="364" y="1434" type="curve" smooth="yes"/>
      <point x="450" y="1434"/>
      <point x="500" y="1400"/>
      <point x="500" y="1332" type="curve" smooth="yes"/>
      <point x="500" y="1256"/>
      <point x="438" y="1198"/>
      <point x="276" y="1058" type="curve" smooth="yes"/>
      <point x="78" y="888" type="line"/>
    </contour>
  </outline>
</glyph>
<glyph name="threesuperior" format="2">
  <advance width="826"/>
  <unicode hex="00B3"/>
  <outline>
    <contour>
      <point x="376" y="702" type="curve" smooth="yes"/>
      <point x="588" y="702"/>
      <point x="738" y="826"/>
      <point x="738" y="994" type="curve" smooth="yes"/>
      <point x="738" y="1154"/>
      <point x="618" y="1244"/>
      <point x="502" y="1260" type="curve"/>
      <point x="698" y="1440" type="line"/>
      <point x="698" y="1632" type="line"/>
      <point x="74" y="1632" type="line"/>
      <point x="74" y="1422" type="line"/>
      <point x="408" y="1422" type="line"/>
      <point x="190" y="1258" type="line"/>
      <point x="258" y="1096" type="line"/>
      <point x="300" y="1108"/>
      <point x="338" y="1112"/>
      <point x="366" y="1112" type="curve" smooth="yes"/>
      <point x="444" y="1112"/>
      <point x="498" y="1076"/>
      <point x="498" y="1014" type="curve" smooth="yes"/>
      <point x="498" y="958"/>
      <point x="438" y="920"/>
      <point x="358" y="920" type="curve" smooth="yes"/>
      <point x="274" y="920"/>
      <point x="182" y="956"/>
      <point x="136" y="1014" type="curve"/>
      <point x="60" y="810" type="line"/>
      <point x="115" y="750"/>
      <point x="247" y="702"/>
    </contour>
  </outline>
</glyph>
<glyph name="micro" format="2">
  <advance width="1340"/>
  <unicode hex="00B5"/>
  <outline>
    <contour>
      <point x="128" y="-420" type="line"/>
      <point x="488" y="-420" type="line"/>
      <point x="458" y="42" type="line"/>
      <point x="498" y="2"/>
      <point x="556" y="-30"/>
      <point x="650" y="-30" type="curve" smooth="yes"/>
      <point x="770" y="-30"/>
      <point x="832" y="40"/>
      <point x="872" y="102" type="curve"/>
      <point x="872" y="0" type="line"/>
      <point x="1212" y="0" type="line"/>
      <point x="1212" y="1040" type="line"/>
      <point x="812" y="1040" type="line"/>
      <point x="812" y="482" type="line" smooth="yes"/>
      <point x="812" y="392"/>
      <point x="760" y="330"/>
      <point x="670" y="330" type="curve" smooth="yes"/>
      <point x="580" y="330"/>
      <point x="528" y="392"/>
      <point x="528" y="482" type="curve" smooth="yes"/>
      <point x="528" y="1040" type="line"/>
      <point x="128" y="1040" type="line"/>
    </contour>
  </outline>
</glyph>
<glyph name="onesuperior" format="2">
  <advance width="666"/>
  <unicode hex="00B9"/>
  <outline>
    <contour>
      <point x="300" y="722" type="line"/>
      <point x="540" y="722" type="line"/>
      <point x="540" y="1652" type="line"/>
      <point x="522" y="1652" type="line"/>
      <point x="36" y="1486" type="line"/>
      <point x="104" y="1282" type="line"/>
      <point x="300" y="1344" type="line"/>
    </contour>
  </outline>
</glyph>
<glyph name="ordmasculine" format="2">
  <advance width="886"/>
  <unicode hex="00BA"/>
  <anchor x="443" y="722" name="bottom"/>
  <anchor x="711" y="1398" name="horn"/>
  <anchor x="575" y="722" name="ogonek"/>
  <anchor x="443" y="1398" name="top"/>
  <outline>
    <contour>
      <point x="443" y="702" type="curve" smooth="yes"/>
      <point x="675" y="702"/>
      <point x="835" y="874"/>
      <point x="835" y="1060" type="curve" smooth="yes"/>
      <point x="835" y="1254"/>
      <point x="675" y="1418"/>
      <point x="443" y="1418" type="curve" smooth="yes"/>
      <point x="211" y="1418"/>
      <point x="51" y="1246"/>
      <point x="51" y="1060" type="curve" smooth="yes"/>
      <point x="51" y="866"/>
      <point x="211" y="702"/>
    </contour>
    <contour>
      <point x="443" y="924" type="curve" smooth="yes"/>
      <point x="365" y="924"/>
      <point x="303" y="976"/>
      <point x="303" y="1060" type="curve" smooth="yes"/>
      <point x="303" y="1144"/>
      <point x="363" y="1196"/>
      <point x="443" y="1196" type="curve" smooth="yes"/>
      <point x="521" y="1196"/>
      <point x="581" y="1144"/>
      <point x="581" y="1060" type="curve" smooth="yes"/>
      <point x="581" y="976"/>
      <point x="521" y="924"/>
    </contour>
  </outline>
</glyph>
<glyph name="AE" format="2">
  <advance width="1840"/>
  <unicode hex="00C6"/>
  <anchor x="1181" y="1400" name="top"/>
  <outline>
    <contour>
      <point x="-103" y="0" type="line"/>
      <point x="325" y="0" type="line"/>
      <point x="427" y="250" type="line"/>
      <point x="777" y="250" type="line"/>
      <point x="777" y="0" type="line"/>
      <point x="1739" y="0" type="line"/>
      <point x="1739" y="352" type="line"/>
      <point x="1181" y="352" type="line"/>
      <point x="1181" y="550" type="line"/>
      <point x="1649" y="550" type="line"/>
      <point x="1649" y="870" type="line"/>
      <point x="1181" y="870" type="line"/>
      <point x="1181" y="1052" type="line"/>
      <point x="1731" y="1052" type="line"/>
      <point x="1731" y="1400" type="line"/>
      <point x="503" y="1400" type="line"/>
    </contour>
    <contour>
      <point x="555" y="566" type="line"/>
      <point x="777" y="1114" type="line"/>
      <point x="777" y="566" type="line"/>
    </contour>
  </outline>
</glyph>
<glyph name="Oslash" format="2">
  <advance width="1648"/>
  <unicode hex="00D8"/>
  <anchor x="824" y="1400" name="top"/>
  <outline>
    <contour>
      <point x="326" y="-124" type="line"/>
      <point x="472" y="54" type="line"/>
      <point x="576" y="0"/>
      <point x="696" y="-30"/>
      <point x="824" y="-30" type="curve" smooth="yes"/>
      <point x="1252" y="-30"/>
      <point x="1578" y="286"/>
      <point x="1578" y="700" type="curve" smooth="yes"/>
      <point x="1578" y="884"/>
      <point x="1516" y="1056"/>
      <point x="1404" y="1184" type="curve"/>
      <point x="1530" y="1334" type="line"/>
      <point x="1296" y="1540" type="line"/>
      <point x="1146" y="1358" type="line"/>
      <point x="1058" y="1402"/>
      <point x="950" y="1430"/>
      <point x="824" y="1430" type="curve" smooth="yes"/>
      <point x="394" y="1430"/>
      <point x="70" y="1114"/>
      <point x="70" y="700" type="curve" smooth="yes"/>
      <point x="70" y="524"/>
      <point x="124" y="366"/>
      <point x="222" y="240" type="curve"/>
      <point x="92" y="84" type="line"/>
    </contour>
    <contour>
      <point x="506" y="572" type="line"/>
      <point x="492" y="610"/>
      <point x="484" y="652"/>
      <point x="484" y="700" type="curve" smooth="yes"/>
      <point x="484" y="924"/>
      <point x="624" y="1066"/>
      <point x="824" y="1066" type="curve" smooth="yes"/>
      <point x="850" y="1066"/>
      <point x="878" y="1062"/>
      <point x="904" y="1054" type="curve"/>
    </contour>
    <contour>
      <point x="824" y="334" type="curve" smooth="yes"/>
      <point x="780" y="334"/>
      <point x="742" y="342"/>
      <point x="706" y="354" type="curve"/>
      <point x="1132" y="868" type="line"/>
      <point x="1154" y="818"/>
      <point x="1164" y="758"/>
      <point x="1164" y="700" type="curve" smooth="yes"/>
      <point x="1164" y="480"/>
      <point x="1030" y="334"/>
    </contour>
  </outline>
</glyph>
<glyph name="Thorn" format="2">
  <advance width="1374"/>
  <unicode hex="00DE"/>
  <outline>
    <contour>
      <point x="153" y="0" type="line"/>
      <point x="557" y="0" type="line"/>
      <point x="557" y="236" type="line"/>
      <point x="759" y="236" type="line" smooth="yes"/>
      <point x="1119" y="236"/>
      <point x="1327" y="412"/>
      <point x="1327" y="720" type="curve" smooth="yes"/>
      <point x="1327" y="1026"/>
      <point x="1091" y="1204"/>
      <point x="769" y="1204" type="curve" smooth="yes"/>
      <point x="557" y="1204" type="line"/>
      <point x="557" y="1400" type="line"/>
      <point x="153" y="1400" type="line"/>
    </contour>
    <contour>
      <point x="557" y="570" type="line"/>
      <point x="557" y="860" type="line"/>
      <point x="745" y="860" type="line" smooth="yes"/>
      <point x="849" y="860"/>
      <point x="923" y="826"/>
      <point x="923" y="714" type="curve" smooth="yes"/>
      <point x="923" y="606"/>
      <point x="855" y="570"/>
      <point x="743" y="570" type="curve" smooth="yes"/>
    </contour>
  </outline>
</glyph>
<glyph name="germandbls" format="2">
  <advance width="1446"/>
  <unicode hex="00DF"/>
  <guideline x="391" y="306" angle="90"/>
  <outline>
    <contour>
      <point x="922" y="-28" type="curve" smooth="yes"/>
      <point x="1192" y="-28"/>
      <point x="1396" y="136"/>
      <point x="1396" y="356" type="curve" smooth="yes"/>
      <point x="1396" y="498"/>
      <point x="1298" y="588"/>
      <point x="1222" y="658" type="curve" smooth="yes"/>
      <point x="1174" y="700"/>
      <point x="1136" y="736"/>
      <point x="1136" y="775" type="curve" smooth="yes"/>
      <point x="1136" y="804"/>
      <point x="1156" y="840"/>
      <point x="1180" y="882" type="curve" smooth="yes"/>
      <point x="1216" y="944"/>
      <point x="1260" y="1022"/>
      <point x="1260" y="1122" type="curve" smooth="yes"/>
      <point x="1260" y="1328"/>
      <point x="1048" y="1470"/>
      <point x="736" y="1470" type="curve" smooth="yes"/>
      <point x="360" y="1470"/>
      <point x="128" y="1270"/>
      <point x="128" y="946" type="curve" smooth="yes"/>
      <point x="128" y="0" type="line"/>
      <point x="528" y="0" type="line"/>
      <point x="528" y="924" type="line" smooth="yes"/>
      <point x="528" y="1062"/>
      <point x="600" y="1144"/>
      <point x="724" y="1144" type="curve" smooth="yes"/>
      <point x="814" y="1144"/>
      <point x="876" y="1100"/>
      <point x="876" y="1032" type="curve" smooth="yes"/>
      <point x="876" y="984"/>
      <point x="846" y="936"/>
      <point x="814" y="886" type="curve" smooth="yes"/>
      <point x="780" y="830"/>
      <point x="744" y="772"/>
      <point x="744" y="712" type="curve" smooth="yes"/>
      <point x="744" y="618"/>
      <point x="818" y="556"/>
      <point x="884" y="500" type="curve" smooth="yes"/>
      <point x="936" y="456"/>
      <point x="982" y="416"/>
      <point x="982" y="360" type="curve" smooth="yes"/>
      <point x="982" y="304"/>
      <point x="935" y="268"/>
      <point x="853" y="268" type="curve" smooth="yes"/>
      <point x="810" y="268"/>
      <point x="763" y="279"/>
      <point x="720" y="304" type="curve"/>
      <point x="639" y="22" type="line"/>
      <point x="761" y="-24"/>
      <point x="854" y="-28"/>
    </contour>
  </outline>
</glyph>
<glyph name="eth" format="2">
  <advance width="1255"/>
  <unicode hex="00F0"/>
  <outline>
    <contour>
      <point x="615" y="-30" type="curve" smooth="yes"/>
      <point x="955" y="-30"/>
      <point x="1203" y="228"/>
      <point x="1203" y="552" type="curve" smooth="yes"/>
      <point x="1203" y="928"/>
      <point x="919" y="1266"/>
      <point x="517" y="1466" type="curve"/>
      <point x="223" y="1260" type="line"/>
      <point x="451" y="1154"/>
      <point x="633" y="1016"/>
      <point x="731" y="880" type="curve"/>
      <point x="837" y="836" type="line"/>
      <point x="763" y="916"/>
      <point x="649" y="930"/>
      <point x="571" y="930" type="curve" smooth="yes"/>
      <point x="277" y="930"/>
      <point x="47" y="720"/>
      <point x="47" y="460" type="curve" smooth="yes"/>
      <point x="47" y="180"/>
      <point x="283" y="-30"/>
    </contour>
    <contour>
      <point x="615" y="300" type="curve" smooth="yes"/>
      <point x="509" y="300"/>
      <point x="435" y="374"/>
      <point x="435" y="480" type="curve" smooth="yes"/>
      <point x="435" y="586"/>
      <point x="509" y="660"/>
      <point x="615" y="660" type="curve" smooth="yes"/>
      <point x="721" y="660"/>
      <point x="795" y="586"/>
      <point x="795" y="480" type="curve" smooth="yes"/>
      <point x="795" y="374"/>
      <point x="721" y="300"/>
    </contour>
    <contour>
      <point x="255" y="902" type="line"/>
      <point x="627" y="1068" type="line"/>
      <point x="627" y="1082" type="line"/>
      <point x="997" y="1252" type="line"/>
      <point x="997" y="1470" type="line"/>
      <point x="627" y="1300" type="line"/>
      <point x="627" y="1286" type="line"/>
      <point x="255" y="1120" type="line"/>
    </contour>
  </outline>
</glyph>
<glyph name="oslash" format="2">
  <advance width="1270"/>
  <unicode hex="00F8"/>
  <anchor x="635" y="1040" name="top"/>
  <outline>
    <contour>
      <point x="261" y="-138" type="line"/>
      <point x="389" y="16" type="line"/>
      <point x="461" y="-14"/>
      <point x="545" y="-30"/>
      <point x="635" y="-30" type="curve" smooth="yes"/>
      <point x="983" y="-30"/>
      <point x="1223" y="232"/>
      <point x="1223" y="520" type="curve" smooth="yes"/>
      <point x="1223" y="654"/>
      <point x="1175" y="778"/>
      <point x="1091" y="874" type="curve"/>
      <point x="1201" y="1008" type="line"/>
      <point x="1007" y="1180" type="line"/>
      <point x="879" y="1024" type="line"/>
      <point x="807" y="1054"/>
      <point x="725" y="1070"/>
      <point x="635" y="1070" type="curve" smooth="yes"/>
      <point x="287" y="1070"/>
      <point x="47" y="808"/>
      <point x="47" y="520" type="curve" smooth="yes"/>
      <point x="47" y="386"/>
      <point x="95" y="264"/>
      <point x="177" y="168" type="curve"/>
      <point x="67" y="34" type="line"/>
    </contour>
    <contour>
      <point x="417" y="438" type="line"/>
      <point x="411" y="460"/>
      <point x="409" y="484"/>
      <point x="409" y="510" type="curve" smooth="yes"/>
      <point x="409" y="662"/>
      <point x="511" y="758"/>
      <point x="647" y="758" type="curve" smooth="yes"/>
      <point x="657" y="758"/>
      <point x="669" y="758"/>
      <point x="679" y="756" type="curve"/>
    </contour>
    <contour>
      <point x="623" y="282" type="curve" smooth="yes"/>
      <point x="611" y="282"/>
      <point x="599" y="282"/>
      <point x="587" y="284" type="curve"/>
      <point x="853" y="606" type="line"/>
      <point x="859" y="582"/>
      <point x="861" y="556"/>
      <point x="861" y="530" type="curve" smooth="yes"/>
      <point x="861" y="376"/>
      <point x="757" y="282"/>
    </contour>
  </outline>
</glyph>
<glyph name="dcroat" format="2">
  <advance width="1364"/>
  <unicode hex="0111"/>
  <anchor x="998" y="1224" name="bar"/>
  <anchor x="1236" y="1440" name="caron"/>
  <outline>
    <contour>
      <point x="558" y="1118" type="line"/>
      <point x="1358" y="1118" type="line"/>
      <point x="1358" y="1330" type="line"/>
      <point x="558" y="1330" type="line"/>
    </contour>
    <component base="d"/>
  </outline>
</glyph>
<glyph name="eogonek" format="2">
  <advance width="1217"/>
  <unicode hex="0119"/>
  <anchor x="593" y="0" name="bottom"/>
  <anchor x="1077" y="0" name="ogonek"/>
  <anchor x="613" y="1040" name="top"/>
  <outline>
    <contour>
      <point x="629" y="-30" type="curve" smooth="yes"/>
      <point x="789" y="-30"/>
      <point x="1001" y="28"/>
      <point x="1093" y="98" type="curve"/>
      <point x="977" y="362" type="line"/>
      <point x="869" y="298"/>
      <point x="763" y="270"/>
      <point x="637" y="270" type="curve" smooth="yes"/>
      <point x="507" y="270"/>
      <point x="413" y="326"/>
      <point x="405" y="408" type="curve"/>
      <point x="1155" y="408" type="line"/>
      <point x="1231" y="786"/>
      <point x="1003" y="1070"/>
      <point x="625" y="1070" type="curve" smooth="yes"/>
      <point x="287" y="1070"/>
      <point x="47" y="844"/>
      <point x="47" y="522" type="curve" smooth="yes"/>
      <point x="47" y="190"/>
      <point x="279" y="-30"/>
    </contour>
    <contour>
      <point x="431" y="668" type="line"/>
      <point x="437" y="740"/>
      <point x="511" y="790"/>
      <point x="613" y="790" type="curve" smooth="yes"/>
      <point x="711" y="790"/>
      <point x="779" y="740"/>
      <point x="779" y="668" type="curve"/>
    </contour>
    <contour>
      <point x="827" y="-450" type="curve" smooth="yes"/>
      <point x="919" y="-450"/>
      <point x="1009" y="-422"/>
      <point x="1082" y="-370" type="curve"/>
      <point x="995" y="-174" type="line"/>
      <point x="967" y="-204"/>
      <point x="929" y="-222"/>
      <point x="893" y="-222" type="curve" smooth="yes"/>
      <point x="843" y="-222"/>
      <point x="811" y="-192"/>
      <point x="811" y="-145" type="curve" smooth="yes"/>
      <point x="811" y="-67"/>
      <point x="896" y="0"/>
      <point x="1047" y="69" type="curve"/>
      <point x="1032" y="160" type="line"/>
      <point x="766" y="101"/>
      <point x="577" y="-39"/>
      <point x="577" y="-219" type="curve" smooth="yes"/>
      <point x="577" y="-354"/>
      <point x="681" y="-450"/>
    </contour>
  </outline>
</glyph>
<glyph name="Hbar" format="2">
  <advance width="1622"/>
  <unicode hex="0126"/>
  <outline>
    <contour>
      <point x="1045" y="0" type="line"/>
      <point x="1449" y="0" type="line"/>
      <point x="1449" y="1400" type="line"/>
      <point x="1045" y="1400" type="line"/>
    </contour>
    <contour>
      <point x="173" y="0" type="line"/>
      <point x="577" y="0" type="line"/>
      <point x="577" y="1400" type="line"/>
      <point x="173" y="1400" type="line"/>
    </contour>
    <contour>
      <point x="545" y="458" type="line"/>
      <point x="1077" y="458" type="line"/>
      <point x="1077" y="826" type="line"/>
      <point x="545" y="826" type="line"/>
    </contour>
    <contour>
      <point x="13" y="956" type="line"/>
      <point x="1609" y="956" type="line"/>
      <point x="1609" y="1264" type="line"/>
      <point x="13" y="1264" type="line"/>
    </contour>
  </outline>
</glyph>
<glyph name="idotless" format="2">
  <advance width="650"/>
  <unicode hex="0131"/>
  <anchor x="325" y="0" name="bottom"/>
  <anchor x="525" y="0" name="ogonek"/>
  <anchor x="325" y="1040" name="top"/>
  <outline>
    <contour>
      <point x="125" y="0" type="line"/>
      <point x="525" y="0" type="line"/>
      <point x="525" y="1040" type="line"/>
      <point x="125" y="1040" type="line"/>
    </contour>
  </outline>
</glyph>
<glyph name="kgreenlandic" format="2">
  <advance width="1266"/>
  <unicode hex="0138"/>
  <outline>
    <contour>
      <point x="125" y="0" type="line"/>
      <point x="525" y="0" type="line"/>
      <point x="525" y="276" type="line"/>
      <point x="585" y="344" type="line"/>
      <point x="785" y="0" type="line"/>
      <point x="1255" y="0" type="line"/>
      <point x="875" y="606" type="line"/>
      <point x="1237" y="1040" type="line"/>
      <point x="777" y="1040" type="line"/>
      <point x="525" y="744" type="line"/>
      <point x="525" y="1040" type="line"/>
      <point x="125" y="1040" type="line"/>
    </contour>
  </outline>
</glyph>
<glyph name="Lslash" format="2">
  <advance width="1184"/>
  <unicode hex="0141"/>
  <guideline x="1050" y="1178" angle="180"/>
  <guideline x="-76" y="730" angle="0"/>
  <guideline x="1010" y="1178" angle="115.0744"/>
  <guideline x="-36" y="730" angle="115.0744"/>
  <anchor x="661" y="0" name="bottom"/>
  <anchor x="597" y="1440" name="caron"/>
  <anchor x="395" y="1400" name="top"/>
  <outline>
    <contour>
      <point x="42" y="387" type="line"/>
      <point x="367" y="538" type="line"/>
      <point x="367" y="498" type="line"/>
      <point x="1088" y="835" type="line"/>
      <point x="954" y="1121" type="line"/>
      <point x="367" y="846" type="line"/>
      <point x="367" y="886" type="line"/>
      <point x="-92" y="673" type="line"/>
    </contour>
    <component base="L" xOffset="40"/>
  </outline>
</glyph>
<glyph name="lslash" format="2">
  <advance width="830"/>
  <unicode hex="0142"/>
  <anchor x="415" y="0" name="bottom"/>
  <anchor x="615" y="1440" name="caron"/>
  <anchor x="415" y="1440" name="top"/>
  <outline>
    <contour>
      <point x="92" y="373" type="line"/>
      <point x="415" y="530" type="line"/>
      <point x="415" y="490" type="line"/>
      <point x="876" y="704" type="line"/>
      <point x="738" y="988" type="line"/>
      <point x="415" y="838" type="line"/>
      <point x="415" y="878" type="line"/>
      <point x="-46" y="655" type="line"/>
    </contour>
    <component base="l" xOffset="90"/>
  </outline>
</glyph>
<glyph name="Eng" format="2">
  <advance width="1596"/>
  <unicode hex="014A"/>
  <outline>
    <contour>
      <point x="1068" y="-50" type="line"/>
      <point x="1068" y="622" type="line"/>
      <point x="560" y="1400" type="line"/>
      <point x="156" y="1400" type="line"/>
      <point x="156" y="0" type="line"/>
      <point x="546" y="0" type="line"/>
      <point x="546" y="764" type="line"/>
    </contour>
    <contour>
      <point x="1028" y="-450" type="curve" smooth="yes"/>
      <point x="1272" y="-450"/>
      <point x="1440" y="-280"/>
      <point x="1440" y="-36" type="curve" smooth="yes"/>
      <point x="1440" y="1400" type="line"/>
      <point x="1050" y="1400" type="line"/>
      <point x="1050" y="-40" type="line" smooth="yes"/>
      <point x="1050" y="-92"/>
      <point x="1014" y="-126"/>
      <point x="944" y="-126" type="curve" smooth="yes"/>
      <point x="904" y="-126"/>
      <point x="870" y="-118"/>
      <point x="834" y="-100" type="curve"/>
      <point x="760" y="-390" type="line"/>
      <point x="844" y="-436"/>
      <point x="910" y="-450"/>
    </contour>
  </outline>
</glyph>
<glyph name="eng" format="2">
  <advance width="1352"/>
  <unicode hex="014B"/>
  <outline>
    <contour>
      <point x="825" y="-450" type="curve" smooth="yes"/>
      <point x="1069" y="-450"/>
      <point x="1237" y="-280"/>
      <point x="1237" y="-36" type="curve" smooth="yes"/>
      <point x="1237" y="662" type="line" smooth="yes"/>
      <point x="1237" y="874"/>
      <point x="1107" y="1070"/>
      <point x="809" y="1070" type="curve" smooth="yes"/>
      <point x="697" y="1070"/>
      <point x="597" y="1030"/>
      <point x="525" y="944" type="curve"/>
      <point x="525" y="1040" type="line"/>
      <point x="125" y="1040" type="line"/>
      <point x="125" y="0" type="line"/>
      <point x="525" y="0" type="line"/>
      <point x="525" y="536" type="line" smooth="yes"/>
      <point x="525" y="638"/>
      <point x="581" y="710"/>
      <point x="683" y="710" type="curve" smooth="yes"/>
      <point x="789" y="710"/>
      <point x="837" y="646"/>
      <point x="837" y="536" type="curve" smooth="yes"/>
      <point x="837" y="-14" type="line" smooth="yes"/>
      <point x="837" y="-90"/>
      <point x="803" y="-126"/>
      <point x="735" y="-126" type="curve" smooth="yes"/>
      <point x="697" y="-126"/>
      <point x="665" y="-118"/>
      <point x="631" y="-100" type="curve"/>
      <point x="557" y="-390" type="line"/>
      <point x="641" y="-436"/>
      <point x="707" y="-450"/>
    </contour>
  </outline>
</glyph>
<glyph name="oe" format="2">
  <advance width="2010"/>
  <unicode hex="0153"/>
  <outline>
    <contour>
      <point x="626" y="-30" type="curve" smooth="yes"/>
      <point x="958" y="-30"/>
      <point x="1186" y="232"/>
      <point x="1186" y="520" type="curve" smooth="yes"/>
      <point x="1186" y="820"/>
      <point x="958" y="1070"/>
      <point x="626" y="1070" type="curve" smooth="yes"/>
      <point x="286" y="1070"/>
      <point x="50" y="808"/>
      <point x="50" y="520" type="curve" smooth="yes"/>
      <point x="50" y="220"/>
      <point x="286" y="-30"/>
    </contour>
    <contour>
      <point x="638" y="310" type="curve" smooth="yes"/>
      <point x="526" y="310"/>
      <point x="438" y="390"/>
      <point x="438" y="520" type="curve" smooth="yes"/>
      <point x="438" y="650"/>
      <point x="524" y="730"/>
      <point x="638" y="730" type="curve" smooth="yes"/>
      <point x="752" y="730"/>
      <point x="838" y="650"/>
      <point x="838" y="520" type="curve" smooth="yes"/>
      <point x="838" y="390"/>
      <point x="750" y="310"/>
    </contour>
    <contour>
      <point x="1432" y="-30" type="curve" smooth="yes"/>
      <point x="1588" y="-30"/>
      <point x="1794" y="28"/>
      <point x="1884" y="98" type="curve"/>
      <point x="1768" y="362" type="line"/>
      <point x="1660" y="298"/>
      <point x="1554" y="270"/>
      <point x="1428" y="270" type="curve" smooth="yes"/>
      <point x="1298" y="270"/>
      <point x="1204" y="326"/>
      <point x="1196" y="408" type="curve"/>
      <point x="1946" y="408" type="line"/>
      <point x="2020" y="786"/>
      <point x="1798" y="1070"/>
      <point x="1428" y="1070" type="curve" smooth="yes"/>
      <point x="1106" y="1070"/>
      <point x="878" y="844"/>
      <point x="878" y="522" type="curve" smooth="yes"/>
      <point x="878" y="190"/>
      <point x="1098" y="-30"/>
    </contour>
    <contour>
      <point x="1222" y="668" type="line"/>
      <point x="1228" y="740"/>
      <point x="1302" y="790"/>
      <point x="1404" y="790" type="curve" smooth="yes"/>
      <point x="1502" y="790"/>
      <point x="1570" y="740"/>
      <point x="1570" y="668" type="curve"/>
    </contour>
  </outline>
</glyph>
<glyph name="Uogonek" format="2">
  <advance width="1536"/>
  <unicode hex="0172"/>
  <anchor x="768" y="1400" name="top"/>
  <outline>
    <contour>
      <point x="934" y="-450" type="curve" smooth="yes"/>
      <point x="1026" y="-450"/>
      <point x="1116" y="-422"/>
      <point x="1189" y="-370" type="curve"/>
      <point x="1102" y="-174" type="line"/>
      <point x="1074" y="-204"/>
      <point x="1036" y="-222"/>
      <point x="1000" y="-222" type="curve" smooth="yes"/>
      <point x="950" y="-222"/>
      <point x="918" y="-192"/>
      <point x="918" y="-145" type="curve" smooth="yes"/>
      <point x="918" y="-74"/>
      <point x="955" y="-15"/>
      <point x="1027" y="12" type="curve" smooth="yes"/>
      <point x="1265" y="100"/>
      <point x="1390" y="315"/>
      <point x="1390" y="596" type="curve" smooth="yes"/>
      <point x="1390" y="1400" type="line"/>
      <point x="984" y="1400" type="line"/>
      <point x="984" y="574" type="line" smooth="yes"/>
      <point x="984" y="420"/>
      <point x="906" y="348"/>
      <point x="768" y="348" type="curve" smooth="yes"/>
      <point x="628" y="348"/>
      <point x="550" y="420"/>
      <point x="550" y="574" type="curve" smooth="yes"/>
      <point x="550" y="1400" type="line"/>
      <point x="146" y="1400" type="line"/>
      <point x="146" y="596" type="line" smooth="yes"/>
      <point x="146" y="233"/>
      <point x="352" y="-18"/>
      <point x="739" y="-30" type="curve"/>
      <point x="703" y="-84"/>
      <point x="684" y="-148"/>
      <point x="684" y="-219" type="curve" smooth="yes"/>
      <point x="684" y="-354"/>
      <point x="788" y="-450"/>
    </contour>
  </outline>
</glyph>
<glyph name="uogonek" format="2">
  <advance width="1320"/>
  <unicode hex="0173"/>
  <anchor x="653" y="0" name="bottom"/>
  <anchor x="1195" y="0" name="descender"/>
  <anchor x="1195" y="1040" name="horn"/>
  <anchor x="1195" y="0" name="ogonek"/>
  <anchor x="665" y="1040" name="top"/>
  <outline>
    <contour>
      <point x="945" y="-450" type="curve" smooth="yes"/>
      <point x="1037" y="-450"/>
      <point x="1127" y="-422"/>
      <point x="1200" y="-370" type="curve"/>
      <point x="1113" y="-174" type="line"/>
      <point x="1085" y="-204"/>
      <point x="1047" y="-222"/>
      <point x="1011" y="-222" type="curve" smooth="yes"/>
      <point x="961" y="-222"/>
      <point x="929" y="-192"/>
      <point x="929" y="-145" type="curve" smooth="yes"/>
      <point x="929" y="-59"/>
      <point x="1014" y="0"/>
      <point x="1195" y="0" type="curve"/>
      <point x="1179" y="99" type="line"/>
      <point x="888.0" y="93.5"/>
      <point x="695" y="-37"/>
      <point x="695" y="-224" type="curve" smooth="yes"/>
      <point x="695" y="-356"/>
      <point x="799" y="-450"/>
    </contour>
    <component base="u"/>
  </outline>
</glyph>
<glyph name="florin" format="2">
  <advance width="1296"/>
  <unicode hex="0192"/>
  <outline>
    <contour>
      <point x="182" y="-450" type="curve" smooth="yes"/>
      <point x="438" y="-450"/>
      <point x="618" y="-296"/>
      <point x="690" y="28" type="curve" smooth="yes"/>
      <point x="888" y="926" type="line" smooth="yes"/>
      <point x="916" y="1056"/>
      <point x="978" y="1100"/>
      <point x="1060" y="1100" type="curve" smooth="yes"/>
      <point x="1098" y="1100"/>
      <point x="1138" y="1092"/>
      <point x="1184" y="1074" type="curve"/>
      <point x="1254" y="1384" type="line"/>
      <point x="1168" y="1418"/>
      <point x="1084" y="1430"/>
      <point x="1002" y="1430" type="curve" smooth="yes"/>
      <point x="736" y="1430"/>
      <point x="566" y="1276"/>
      <point x="494" y="952" type="curve" smooth="yes"/>
      <point x="294" y="52" type="line" smooth="yes"/>
      <point x="266" y="-76"/>
      <point x="206" y="-120"/>
      <point x="124" y="-120" type="curve" smooth="yes"/>
      <point x="86" y="-120"/>
      <point x="46" y="-112"/>
      <point x="0" y="-94" type="curve"/>
      <point x="-70" y="-404" type="line"/>
      <point x="16" y="-438"/>
      <point x="100" y="-450"/>
    </contour>
    <contour>
      <point x="126" y="560" type="line"/>
      <point x="1166" y="560" type="line"/>
      <point x="1166" y="810" type="line"/>
      <point x="126" y="810" type="line"/>
    </contour>
  </outline>
</glyph>
<glyph name="oogonek" format="2">
  <advance width="1270"/>
  <unicode hex="01EB"/>
  <anchor x="635" y="1040" name="top"/>
  <outline>
    <contour>
      <point x="659" y="-450" type="curve" smooth="yes"/>
      <point x="751" y="-450"/>
      <point x="841" y="-422"/>
      <point x="914" y="-370" type="curve"/>
      <point x="827" y="-174" type="line"/>
      <point x="799" y="-204"/>
      <point x="761" y="-222"/>
      <point x="725" y="-222" type="curve" smooth="yes"/>
      <point x="675" y="-222"/>
      <point x="643" y="-192"/>
      <point x="643" y="-145" type="curve" smooth="yes"/>
      <point x="643" y="-81"/>
      <point x="692" y="-33"/>
      <point x="781" y="-14" type="curve" smooth="yes"/>
      <point x="1048" y="48"/>
      <point x="1223" y="274"/>
      <point x="1223" y="520" type="curve" smooth="yes"/>
      <point x="1223" y="820"/>
      <point x="983" y="1070"/>
      <point x="635" y="1070" type="curve" smooth="yes"/>
      <point x="287" y="1070"/>
      <point x="47" y="808"/>
      <point x="47" y="520" type="curve" smooth="yes"/>
      <point x="47" y="264"/>
      <point x="222" y="44"/>
      <point x="491" y="-15" type="curve"/>
      <point x="438" y="-70"/>
      <point x="409" y="-139"/>
      <point x="409" y="-219" type="curve" smooth="yes"/>
      <point x="409" y="-354"/>
      <point x="513" y="-450"/>
    </contour>
    <contour>
      <point x="635" y="310" type="curve" smooth="yes"/>
      <point x="523" y="310"/>
      <point x="435" y="390"/>
      <point x="435" y="520" type="curve" smooth="yes"/>
      <point x="435" y="650"/>
      <point x="521" y="730"/>
      <point x="635" y="730" type="curve" smooth="yes"/>
      <point x="749" y="730"/>
      <point x="835" y="650"/>
      <point x="835" y="520" type="curve" smooth="yes"/>
      <point x="835" y="390"/>
      <point x="747" y="310"/>
    </contour>
  </outline>
</glyph>
<glyph name="gravecomb" format="2">
  <unicode hex="0300"/>
  <anchor x="406" y="1040" name="_top"/>
  <anchor x="448" y="1040" name="_top_right"/>
  <outline>
    <contour>
      <point x="238" y="1170" type="line"/>
      <point x="606" y="1170" type="line"/>
      <point x="412" y="1544" type="line"/>
      <point x="10" y="1544" type="line"/>
    </contour>
  </outline>
</glyph>
<glyph name="circumflexcomb" format="2">
  <unicode hex="0302"/>
  <anchor x="490" y="1040" name="_top"/>
  <anchor x="490" y="1484" name="top"/>
  <anchor x="1004" y="1384" name="top_right"/>
  <outline>
    <contour>
      <point x="10" y="1170" type="line"/>
      <point x="368" y="1170" type="line"/>
      <point x="484" y="1328" type="line"/>
      <point x="598" y="1170" type="line"/>
      <point x="970" y="1170" type="line"/>
      <point x="660" y="1544" type="line"/>
      <point x="320" y="1544" type="line"/>
    </contour>
  </outline>
</glyph>
<glyph name="tildecomb" format="2">
  <unicode hex="0303"/>
  <anchor x="468" y="1040" name="_top"/>
  <anchor x="468" y="1464" name="top"/>
  <outline>
    <contour>
      <point x="154" y="1144" type="line"/>
      <point x="186" y="1236"/>
      <point x="236" y="1278"/>
      <point x="300" y="1278" type="curve" smooth="yes"/>
      <point x="402" y="1278"/>
      <point x="512" y="1170"/>
      <point x="656" y="1170" type="curve" smooth="yes"/>
      <point x="790" y="1170"/>
      <point x="900" y="1250"/>
      <point x="926" y="1406" type="curve"/>
      <point x="784" y="1568" type="line"/>
      <point x="754" y="1476"/>
      <point x="708" y="1436"/>
      <point x="646" y="1436" type="curve" smooth="yes"/>
      <point x="538" y="1436"/>
      <point x="444" y="1544"/>
      <point x="302" y="1544" type="curve" smooth="yes"/>
      <point x="172" y="1544"/>
      <point x="70" y="1460"/>
      <point x="10" y="1304" type="curve"/>
    </contour>
  </outline>
</glyph>
<glyph name="macroncomb" format="2">
  <unicode hex="0304"/>
  <anchor x="398" y="1040" name="_top"/>
  <outline>
    <contour>
      <point x="10" y="1230" type="line"/>
      <point x="786" y="1230" type="line"/>
      <point x="786" y="1462" type="line"/>
      <point x="10" y="1462" type="line"/>
    </contour>
  </outline>
</glyph>
<glyph name="hookabovecomb" format="2">
  <unicode hex="0309"/>
  <anchor x="292" y="1040" name="_top"/>
  <outline>
    <contour>
      <point x="168" y="1170" type="curve"/>
      <point x="408" y="1170" type="line"/>
      <point x="386" y="1212"/>
      <point x="396" y="1234"/>
      <point x="468" y="1272" type="curve" smooth="yes"/>
      <point x="560" y="1320"/>
      <point x="590" y="1368"/>
      <point x="590" y="1446" type="curve" smooth="yes"/>
      <point x="590" y="1562"/>
      <point x="476" y="1634"/>
      <point x="292" y="1634" type="curve" smooth="yes"/>
      <point x="192" y="1634"/>
      <point x="80" y="1610"/>
      <point x="10" y="1570" type="curve"/>
      <point x="62" y="1388" type="line"/>
      <point x="108" y="1412"/>
      <point x="150" y="1426"/>
      <point x="214" y="1426" type="curve" smooth="yes"/>
      <point x="254" y="1426"/>
      <point x="286" y="1414"/>
      <point x="286" y="1392" type="curve" smooth="yes"/>
      <point x="286" y="1370"/>
      <point x="274" y="1362"/>
      <point x="226" y="1346" type="curve" smooth="yes"/>
      <point x="138" y="1316"/>
      <point x="116" y="1258"/>
    </contour>
  </outline>
</glyph>
<glyph name="ringcomb" format="2">
  <unicode hex="030A"/>
  <anchor x="308" y="1040" name="_top"/>
  <anchor x="308" y="1584" name="top"/>
  <outline>
    <contour>
      <point x="308" y="1110" type="curve" smooth="yes"/>
      <point x="474" y="1110"/>
      <point x="606" y="1232"/>
      <point x="606" y="1388" type="curve" smooth="yes"/>
      <point x="606" y="1544"/>
      <point x="474" y="1666"/>
      <point x="308" y="1666" type="curve" smooth="yes"/>
      <point x="140" y="1666"/>
      <point x="10" y="1544"/>
      <point x="10" y="1388" type="curve" smooth="yes"/>
      <point x="10" y="1232"/>
      <point x="140" y="1110"/>
    </contour>
    <contour>
      <point x="308" y="1288" type="curve" smooth="yes"/>
      <point x="248" y="1288"/>
      <point x="208" y="1330"/>
      <point x="208" y="1388" type="curve" smooth="yes"/>
      <point x="208" y="1446"/>
      <point x="248" y="1488"/>
      <point x="308" y="1488" type="curve" smooth="yes"/>
      <point x="368" y="1488"/>
      <point x="408" y="1446"/>
      <point x="408" y="1388" type="curve" smooth="yes"/>
      <point x="408" y="1330"/>
      <point x="368" y="1288"/>
    </contour>
  </outline>
</glyph>
<glyph name="hungarumlautcomb" format="2">
  <unicode hex="030B"/>
  <anchor x="448" y="1040" name="_top"/>
  <outline>
    <contour>
      <point x="520" y="1170" type="line"/>
      <point x="848" y="1170" type="line"/>
      <point x="1062" y="1544" type="line"/>
      <point x="698" y="1544" type="line"/>
    </contour>
    <contour>
      <point x="10" y="1170" type="line"/>
      <point x="338" y="1170" type="line"/>
      <point x="552" y="1544" type="line"/>
      <point x="188" y="1544" type="line"/>
    </contour>
  </outline>
</glyph>
<glyph name="dblgravecomb" format="2">
  <unicode hex="030F"/>
  <anchor x="-638" y="1040" name="_top"/>
  <outline>
    <contour>
      <point x="-528" y="1170" type="line"/>
      <point x="-200" y="1170" type="line"/>
      <point x="-378" y="1544" type="line"/>
      <point x="-742" y="1544" type="line"/>
    </contour>
    <contour>
      <point x="-1038" y="1170" type="line"/>
      <point x="-710" y="1170" type="line"/>
      <point x="-888" y="1544" type="line"/>
      <point x="-1252" y="1544" type="line"/>
    </contour>
  </outline>
</glyph>
<glyph name="breveinvertedcomb" format="2">
  <unicode hex="0311"/>
  <anchor x="448" y="1040" name="_top"/>
  <outline>
    <contour>
      <point x="10" y="1170" type="curve"/>
      <point x="330" y="1170" type="line"/>
      <point x="326" y="1252"/>
      <point x="372" y="1304"/>
      <point x="448" y="1304" type="curve" smooth="yes"/>
      <point x="524" y="1304"/>
      <point x="570" y="1252"/>
      <point x="566" y="1170" type="curve"/>
      <point x="886" y="1170" type="line"/>
      <point x="890" y="1396"/>
      <point x="710" y="1554"/>
      <point x="448" y="1554" type="curve" smooth="yes"/>
      <point x="180" y="1554"/>
      <point x="6" y="1400"/>
    </contour>
  </outline>
</glyph>
<glyph name="commaturnedabovecomb" format="2">
  <unicode hex="0312"/>
  <anchor x="237" y="1040" name="_top"/>
  <outline>
    <contour>
      <point x="249" y="1174" type="curve" smooth="yes"/>
      <point x="374" y="1174"/>
      <point x="461" y="1254"/>
      <point x="461" y="1380" type="curve" smooth="yes"/>
      <point x="461" y="1499"/>
      <point x="351" y="1571"/>
      <point x="224" y="1564" type="curve"/>
      <point x="276" y="1633"/>
      <point x="366" y="1701"/>
      <point x="473" y="1733" type="curve"/>
      <point x="374" y="1877" type="line"/>
      <point x="125" y="1742"/>
      <point x="10" y="1594"/>
      <point x="10" y="1420" type="curve" smooth="yes"/>
      <point x="10" y="1276"/>
      <point x="110" y="1174"/>
    </contour>
  </outline>
</glyph>
<glyph name="horncomb" format="2">
  <unicode hex="031B"/>
  <anchor x="408" y="1040" name="_horn"/>
  <outline>
    <contour>
      <point x="476" y="760" type="curve" smooth="yes"/>
      <point x="652" y="760"/>
      <point x="768" y="876"/>
      <point x="768" y="1022" type="curve" smooth="yes"/>
      <point x="768" y="1114"/>
      <point x="722" y="1222"/>
      <point x="628" y="1306" type="curve"/>
      <point x="410" y="1184" type="line"/>
      <point x="462" y="1132"/>
      <point x="484" y="1082"/>
      <point x="484" y="1046" type="curve" smooth="yes"/>
      <point x="484" y="1010"/>
      <point x="458" y="984"/>
      <point x="408" y="984" type="curve" smooth="yes"/>
      <point x="328" y="984"/>
      <point x="206" y="1070"/>
      <point x="10" y="1070" type="curve"/>
      <point x="12" y="860" type="line"/>
      <point x="168" y="860"/>
      <point x="328" y="760"/>
    </contour>
  </outline>
</glyph>
<glyph name="commaaccentcomb" format="2">
  <unicode hex="0326"/>
  <anchor x="-638" y="0" name="_bottom"/>
  <outline>
    <contour>
      <point x="-775" y="-837" type="line"/>
      <point x="-526" y="-702"/>
      <point x="-411" y="-554"/>
      <point x="-411" y="-380" type="curve" smooth="yes"/>
      <point x="-411" y="-236"/>
      <point x="-511" y="-134"/>
      <point x="-650" y="-134" type="curve" smooth="yes"/>
      <point x="-775" y="-134"/>
      <point x="-862" y="-214"/>
      <point x="-862" y="-340" type="curve" smooth="yes"/>
      <point x="-862" y="-459"/>
      <point x="-752" y="-531"/>
      <point x="-625" y="-524" type="curve"/>
      <point x="-677" y="-593"/>
      <point x="-767" y="-661"/>
      <point x="-874" y="-693" type="curve"/>
    </contour>
  </outline>
</glyph>
<glyph name="cedillacomb" format="2">
  <unicode hex="0327"/>
  <anchor x="318" y="0" name="_bottom"/>
  <outline>
    <contour>
      <point x="292" y="-450" type="curve" smooth="yes"/>
      <point x="456" y="-450"/>
      <point x="628" y="-386"/>
      <point x="628" y="-242" type="curve" smooth="yes"/>
      <point x="628" y="-130"/>
      <point x="536" y="-68"/>
      <point x="384" y="-52" type="curve"/>
      <point x="414" y="40" type="line"/>
      <point x="210" y="40" type="line"/>
      <point x="154" y="-84" type="line"/>
      <point x="226" y="-218" type="line"/>
      <point x="288" y="-206"/>
      <point x="356" y="-218"/>
      <point x="356" y="-242" type="curve" smooth="yes"/>
      <point x="356" y="-258"/>
      <point x="330" y="-268"/>
      <point x="278" y="-268" type="curve" smooth="yes"/>
      <point x="222" y="-268"/>
      <point x="128" y="-252"/>
      <point x="76" y="-208" type="curve"/>
      <point x="10" y="-374" type="line"/>
      <point x="78" y="-416"/>
      <point x="178" y="-450"/>
    </contour>
  </outline>
</glyph>
<glyph name="macronbelowcomb" format="2">
  <unicode hex="0331"/>
  <anchor x="398" y="0" name="_bottom"/>
  <outline>
    <contour>
      <point x="10" y="-422" type="line"/>
      <point x="786" y="-422" type="line"/>
      <point x="786" y="-190" type="line"/>
      <point x="10" y="-190" type="line"/>
    </contour>
  </outline>
</glyph>
<glyph name="lowernumeral-greek" format="2">
  <advance width="516"/>
  <unicode hex="0375"/>
  <outline>
    <contour>
      <point x="-22" y="-420" type="line"/>
      <point x="338" y="-420" type="line"/>
      <point x="432" y="278" type="line"/>
      <point x="150" y="278" type="line"/>
    </contour>
  </outline>
</glyph>
<glyph name="tonos" format="2">
  <advance width="550"/>
  <unicode hex="0384"/>
  <anchor x="250" y="1040" name="_top"/>
  <outline>
    <contour>
      <point x="42" y="1170" type="line"/>
      <point x="402" y="1170" type="line"/>
      <point x="578" y="1544" type="line"/>
      <point x="182" y="1544" type="line"/>
    </contour>
  </outline>
</glyph>
<glyph name="Delta" format="2">
  <advance width="1448"/>
  <unicode hex="0394"/>
  <outline>
    <contour>
      <point x="57" y="0" type="line"/>
      <point x="1391" y="0" type="line"/>
      <point x="1391" y="336" type="line"/>
      <point x="961" y="1400" type="line"/>
      <point x="491" y="1400" type="line"/>
      <point x="57" y="336" type="line"/>
    </contour>
    <contour>
      <point x="491" y="368" type="line"/>
      <point x="721" y="946" type="line"/>
      <point x="951" y="368" type="line"/>
    </contour>
  </outline>
</glyph>
<glyph name="Lambda" format="2">
  <advance width="1464"/>
  <unicode hex="039B"/>
  <outline>
    <contour>
      <point x="2" y="0" type="line"/>
      <point x="452" y="0" type="line"/>
      <point x="728" y="890" type="line"/>
      <point x="1004" y="0" type="line"/>
      <point x="1462" y="0" type="line"/>
      <point x="968" y="1400" type="line"/>
      <point x="498" y="1400" type="line"/>
    </contour>
  </outline>
</glyph>
<glyph name="Xi" format="2">
  <advance width="1292"/>
  <unicode hex="039E"/>
  <outline>
    <contour>
      <point x="101" y="0" type="line"/>
      <point x="1191" y="0" type="line"/>
      <point x="1191" y="352" type="line"/>
      <point x="101" y="352" type="line"/>
    </contour>
    <contour>
      <point x="241" y="548" type="line"/>
      <point x="1051" y="548" type="line"/>
      <point x="1051" y="866" type="line"/>
      <point x="241" y="866" type="line"/>
    </contour>
    <contour>
      <point x="121" y="1052" type="line"/>
      <point x="1171" y="1052" type="line"/>
      <point x="1171" y="1400" type="line"/>
      <point x="121" y="1400" type="line"/>
    </contour>
  </outline>
</glyph>
<glyph name="Sigma" format="2">
  <advance width="1192"/>
  <unicode hex="03A3"/>
  <outline>
    <contour>
      <point x="63" y="0" type="line"/>
      <point x="1125" y="0" type="line"/>
      <point x="1125" y="356" type="line"/>
      <point x="557" y="356" type="line"/>
      <point x="859" y="708" type="line"/>
      <point x="571" y="1044" type="line"/>
      <point x="1109" y="1044" type="line"/>
      <point x="1109" y="1400" type="line"/>
      <point x="81" y="1400" type="line"/>
      <point x="81" y="1074" type="line"/>
      <point x="403" y="710" type="line"/>
      <point x="63" y="328" type="line"/>
    </contour>
  </outline>
</glyph>
<glyph name="Psi" format="2">
  <advance width="1849"/>
  <unicode hex="03A8"/>
  <outline>
    <contour>
      <point x="726" y="0" type="line"/>
      <point x="1126" y="0" type="line"/>
      <point x="1126" y="254" type="line"/>
      <point x="1542" y="298"/>
      <point x="1725" y="534"/>
      <point x="1725" y="953" type="curve" smooth="yes"/>
      <point x="1725" y="1091"/>
      <point x="1708" y="1247"/>
      <point x="1661" y="1420" type="curve"/>
      <point x="1279" y="1357" type="line"/>
      <point x="1323" y="1231"/>
      <point x="1340" y="1100"/>
      <point x="1340" y="953" type="curve" smooth="yes"/>
      <point x="1340" y="766"/>
      <point x="1284" y="646"/>
      <point x="1126" y="622" type="curve"/>
      <point x="1126" y="1400" type="line"/>
      <point x="726" y="1400" type="line"/>
      <point x="726" y="622" type="line"/>
      <point x="567" y="646"/>
      <point x="510" y="767"/>
      <point x="510" y="955" type="curve" smooth="yes"/>
      <point x="510" y="1102"/>
      <point x="527" y="1231"/>
      <point x="571" y="1357" type="curve"/>
      <point x="189" y="1420" type="line"/>
      <point x="142" y="1247"/>
      <point x="124" y="1091"/>
      <point x="124" y="953" type="curve" smooth="yes"/>
      <point x="124" y="535"/>
      <point x="308" y="299"/>
      <point x="726" y="254" type="curve"/>
    </contour>
  </outline>
</glyph>
<glyph name="Omega" format="2">
  <advance width="1668"/>
  <unicode hex="03A9"/>
  <anchor x="834" y="0" name="bottom"/>
  <anchor x="102" y="1400" name="topleft"/>
  <outline>
    <contour>
      <point x="50" y="0" type="line"/>
      <point x="764" y="0" type="line"/>
      <point x="764" y="344" type="line"/>
      <point x="588" y="444"/>
      <point x="514" y="552"/>
      <point x="514" y="728" type="curve" smooth="yes"/>
      <point x="514" y="936"/>
      <point x="632" y="1052"/>
      <point x="834" y="1052" type="curve" smooth="yes"/>
      <point x="1036" y="1052"/>
      <point x="1154" y="936"/>
      <point x="1154" y="728" type="curve" smooth="yes"/>
      <point x="1154" y="552"/>
      <point x="1080" y="444"/>
      <point x="904" y="344" type="curve"/>
      <point x="904" y="0" type="line"/>
      <point x="1618" y="0" type="line"/>
      <point x="1618" y="350" type="line"/>
      <point x="1294" y="350" type="line"/>
      <point x="1454" y="448"/>
      <point x="1578" y="560"/>
      <point x="1578" y="828" type="curve" smooth="yes"/>
      <point x="1578" y="1184"/>
      <point x="1280" y="1430"/>
      <point x="834" y="1430" type="curve" smooth="yes"/>
      <point x="388" y="1430"/>
      <point x="90" y="1184"/>
      <point x="90" y="828" type="curve" smooth="yes"/>
      <point x="90" y="560"/>
      <point x="248" y="414"/>
      <point x="374" y="350" type="curve"/>
      <point x="50" y="350" type="line"/>
    </contour>
  </outline>
</glyph>
<glyph name="beta" format="2">
  <advance width="1320"/>
  <unicode hex="03B2"/>
  <outline>
    <contour>
      <point x="125" y="-420" type="line"/>
      <point x="525" y="-420" type="line"/>
      <point x="525" y="74" type="line"/>
      <point x="605" y="2"/>
      <point x="713" y="-24"/>
      <point x="815" y="-24" type="curve" smooth="yes"/>
      <point x="1051" y="-24"/>
      <point x="1273" y="116"/>
      <point x="1273" y="398" type="curve" smooth="yes"/>
      <point x="1273" y="594"/>
      <point x="1165" y="718"/>
      <point x="1027" y="770" type="curve"/>
      <point x="1135" y="834"/>
      <point x="1209" y="918"/>
      <point x="1209" y="1054" type="curve" smooth="yes"/>
      <point x="1209" y="1300"/>
      <point x="1036" y="1466"/>
      <point x="691" y="1466" type="curve" smooth="yes"/>
      <point x="259" y="1466"/>
      <point x="125" y="1178"/>
      <point x="125" y="936" type="curve" smooth="yes"/>
    </contour>
    <contour>
      <point x="719" y="318" type="curve"/>
      <point x="603" y="318"/>
      <point x="525" y="366"/>
      <point x="525" y="490" type="curve" smooth="yes"/>
      <point x="525" y="958" type="line" smooth="yes"/>
      <point x="525" y="1102"/>
      <point x="601" y="1142"/>
      <point x="687" y="1142" type="curve" smooth="yes"/>
      <point x="783" y="1142"/>
      <point x="839" y="1092"/>
      <point x="839" y="1006" type="curve" smooth="yes"/>
      <point x="839" y="938"/>
      <point x="805" y="892"/>
      <point x="727" y="892" type="curve" smooth="yes"/>
      <point x="641" y="892" type="line"/>
      <point x="641" y="580" type="line"/>
      <point x="727" y="580" type="line" smooth="yes"/>
      <point x="833" y="580"/>
      <point x="885" y="526"/>
      <point x="885" y="452" type="curve" smooth="yes"/>
      <point x="885" y="366"/>
      <point x="815" y="318"/>
    </contour>
  </outline>
</glyph>
<glyph name="gamma" format="2">
  <advance width="1247"/>
  <unicode hex="03B3"/>
  <outline>
    <contour>
      <point x="398" y="-420" type="line"/>
      <point x="798" y="-420" type="line"/>
      <point x="798" y="-20" type="line"/>
      <point x="1004" y="310"/>
      <point x="1149" y="662"/>
      <point x="1202" y="995" type="curve"/>
      <point x="795" y="1059" type="line"/>
      <point x="758" y="801"/>
      <point x="679" y="475"/>
      <point x="560" y="276" type="curve"/>
      <point x="672" y="190" type="line"/>
      <point x="436" y="1040" type="line"/>
      <point x="10" y="1040" type="line"/>
      <point x="398" y="-52" type="line"/>
    </contour>
  </outline>
</glyph>
<glyph name="delta" format="2">
  <advance width="1214"/>
  <unicode hex="03B4"/>
  <outline>
    <contour>
      <point x="607" y="-30" type="curve" smooth="yes"/>
      <point x="963" y="-30"/>
      <point x="1167" y="196"/>
      <point x="1167" y="464" type="curve" smooth="yes"/>
      <point x="1167" y="712"/>
      <point x="1011" y="838"/>
      <point x="803" y="936" type="curve" smooth="yes"/>
      <point x="643" y="1012"/>
      <point x="555" y="1034"/>
      <point x="555" y="1092" type="curve" smooth="yes"/>
      <point x="555" y="1134"/>
      <point x="601" y="1160"/>
      <point x="701" y="1160" type="curve" smooth="yes"/>
      <point x="743" y="1160"/>
      <point x="841" y="1156"/>
      <point x="973" y="1076" type="curve"/>
      <point x="1063" y="1380" type="line"/>
      <point x="909" y="1450"/>
      <point x="775" y="1470"/>
      <point x="657" y="1470" type="curve" smooth="yes"/>
      <point x="395" y="1470"/>
      <point x="175" y="1362"/>
      <point x="175" y="1142" type="curve" smooth="yes"/>
      <point x="175" y="966"/>
      <point x="315" y="886"/>
      <point x="359" y="858" type="curve"/>
      <point x="161" y="794"/>
      <point x="47" y="654"/>
      <point x="47" y="462" type="curve" smooth="yes"/>
      <point x="47" y="194"/>
      <point x="251" y="-30"/>
    </contour>
    <contour>
      <point x="607" y="302" type="curve" smooth="yes"/>
      <point x="503" y="302"/>
      <point x="431" y="374"/>
      <point x="431" y="470" type="curve" smooth="yes"/>
      <point x="431" y="564"/>
      <point x="501" y="630"/>
      <point x="607" y="662" type="curve"/>
      <point x="713" y="630"/>
      <point x="783" y="564"/>
      <point x="783" y="470" type="curve" smooth="yes"/>
      <point x="783" y="374"/>
      <point x="711" y="302"/>
    </contour>
  </outline>
</glyph>
<glyph name="epsilon" format="2">
  <advance width="1089"/>
  <unicode hex="03B5"/>
  <anchor x="563" y="1040" name="top"/>
  <outline>
    <contour>
      <point x="575" y="-30" type="curve" smooth="yes"/>
      <point x="777" y="-30"/>
      <point x="940" y="12"/>
      <point x="1065" y="92" type="curve"/>
      <point x="953" y="360" type="line"/>
      <point x="848" y="303"/>
      <point x="740" y="276"/>
      <point x="623" y="276" type="curve" smooth="yes"/>
      <point x="520" y="276"/>
      <point x="463" y="297"/>
      <point x="463" y="346" type="curve" smooth="yes"/>
      <point x="463" y="389"/>
      <point x="504" y="404"/>
      <point x="589" y="404" type="curve" smooth="yes"/>
      <point x="747" y="404" type="line"/>
      <point x="747" y="652" type="line"/>
      <point x="573" y="652" type="line" smooth="yes"/>
      <point x="495" y="652"/>
      <point x="461" y="667"/>
      <point x="461" y="703" type="curve" smooth="yes"/>
      <point x="461" y="748"/>
      <point x="521" y="772"/>
      <point x="627" y="772" type="curve" smooth="yes"/>
      <point x="736" y="772"/>
      <point x="840" y="741"/>
      <point x="919" y="684" type="curve"/>
      <point x="1047" y="964" type="line"/>
      <point x="902" y="1040"/>
      <point x="766" y="1070"/>
      <point x="577" y="1070" type="curve" smooth="yes"/>
      <point x="278" y="1070"/>
      <point x="87" y="952"/>
      <point x="87" y="776" type="curve" smooth="yes"/>
      <point x="87" y="667"/>
      <point x="149" y="591"/>
      <point x="265" y="546" type="curve"/>
      <point x="137" y="502"/>
      <point x="67" y="412"/>
      <point x="67" y="300" type="curve" smooth="yes"/>
      <point x="67" y="91"/>
      <point x="259" y="-30"/>
    </contour>
  </outline>
</glyph>
<glyph name="zeta" format="2">
  <advance width="1061"/>
  <unicode hex="03B6"/>
  <outline>
    <contour>
      <point x="965" y="-450" type="line"/>
      <point x="1029" y="-329"/>
      <point x="1067" y="-198"/>
      <point x="1067" y="-100" type="curve" smooth="yes"/>
      <point x="1067" y="266"/>
      <point x="457" y="286"/>
      <point x="457" y="508" type="curve" smooth="yes"/>
      <point x="457" y="664"/>
      <point x="591" y="822"/>
      <point x="1064" y="1180" type="curve"/>
      <point x="1064" y="1440" type="line"/>
      <point x="120" y="1440" type="line"/>
      <point x="120" y="1112" type="line"/>
      <point x="554" y="1112" type="line"/>
      <point x="287" y="943"/>
      <point x="60" y="729"/>
      <point x="60" y="456" type="curve" smooth="yes"/>
      <point x="60" y="22"/>
      <point x="691" y="34"/>
      <point x="691" y="-204" type="curve" smooth="yes"/>
      <point x="691" y="-251"/>
      <point x="664" y="-319"/>
      <point x="611" y="-406" type="curve"/>
    </contour>
  </outline>
</glyph>
<glyph name="iota" format="2">
  <advance width="763"/>
  <unicode hex="03B9"/>
  <anchor x="315" y="1040" name="top"/>
  <outline>
    <contour>
      <point x="499" y="-28" type="curve" smooth="yes"/>
      <point x="571" y="-28"/>
      <point x="649" y="-16"/>
      <point x="735" y="8" type="curve"/>
      <point x="687" y="322" type="line"/>
      <point x="657" y="312"/>
      <point x="629" y="306"/>
      <point x="605" y="306" type="curve" smooth="yes"/>
      <point x="549" y="306"/>
      <point x="515" y="338"/>
      <point x="515" y="426" type="curve" smooth="yes"/>
      <point x="515" y="1040" type="line"/>
      <point x="115" y="1040" type="line"/>
      <point x="115" y="384" type="line" smooth="yes"/>
      <point x="115" y="98"/>
      <point x="267" y="-28"/>
    </contour>
  </outline>
</glyph>
<glyph name="kappa" format="2">
  <advance width="1258"/>
  <unicode hex="03BA"/>
  <outline>
    <contour>
      <point x="125" y="0" type="line"/>
      <point x="525" y="0" type="line"/>
      <point x="525" y="320" type="line"/>
      <point x="597" y="382" type="line"/>
      <point x="777" y="0" type="line"/>
      <point x="1217" y="0" type="line"/>
      <point x="875" y="616" type="line"/>
      <point x="919" y="650" type="line" smooth="yes"/>
      <point x="983" y="698"/>
      <point x="1053" y="732"/>
      <point x="1167" y="730" type="curve"/>
      <point x="1141" y="1066" type="line"/>
      <point x="967" y="1088"/>
      <point x="843" y="1040"/>
      <point x="703" y="914" type="curve" smooth="yes"/>
      <point x="525" y="756" type="line"/>
      <point x="525" y="1040" type="line"/>
      <point x="125" y="1040" type="line"/>
    </contour>
  </outline>
</glyph>
<glyph name="mu" format="2">
  <advance width="1334"/>
  <unicode hex="03BC"/>
  <outline>
    <contour>
      <point x="125" y="-420" type="line"/>
      <point x="493" y="-420" type="line"/>
      <point x="493" y="-4" type="line"/>
      <point x="539" y="-20"/>
      <point x="587" y="-30"/>
      <point x="631" y="-30" type="curve" smooth="yes"/>
      <point x="723" y="-30"/>
      <point x="809" y="8"/>
      <point x="869" y="102" type="curve"/>
      <point x="869" y="0" type="line"/>
      <point x="1209" y="0" type="line"/>
      <point x="1209" y="1040" type="line"/>
      <point x="809" y="1040" type="line"/>
      <point x="809" y="482" type="line" smooth="yes"/>
      <point x="809" y="392"/>
      <point x="757" y="330"/>
      <point x="667" y="330" type="curve" smooth="yes"/>
      <point x="577" y="330"/>
      <point x="525" y="392"/>
      <point x="525" y="482" type="curve" smooth="yes"/>
      <point x="525" y="1040" type="line"/>
      <point x="125" y="1040" type="line"/>
    </contour>
  </outline>
</glyph>
<glyph name="nu" format="2">
  <advance width="1229"/>
  <unicode hex="03BD"/>
  <outline>
    <contour>
      <point x="355" y="0" type="line"/>
      <point x="795" y="0" type="line"/>
      <point x="986" y="310"/>
      <point x="1133" y="662"/>
      <point x="1187" y="995" type="curve"/>
      <point x="780" y="1059" type="line"/>
      <point x="744" y="809"/>
      <point x="668" y="492"/>
      <point x="554" y="299" type="curve"/>
      <point x="646" y="218" type="line"/>
      <point x="433" y="1040" type="line"/>
      <point x="7" y="1040" type="line"/>
    </contour>
  </outline>
</glyph>
<glyph name="xi" format="2">
  <advance width="1064"/>
  <unicode hex="03BE"/>
  <outline>
    <contour>
      <point x="952" y="-450" type="line"/>
      <point x="1016" y="-329"/>
      <point x="1054" y="-198"/>
      <point x="1054" y="-100" type="curve" smooth="yes"/>
      <point x="1054" y="266"/>
      <point x="444" y="286"/>
      <point x="444" y="468" type="curve" smooth="yes"/>
      <point x="444" y="535"/>
      <point x="497" y="568"/>
      <point x="606" y="568" type="curve" smooth="yes"/>
      <point x="901" y="568" type="line"/>
      <point x="901" y="893" type="line"/>
      <point x="621" y="893" type="line" smooth="yes"/>
      <point x="525" y="893"/>
      <point x="475" y="934"/>
      <point x="475" y="1013" type="curve" smooth="yes"/>
      <point x="475" y="1097"/>
      <point x="543" y="1140"/>
      <point x="675" y="1140" type="curve" smooth="yes"/>
      <point x="789" y="1140"/>
      <point x="893" y="1108"/>
      <point x="973" y="1047" type="curve"/>
      <point x="1082" y="1364" type="line"/>
      <point x="946" y="1438"/>
      <point x="809" y="1470"/>
      <point x="628" y="1470" type="curve" smooth="yes"/>
      <point x="303" y="1470"/>
      <point x="100" y="1322"/>
      <point x="100" y="1085" type="curve" smooth="yes"/>
      <point x="100" y="948"/>
      <point x="167" y="842"/>
      <point x="296" y="776" type="curve"/>
      <point x="137" y="713"/>
      <point x="47" y="598"/>
      <point x="47" y="456" type="curve" smooth="yes"/>
      <point x="47" y="22"/>
      <point x="678" y="34"/>
      <point x="678" y="-204" type="curve" smooth="yes"/>
      <point x="678" y="-251"/>
      <point x="651" y="-319"/>
      <point x="598" y="-406" type="curve"/>
    </contour>
  </outline>
</glyph>
<glyph name="pi" format="2">
  <advance width="1412"/>
  <unicode hex="03C0"/>
  <outline>
    <contour>
      <point x="1130" y="-30" type="curve" smooth="yes"/>
      <point x="1196" y="-30"/>
      <point x="1270" y="-20"/>
      <point x="1350" y="0" type="curve"/>
      <point x="1312" y="316" type="line"/>
      <point x="1284" y="308"/>
      <point x="1260" y="302"/>
      <point x="1238" y="302" type="curve" smooth="yes"/>
      <point x="1184" y="302"/>
      <point x="1142" y="334"/>
      <point x="1142" y="408" type="curve" smooth="yes"/>
      <point x="1142" y="712" type="line"/>
      <point x="1328" y="712" type="line"/>
      <point x="1328" y="1040" type="line"/>
      <point x="40" y="1040" type="line"/>
      <point x="40" y="712" type="line"/>
      <point x="196" y="712" type="line"/>
      <point x="176" y="0" type="line"/>
      <point x="572" y="0" type="line"/>
      <point x="592" y="712" type="line"/>
      <point x="760" y="712" type="line"/>
      <point x="760" y="378" type="line" smooth="yes"/>
      <point x="760" y="90"/>
      <point x="904" y="-30"/>
    </contour>
  </outline>
</glyph>
<glyph name="sigmafinal" format="2">
  <advance width="1059"/>
  <unicode hex="03C2"/>
  <outline>
    <contour>
      <point x="952" y="-450" type="line"/>
      <point x="1016" y="-329"/>
      <point x="1054" y="-198"/>
      <point x="1054" y="-100" type="curve" smooth="yes"/>
      <point x="1054" y="287"/>
      <point x="441" y="280"/>
      <point x="441" y="540" type="curve" smooth="yes"/>
      <point x="441" y="654"/>
      <point x="525" y="730"/>
      <point x="669" y="730" type="curve" smooth="yes"/>
      <point x="751" y="730"/>
      <point x="829" y="702"/>
      <point x="897" y="638" type="curve"/>
      <point x="1067" y="932" type="line"/>
      <point x="953" y="1022"/>
      <point x="807" y="1070"/>
      <point x="641" y="1070" type="curve" smooth="yes"/>
      <point x="305" y="1070"/>
      <point x="47" y="832"/>
      <point x="47" y="520" type="curve" smooth="yes"/>
      <point x="47" y="37"/>
      <point x="678" y="50"/>
      <point x="678" y="-204" type="curve" smooth="yes"/>
      <point x="678" y="-251"/>
      <point x="651" y="-319"/>
      <point x="598" y="-406" type="curve"/>
    </contour>
  </outline>
</glyph>
<glyph name="sigma" format="2">
  <advance width="1380"/>
  <unicode hex="03C3"/>
  <outline>
    <contour>
      <point x="635" y="-30" type="curve" smooth="yes"/>
      <point x="985" y="-30"/>
      <point x="1203" y="168"/>
      <point x="1203" y="432" type="curve" smooth="yes"/>
      <point x="1203" y="532"/>
      <point x="1171" y="634"/>
      <point x="1099" y="716" type="curve"/>
      <point x="1351" y="716" type="line"/>
      <point x="1351" y="1040" type="line"/>
      <point x="705" y="1040" type="line" smooth="yes"/>
      <point x="241" y="1040"/>
      <point x="47" y="800"/>
      <point x="47" y="502" type="curve" smooth="yes"/>
      <point x="47" y="178"/>
      <point x="301" y="-30"/>
    </contour>
    <contour>
      <point x="635" y="310" type="curve" smooth="yes"/>
      <point x="519" y="310"/>
      <point x="435" y="390"/>
      <point x="435" y="510" type="curve" smooth="yes"/>
      <point x="435" y="630"/>
      <point x="519" y="710"/>
      <point x="635" y="710" type="curve" smooth="yes"/>
      <point x="751" y="710"/>
      <point x="835" y="630"/>
      <point x="835" y="510" type="curve" smooth="yes"/>
      <point x="835" y="390"/>
      <point x="751" y="310"/>
    </contour>
  </outline>
</glyph>
<glyph name="tau" format="2">
  <advance width="964"/>
  <unicode hex="03C4"/>
  <outline>
    <contour>
      <point x="631" y="-28" type="curve" smooth="yes"/>
      <point x="705" y="-28"/>
      <point x="787" y="-14"/>
      <point x="871" y="14" type="curve"/>
      <point x="819" y="328" type="line"/>
      <point x="791" y="320"/>
      <point x="765" y="314"/>
      <point x="743" y="314" type="curve" smooth="yes"/>
      <point x="683" y="314"/>
      <point x="643" y="348"/>
      <point x="643" y="438" type="curve" smooth="yes"/>
      <point x="643" y="704" type="line"/>
      <point x="935" y="704" type="line"/>
      <point x="935" y="1040" type="line"/>
      <point x="-3" y="1040" type="line"/>
      <point x="-3" y="704" type="line"/>
      <point x="243" y="704" type="line"/>
      <point x="243" y="384" type="line" smooth="yes"/>
      <point x="243" y="104"/>
      <point x="405" y="-28"/>
    </contour>
  </outline>
</glyph>
<glyph name="upsilon" format="2">
  <advance width="1275"/>
  <unicode hex="03C5"/>
  <anchor x="609" y="1040" name="top"/>
  <outline>
    <contour>
      <point x="641" y="-30" type="curve" smooth="yes"/>
      <point x="994" y="-28"/>
      <point x="1193" y="161"/>
      <point x="1193" y="526" type="curve" smooth="yes"/>
      <point x="1193" y="715"/>
      <point x="1133" y="917"/>
      <point x="1030" y="1060" type="curve"/>
      <point x="686" y="940" type="line"/>
      <point x="759" y="832"/>
      <point x="799" y="696"/>
      <point x="799" y="555" type="curve" smooth="yes"/>
      <point x="799" y="399"/>
      <point x="742" y="310"/>
      <point x="643" y="310" type="curve" smooth="yes"/>
      <point x="553" y="310"/>
      <point x="505" y="370"/>
      <point x="505" y="474" type="curve" smooth="yes"/>
      <point x="505" y="1040" type="line"/>
      <point x="105" y="1040" type="line"/>
      <point x="105" y="468" type="line" smooth="yes"/>
      <point x="105" y="182"/>
      <point x="247" y="-30"/>
    </contour>
  </outline>
</glyph>
<glyph name="phi" format="2">
  <advance width="1608"/>
  <unicode hex="03C6"/>
  <outline>
    <contour>
      <point x="599" y="-421" type="line"/>
      <point x="987" y="-420" type="line"/>
      <point x="987" y="600" type="line" smooth="yes"/>
      <point x="987" y="684"/>
      <point x="1018" y="730"/>
      <point x="1075" y="730" type="curve" smooth="yes"/>
      <point x="1143" y="730"/>
      <point x="1175" y="679"/>
      <point x="1175" y="582" type="curve" smooth="yes"/>
      <point x="1175" y="359"/>
      <point x="1039" y="260"/>
      <point x="801" y="260" type="curve" smooth="yes"/>
      <point x="554" y="260"/>
      <point x="425" y="345"/>
      <point x="425" y="585" type="curve" smooth="yes"/>
      <point x="425" y="711"/>
      <point x="468" y="837"/>
      <point x="558" y="940" type="curve"/>
      <point x="240" y="1060" type="line"/>
      <point x="119" y="932"/>
      <point x="47" y="748"/>
      <point x="47" y="546" type="curve" smooth="yes"/>
      <point x="47" y="176"/>
      <point x="296" y="-49"/>
      <point x="791" y="-49" type="curve" smooth="yes"/>
      <point x="1268" y="-49"/>
      <point x="1561" y="180"/>
      <point x="1561" y="592" type="curve" smooth="yes"/>
      <point x="1561" y="883"/>
      <point x="1396" y="1070"/>
      <point x="1089" y="1070" type="curve" smooth="yes"/>
      <point x="776" y="1070"/>
      <point x="599" y="846"/>
      <point x="599" y="514" type="curve" smooth="yes"/>
    </contour>
  </outline>
</glyph>
<glyph name="chi" format="2">
  <advance width="1264"/>
  <unicode hex="03C7"/>
  <outline>
    <contour>
      <point x="39" y="-420" type="line"/>
      <point x="491" y="-420" type="line"/>
      <point x="715" y="154" type="line"/>
      <point x="591" y="154" type="line"/>
      <point x="827" y="-420" type="line"/>
      <point x="1287" y="-420" type="line"/>
      <point x="851" y="474" type="line"/>
      <point x="835" y="150" type="line"/>
      <point x="1267" y="1040" type="line"/>
      <point x="821" y="1040" type="line"/>
      <point x="591" y="492" type="line"/>
      <point x="731" y="456" type="line"/>
      <point x="567" y="880" type="line" smooth="yes"/>
      <point x="495" y="1066"/>
      <point x="299" y="1126"/>
      <point x="7" y="1042" type="curve"/>
      <point x="59" y="706" type="line"/>
      <point x="173" y="750"/>
      <point x="221" y="716"/>
      <point x="271" y="610" type="curve" smooth="yes"/>
      <point x="483" y="164" type="line"/>
      <point x="475" y="466" type="line"/>
    </contour>
  </outline>
</glyph>
<glyph name="psi" format="2">
  <advance width="1714"/>
  <unicode hex="03C8"/>
  <outline>
    <contour>
      <point x="654" y="-420" type="line"/>
      <point x="1054" y="-420" type="line"/>
      <point x="1054" y="-30" type="line"/>
      <point x="1422" y="-28"/>
      <point x="1629" y="161"/>
      <point x="1629" y="526" type="curve" smooth="yes"/>
      <point x="1629" y="715"/>
      <point x="1569" y="917"/>
      <point x="1466" y="1060" type="curve"/>
      <point x="1122" y="940" type="line"/>
      <point x="1195" y="832"/>
      <point x="1235" y="696"/>
      <point x="1235" y="555" type="curve" smooth="yes"/>
      <point x="1235" y="399"/>
      <point x="1166" y="310"/>
      <point x="1046" y="310" type="curve"/>
      <point x="1046" y="1280" type="line"/>
      <point x="662" y="1280" type="line"/>
      <point x="662" y="310" type="line"/>
      <point x="558" y="310"/>
      <point x="494" y="358"/>
      <point x="494" y="550" type="curve" smooth="yes"/>
      <point x="494" y="1040" type="line"/>
      <point x="108" y="1040" type="line"/>
      <point x="108" y="544" type="line" smooth="yes"/>
      <point x="108" y="166"/>
      <point x="252" y="-30"/>
      <point x="654" y="-30" type="curve"/>
    </contour>
  </outline>
</glyph>
<glyph name="omega" format="2">
  <advance width="1718"/>
  <unicode hex="03C9"/>
  <anchor x="859" y="0" name="bottom"/>
  <anchor x="859" y="1040" name="top"/>
  <outline>
    <contour>
      <point x="533" y="-30" type="curve" smooth="yes"/>
      <point x="659" y="-30"/>
      <point x="776" y="30"/>
      <point x="859" y="136" type="curve"/>
      <point x="942" y="30"/>
      <point x="1059" y="-30"/>
      <point x="1185" y="-30" type="curve" smooth="yes"/>
      <point x="1472" y="-30"/>
      <point x="1633" y="181"/>
      <point x="1633" y="546" type="curve" smooth="yes"/>
      <point x="1633" y="735"/>
      <point x="1573" y="917"/>
      <point x="1470" y="1060" type="curve"/>
      <point x="1126" y="940" type="line"/>
      <point x="1199" y="832"/>
      <point x="1239" y="696"/>
      <point x="1239" y="555" type="curve" smooth="yes"/>
      <point x="1239" y="412"/>
      <point x="1199" y="330"/>
      <point x="1129" y="330" type="curve" smooth="yes"/>
      <point x="1061" y="330"/>
      <point x="1033" y="366"/>
      <point x="1033" y="500" type="curve" smooth="yes"/>
      <point x="1033" y="820" type="line"/>
      <point x="685" y="820" type="line"/>
      <point x="685" y="500" type="line" smooth="yes"/>
      <point x="685" y="366"/>
      <point x="657" y="330"/>
      <point x="589" y="330" type="curve" smooth="yes"/>
      <point x="519" y="330"/>
      <point x="479" y="412"/>
      <point x="479" y="555" type="curve" smooth="yes"/>
      <point x="479" y="696"/>
      <point x="519" y="832"/>
      <point x="592" y="940" type="curve"/>
      <point x="248" y="1060" type="line"/>
      <point x="145" y="917"/>
      <point x="85" y="715"/>
      <point x="85" y="526" type="curve" smooth="yes"/>
      <point x="85" y="161"/>
      <point x="246" y="-30"/>
    </contour>
  </outline>
</glyph>
<glyph name="kaiSymbol" format="2">
  <advance width="1264"/>
  <unicode hex="03D7"/>
  <outline>
    <contour>
      <point x="546" y="-430" type="line"/>
      <point x="868" y="-478"/>
      <point x="1013" y="-401"/>
      <point x="1257" y="-64" type="curve"/>
      <point x="878" y="616" type="line"/>
      <point x="922" y="650" type="line" smooth="yes"/>
      <point x="986" y="698"/>
      <point x="1056" y="732"/>
      <point x="1170" y="730" type="curve"/>
      <point x="1144" y="1066" type="line"/>
      <point x="970" y="1088"/>
      <point x="846" y="1040"/>
      <point x="706" y="914" type="curve" smooth="yes"/>
      <point x="528" y="756" type="line"/>
      <point x="528" y="1040" type="line"/>
      <point x="128" y="1040" type="line"/>
      <point x="128" y="0" type="line"/>
      <point x="528" y="0" type="line"/>
      <point x="528" y="320" type="line"/>
      <point x="600" y="382" type="line"/>
      <point x="790" y="-22" type="line"/>
      <point x="714" y="-96"/>
      <point x="678" y="-114"/>
      <point x="546" y="-110" type="curve"/>
    </contour>
  </outline>
</glyph>
<glyph name="Dje-cy" format="2">
  <advance width="1672"/>
  <unicode hex="0402"/>
  <outline>
    <contour>
      <point x="387" y="0" type="line"/>
      <point x="793" y="0" type="line"/>
      <point x="793" y="1040" type="line"/>
      <point x="1349" y="1040" type="line"/>
      <point x="1349" y="1400" type="line"/>
      <point x="27" y="1400" type="line"/>
      <point x="27" y="1040" type="line"/>
      <point x="387" y="1040" type="line"/>
    </contour>
    <contour>
      <point x="1207" y="-334" type="line"/>
      <point x="1489" y="-188"/>
      <point x="1625" y="88"/>
      <point x="1625" y="350" type="curve" smooth="yes"/>
      <point x="1625" y="654"/>
      <point x="1413" y="900"/>
      <point x="1025" y="900" type="curve" smooth="yes"/>
      <point x="927" y="900"/>
      <point x="825" y="888"/>
      <point x="719" y="856" type="curve"/>
      <point x="723" y="532" type="line"/>
      <point x="797" y="556"/>
      <point x="855" y="568"/>
      <point x="935" y="568" type="curve" smooth="yes"/>
      <point x="1105" y="568"/>
      <point x="1217" y="454"/>
      <point x="1217" y="318" type="curve" smooth="yes"/>
      <point x="1217" y="184"/>
      <point x="1149" y="52"/>
      <point x="1007" y="-32" type="curve"/>
    </contour>
  </outline>
</glyph>
<glyph name="E-cy" format="2">
  <advance width="1399"/>
  <unicode hex="0404"/>
  <outline>
    <contour>
      <point x="809" y="-30" type="curve" smooth="yes"/>
      <point x="1065" y="-30"/>
      <point x="1247" y="42"/>
      <point x="1373" y="138" type="curve"/>
      <point x="1199" y="456" type="line"/>
      <point x="1085" y="372"/>
      <point x="951" y="334"/>
      <point x="829" y="334" type="curve" smooth="yes"/>
      <point x="589" y="334"/>
      <point x="451" y="472"/>
      <point x="451" y="700" type="curve" smooth="yes"/>
      <point x="451" y="924"/>
      <point x="583" y="1066"/>
      <point x="825" y="1066" type="curve" smooth="yes"/>
      <point x="963" y="1066"/>
      <point x="1079" y="1022"/>
      <point x="1155" y="934" type="curve"/>
      <point x="1343" y="1250" type="line"/>
      <point x="1207" y="1364"/>
      <point x="1063" y="1430"/>
      <point x="815" y="1430" type="curve" smooth="yes"/>
      <point x="379" y="1430"/>
      <point x="67" y="1128"/>
      <point x="67" y="694" type="curve" smooth="yes"/>
      <point x="67" y="248"/>
      <point x="373" y="-30"/>
    </contour>
    <contour>
      <point x="341" y="562" type="line"/>
      <point x="1035" y="562" type="line"/>
      <point x="1035" y="864" type="line"/>
      <point x="341" y="864" type="line"/>
    </contour>
  </outline>
</glyph>
<glyph name="Lje-cy" format="2">
  <advance width="2148"/>
  <unicode hex="0409"/>
  <outline>
    <contour>
      <point x="151" y="-30" type="line"/>
      <point x="573" y="54"/>
      <point x="673" y="302"/>
      <point x="673" y="1012" type="curve" smooth="yes"/>
      <point x="673" y="1032" type="line"/>
      <point x="955" y="1032" type="line"/>
      <point x="1359" y="1400" type="line"/>
      <point x="293" y="1400" type="line"/>
      <point x="293" y="992" type="line" smooth="yes"/>
      <point x="293" y="468"/>
      <point x="253" y="407"/>
      <point x="26" y="339" type="curve"/>
    </contour>
    <contour>
      <point x="1359" y="294" type="line"/>
      <point x="1359" y="564" type="line"/>
      <point x="1529" y="564" type="line" smooth="yes"/>
      <point x="1633" y="564"/>
      <point x="1707" y="532"/>
      <point x="1707" y="428" type="curve" smooth="yes"/>
      <point x="1707" y="328"/>
      <point x="1639" y="294"/>
      <point x="1527" y="294" type="curve" smooth="yes"/>
    </contour>
    <contour>
      <point x="955" y="0" type="line"/>
      <point x="1543" y="0" type="line" smooth="yes"/>
      <point x="1903" y="0"/>
      <point x="2111" y="168"/>
      <point x="2111" y="464" type="curve" smooth="yes"/>
      <point x="2111" y="744"/>
      <point x="1873" y="908"/>
      <point x="1553" y="908" type="curve" smooth="yes"/>
      <point x="1359" y="908" type="line"/>
      <point x="1359" y="1400" type="line"/>
      <point x="955" y="1400" type="line"/>
    </contour>
  </outline>
</glyph>
<glyph name="Nje-cy" format="2">
  <advance width="2178"/>
  <unicode hex="040A"/>
  <outline>
    <contour>
      <point x="985" y="0" type="line"/>
      <point x="1573" y="0" type="line" smooth="yes"/>
      <point x="1933" y="0"/>
      <point x="2141" y="168"/>
      <point x="2141" y="464" type="curve" smooth="yes"/>
      <point x="2141" y="744"/>
      <point x="1903" y="908"/>
      <point x="1583" y="908" type="curve" smooth="yes"/>
      <point x="469" y="908" type="line"/>
      <point x="469" y="564" type="line"/>
      <point x="1559" y="564" type="line" smooth="yes"/>
      <point x="1663" y="564"/>
      <point x="1737" y="532"/>
      <point x="1737" y="428" type="curve" smooth="yes"/>
      <point x="1737" y="328"/>
      <point x="1669" y="294"/>
      <point x="1557" y="294" type="curve" smooth="yes"/>
      <point x="1389" y="294" type="line"/>
      <point x="1389" y="1400" type="line"/>
      <point x="985" y="1400" type="line"/>
    </contour>
    <contour>
      <point x="153" y="0" type="line"/>
      <point x="557" y="0" type="line"/>
      <point x="557" y="1400" type="line"/>
      <point x="153" y="1400" type="line"/>
    </contour>
  </outline>
</glyph>
<glyph name="Tshe-cy" format="2">
  <advance width="1708"/>
  <unicode hex="040B"/>
  <outline>
    <contour>
      <point x="30" y="1040" type="line"/>
      <point x="1352" y="1040" type="line"/>
      <point x="1352" y="1400" type="line"/>
      <point x="30" y="1400" type="line"/>
    </contour>
    <contour>
      <point x="392" y="0" type="line"/>
      <point x="796" y="0" type="line"/>
      <point x="796" y="542" type="line"/>
      <point x="862" y="558"/>
      <point x="926" y="568"/>
      <point x="1012" y="568" type="curve" smooth="yes"/>
      <point x="1152" y="568"/>
      <point x="1228" y="502"/>
      <point x="1228" y="318" type="curve" smooth="yes"/>
      <point x="1228" y="0" type="line"/>
      <point x="1632" y="0" type="line"/>
      <point x="1632" y="372" type="line" smooth="yes"/>
      <point x="1632" y="764"/>
      <point x="1416" y="920"/>
      <point x="1096" y="920" type="curve" smooth="yes"/>
      <point x="992" y="920"/>
      <point x="900" y="902"/>
      <point x="796" y="872" type="curve"/>
      <point x="796" y="1400" type="line"/>
      <point x="392" y="1400" type="line"/>
    </contour>
  </outline>
</glyph>
<glyph name="De-cy" format="2">
  <advance width="1711"/>
  <unicode hex="0414"/>
  <outline>
    <contour>
      <point x="1034" y="0" type="line"/>
      <point x="1438" y="0" type="line"/>
      <point x="1438" y="1400" type="line"/>
      <point x="308" y="1400" type="line"/>
      <point x="308" y="1012" type="line" smooth="yes"/>
      <point x="308" y="520"/>
      <point x="256" y="396"/>
      <point x="30" y="346" type="curve"/>
      <point x="166" y="2" type="line"/>
      <point x="558" y="92"/>
      <point x="688" y="396"/>
      <point x="688" y="1012" type="curve" smooth="yes"/>
      <point x="688" y="1032" type="line"/>
      <point x="1034" y="1032" type="line"/>
    </contour>
    <contour>
      <point x="30" y="-350" type="line"/>
      <point x="414" y="-350" type="line"/>
      <point x="414" y="0" type="line"/>
      <point x="1282" y="0" type="line"/>
      <point x="1282" y="-350" type="line"/>
      <point x="1666" y="-350" type="line"/>
      <point x="1666" y="368" type="line"/>
      <point x="358" y="368" type="line"/>
      <point x="240" y="340" type="line"/>
      <point x="30" y="346" type="line"/>
    </contour>
  </outline>
</glyph>
<glyph name="Zhe-cy" format="2">
  <advance width="2128"/>
  <unicode hex="0416"/>
  <anchor x="1997" y="0" name="descender"/>
  <anchor x="1063" y="1400" name="top"/>
  <outline>
    <contour>
      <point x="1675" y="0" type="line"/>
      <point x="2141" y="0" type="line"/>
      <point x="1617" y="720" type="line"/>
      <point x="2087" y="1400" type="line"/>
      <point x="1631" y="1400" type="line"/>
      <point x="1173" y="720" type="line"/>
    </contour>
    <contour>
      <point x="-13" y="0" type="line"/>
      <point x="435" y="0" type="line"/>
      <point x="951" y="714" type="line"/>
      <point x="517" y="1400" type="line"/>
      <point x="47" y="1400" type="line"/>
      <point x="507" y="696" type="line"/>
    </contour>
    <contour>
      <point x="861" y="0" type="line"/>
      <point x="1265" y="0" type="line"/>
      <point x="1265" y="560" type="line"/>
      <point x="1507" y="560" type="line"/>
      <point x="1507" y="892" type="line"/>
      <point x="1265" y="892" type="line"/>
      <point x="1265" y="1400" type="line"/>
      <point x="861" y="1400" type="line"/>
      <point x="861" y="892" type="line"/>
      <point x="621" y="892" type="line"/>
      <point x="621" y="560" type="line"/>
      <point x="861" y="560" type="line"/>
    </contour>
  </outline>
</glyph>
<glyph name="Ze-cy" format="2">
  <advance width="1287"/>
  <unicode hex="0417"/>
  <anchor x="612" y="0" name="bottom"/>
  <anchor x="622" y="1400" name="top"/>
  <outline>
    <contour>
      <point x="616" y="-30" type="curve" smooth="yes"/>
      <point x="980" y="-30"/>
      <point x="1220" y="158"/>
      <point x="1220" y="440" type="curve" smooth="yes"/>
      <point x="1220" y="600"/>
      <point x="1136" y="714"/>
      <point x="980" y="772" type="curve"/>
      <point x="1092" y="836"/>
      <point x="1160" y="944"/>
      <point x="1160" y="1060" type="curve" smooth="yes"/>
      <point x="1160" y="1290"/>
      <point x="958" y="1430"/>
      <point x="622" y="1430" type="curve" smooth="yes"/>
      <point x="402" y="1430"/>
      <point x="196" y="1362"/>
      <point x="62" y="1246" type="curve"/>
      <point x="240" y="952" type="line"/>
      <point x="314" y="1020"/>
      <point x="444" y="1066"/>
      <point x="562" y="1066" type="curve" smooth="yes"/>
      <point x="700" y="1066"/>
      <point x="758" y="1034"/>
      <point x="758" y="968" type="curve" smooth="yes"/>
      <point x="758" y="902"/>
      <point x="696" y="864"/>
      <point x="580" y="864" type="curve" smooth="yes"/>
      <point x="320" y="864" type="line"/>
      <point x="320" y="562" type="line"/>
      <point x="610" y="562" type="line" smooth="yes"/>
      <point x="736" y="562"/>
      <point x="798" y="525"/>
      <point x="798" y="450" type="curve" smooth="yes"/>
      <point x="798" y="368"/>
      <point x="708" y="316"/>
      <point x="566" y="316" type="curve" smooth="yes"/>
      <point x="428" y="316"/>
      <point x="290" y="364"/>
      <point x="194" y="444" type="curve"/>
      <point x="26" y="132" type="line"/>
      <point x="184" y="22"/>
      <point x="376" y="-30"/>
    </contour>
  </outline>
</glyph>
<glyph name="Ii-cy" format="2">
  <advance width="1590"/>
  <unicode hex="0418"/>
  <anchor x="795" y="0" name="bottom"/>
  <anchor x="795" y="1400" name="top"/>
  <outline>
    <contour>
      <point x="153" y="0" type="line"/>
      <point x="557" y="0" type="line"/>
      <point x="1037" y="782" type="line"/>
      <point x="1037" y="0" type="line"/>
      <point x="1437" y="0" type="line"/>
      <point x="1437" y="1400" type="line"/>
      <point x="1031" y="1400" type="line"/>
      <point x="553" y="630" type="line"/>
      <point x="553" y="1400" type="line"/>
      <point x="153" y="1400" type="line"/>
    </contour>
  </outline>
</glyph>
<glyph name="El-cy" format="2">
  <advance width="1552"/>
  <unicode hex="041B"/>
  <outline>
    <contour>
      <point x="151" y="-30" type="line"/>
      <point x="573" y="54"/>
      <point x="673" y="302"/>
      <point x="673" y="1012" type="curve" smooth="yes"/>
      <point x="673" y="1032" type="line"/>
      <point x="995" y="1032" type="line"/>
      <point x="995" y="0" type="line"/>
      <point x="1399" y="0" type="line"/>
      <point x="1399" y="1400" type="line"/>
      <point x="293" y="1400" type="line"/>
      <point x="293" y="992" type="line" smooth="yes"/>
      <point x="293" y="468"/>
      <point x="253" y="407"/>
      <point x="26" y="339" type="curve"/>
    </contour>
  </outline>
</glyph>
<glyph name="U-cy" format="2">
  <advance width="1392"/>
  <unicode hex="0423"/>
  <anchor x="742" y="1400" name="top"/>
  <outline>
    <contour>
      <point x="232" y="-30" type="line"/>
      <point x="574" y="-2"/>
      <point x="798" y="151"/>
      <point x="1018" y="592" type="curve" smooth="yes"/>
      <point x="1420" y="1400" type="line"/>
      <point x="952" y="1400" type="line"/>
      <point x="668" y="786" type="line" smooth="yes"/>
      <point x="534" y="498"/>
      <point x="386" y="382"/>
      <point x="96" y="336" type="curve"/>
    </contour>
    <contour>
      <point x="588" y="354" type="line"/>
      <point x="862" y="688" type="line"/>
      <point x="532" y="1400" type="line"/>
      <point x="44" y="1400" type="line"/>
    </contour>
  </outline>
</glyph>
<glyph name="Ef-cy" format="2">
  <advance width="1840"/>
  <unicode hex="0424"/>
  <outline>
    <contour>
      <point x="720" y="-72" type="line"/>
      <point x="1120" y="-72" type="line"/>
      <point x="1120" y="98" type="line"/>
      <point x="1508" y="116"/>
      <point x="1780" y="344"/>
      <point x="1780" y="712" type="curve" smooth="yes"/>
      <point x="1780" y="1080"/>
      <point x="1508" y="1308"/>
      <point x="1120" y="1326" type="curve"/>
      <point x="1120" y="1488" type="line"/>
      <point x="720" y="1488" type="line"/>
      <point x="720" y="1326" type="line"/>
      <point x="332" y="1308"/>
      <point x="60" y="1080"/>
      <point x="60" y="712" type="curve" smooth="yes"/>
      <point x="60" y="344"/>
      <point x="332" y="116"/>
      <point x="720" y="98" type="curve"/>
    </contour>
    <contour>
      <point x="720" y="428" type="line"/>
      <point x="558" y="442"/>
      <point x="464" y="542"/>
      <point x="464" y="712" type="curve" smooth="yes"/>
      <point x="464" y="882"/>
      <point x="558" y="982"/>
      <point x="720" y="996" type="curve"/>
    </contour>
    <contour>
      <point x="1120" y="428" type="curve"/>
      <point x="1120" y="996" type="line"/>
      <point x="1282" y="982"/>
      <point x="1376" y="882"/>
      <point x="1376" y="712" type="curve" smooth="yes"/>
      <point x="1376" y="542"/>
      <point x="1282" y="442"/>
    </contour>
  </outline>
</glyph>
<glyph name="Sha-cy" format="2">
  <advance width="2282"/>
  <unicode hex="0428"/>
  <anchor x="2129" y="0" name="descender"/>
  <outline>
    <contour>
      <point x="153" y="0" type="line"/>
      <point x="2129" y="0" type="line"/>
      <point x="2129" y="1400" type="line"/>
      <point x="1725" y="1400" type="line"/>
      <point x="1725" y="368" type="line"/>
      <point x="1343" y="368" type="line"/>
      <point x="1343" y="1400" type="line"/>
      <point x="939" y="1400" type="line"/>
      <point x="939" y="368" type="line"/>
      <point x="557" y="368" type="line"/>
      <point x="557" y="1400" type="line"/>
      <point x="153" y="1400" type="line"/>
    </contour>
  </outline>
</glyph>
<glyph name="Hardsign-cy" format="2">
  <advance width="1580"/>
  <unicode hex="042A"/>
  <guideline x="282" y="900" angle="180"/>
  <anchor x="589" y="1400" name="top"/>
  <outline>
    <contour>
      <point x="387" y="1032" type="line"/>
      <point x="791" y="1400" type="line"/>
      <point x="27" y="1400" type="line"/>
      <point x="27" y="1032" type="line"/>
    </contour>
    <contour>
      <point x="387" y="0" type="line"/>
      <point x="975" y="0" type="line" smooth="yes"/>
      <point x="1335" y="0"/>
      <point x="1543" y="176"/>
      <point x="1543" y="484" type="curve" smooth="yes"/>
      <point x="1543" y="790"/>
      <point x="1305" y="968"/>
      <point x="985" y="968" type="curve" smooth="yes"/>
      <point x="791" y="968" type="line"/>
      <point x="791" y="1400" type="line"/>
      <point x="387" y="1400" type="line"/>
    </contour>
    <contour>
      <point x="791" y="334" type="line"/>
      <point x="791" y="624" type="line"/>
      <point x="961" y="624" type="line" smooth="yes"/>
      <point x="1065" y="624"/>
      <point x="1139" y="590"/>
      <point x="1139" y="478" type="curve" smooth="yes"/>
      <point x="1139" y="370"/>
      <point x="1071" y="334"/>
      <point x="959" y="334" type="curve" smooth="yes"/>
    </contour>
  </outline>
</glyph>
<glyph name="Yeru-cy" format="2">
  <advance width="2032"/>
  <unicode hex="042B"/>
  <guideline x="489" y="900" angle="180"/>
  <anchor x="1003" y="0" name="bottom"/>
  <anchor x="1003" y="1400" name="top"/>
  <outline>
    <contour>
      <point x="153" y="0" type="line"/>
      <point x="731" y="0" type="line" smooth="yes"/>
      <point x="1091" y="0"/>
      <point x="1299" y="176"/>
      <point x="1299" y="484" type="curve" smooth="yes"/>
      <point x="1299" y="790"/>
      <point x="1061" y="968"/>
      <point x="741" y="968" type="curve" smooth="yes"/>
      <point x="557" y="968" type="line"/>
      <point x="557" y="1400" type="line"/>
      <point x="153" y="1400" type="line"/>
    </contour>
    <contour>
      <point x="557" y="334" type="line"/>
      <point x="557" y="624" type="line"/>
      <point x="717" y="624" type="line" smooth="yes"/>
      <point x="821" y="624"/>
      <point x="895" y="590"/>
      <point x="895" y="478" type="curve" smooth="yes"/>
      <point x="895" y="370"/>
      <point x="827" y="334"/>
      <point x="715" y="334" type="curve" smooth="yes"/>
    </contour>
    <contour>
      <point x="1475" y="0" type="line"/>
      <point x="1879" y="0" type="line"/>
      <point x="1879" y="1400" type="line"/>
      <point x="1475" y="1400" type="line"/>
    </contour>
  </outline>
</glyph>
<glyph name="Softsign-cy" format="2">
  <advance width="1346"/>
  <unicode hex="042C"/>
  <guideline x="165" y="900" angle="90"/>
  <anchor x="355" y="1170" name="bar"/>
  <outline>
    <contour>
      <point x="153" y="0" type="line"/>
      <point x="741" y="0" type="line" smooth="yes"/>
      <point x="1101" y="0"/>
      <point x="1309" y="176"/>
      <point x="1309" y="484" type="curve" smooth="yes"/>
      <point x="1309" y="790"/>
      <point x="1071" y="968"/>
      <point x="751" y="968" type="curve" smooth="yes"/>
      <point x="557" y="968" type="line"/>
      <point x="557" y="1400" type="line"/>
      <point x="153" y="1400" type="line"/>
    </contour>
    <contour>
      <point x="557" y="334" type="line"/>
      <point x="557" y="624" type="line"/>
      <point x="727" y="624" type="line" smooth="yes"/>
      <point x="831" y="624"/>
      <point x="905" y="590"/>
      <point x="905" y="478" type="curve" smooth="yes"/>
      <point x="905" y="370"/>
      <point x="837" y="334"/>
      <point x="725" y="334" type="curve" smooth="yes"/>
    </contour>
  </outline>
</glyph>
<glyph name="Ereversed-cy" format="2">
  <advance width="1395"/>
  <unicode hex="042D"/>
  <anchor x="628" y="0" name="bottom"/>
  <anchor x="628" y="1400" name="top"/>
  <outline>
    <contour>
      <point x="576" y="-30" type="curve" smooth="yes"/>
      <point x="1028" y="-30"/>
      <point x="1328" y="264"/>
      <point x="1328" y="710" type="curve" smooth="yes"/>
      <point x="1328" y="1142"/>
      <point x="1042" y="1430"/>
      <point x="596" y="1430" type="curve" smooth="yes"/>
      <point x="378" y="1430"/>
      <point x="194" y="1358"/>
      <point x="62" y="1246" type="curve"/>
      <point x="240" y="952" type="line"/>
      <point x="330" y="1026"/>
      <point x="452" y="1066"/>
      <point x="602" y="1066" type="curve" smooth="yes"/>
      <point x="820" y="1066"/>
      <point x="944" y="948"/>
      <point x="944" y="710" type="curve" smooth="yes"/>
      <point x="944" y="456"/>
      <point x="810" y="336"/>
      <point x="586" y="336" type="curve" smooth="yes"/>
      <point x="454" y="336"/>
      <point x="316" y="370"/>
      <point x="194" y="444" type="curve"/>
      <point x="26" y="132" type="line"/>
      <point x="152" y="38"/>
      <point x="368" y="-30"/>
    </contour>
    <contour>
      <point x="360" y="562" type="line"/>
      <point x="1054" y="562" type="line"/>
      <point x="1054" y="864" type="line"/>
      <point x="360" y="864" type="line"/>
    </contour>
  </outline>
</glyph>
<glyph name="Iu-cy" format="2">
  <advance width="2326"/>
  <unicode hex="042E"/>
  <anchor x="1207" y="1400" name="top"/>
  <outline>
    <contour>
      <point x="153" y="0" type="line"/>
      <point x="557" y="0" type="line"/>
      <point x="557" y="538" type="line"/>
      <point x="985" y="538" type="line"/>
      <point x="985" y="906" type="line"/>
      <point x="557" y="906" type="line"/>
      <point x="557" y="1400" type="line"/>
      <point x="153" y="1400" type="line"/>
    </contour>
    <contour>
      <point x="1505" y="-30" type="curve" smooth="yes"/>
      <point x="1941" y="-30"/>
      <point x="2259" y="286"/>
      <point x="2259" y="700" type="curve" smooth="yes"/>
      <point x="2259" y="1108"/>
      <point x="1941" y="1430"/>
      <point x="1505" y="1430" type="curve" smooth="yes"/>
      <point x="1067" y="1430"/>
      <point x="751" y="1116"/>
      <point x="751" y="700" type="curve" smooth="yes"/>
      <point x="751" y="286"/>
      <point x="1067" y="-30"/>
    </contour>
    <contour>
      <point x="1505" y="348" type="curve" smooth="yes"/>
      <point x="1311" y="348"/>
      <point x="1175" y="484"/>
      <point x="1175" y="700" type="curve" smooth="yes"/>
      <point x="1175" y="916"/>
      <point x="1311" y="1052"/>
      <point x="1505" y="1052" type="curve" smooth="yes"/>
      <point x="1699" y="1052"/>
      <point x="1835" y="916"/>
      <point x="1835" y="700" type="curve" smooth="yes"/>
      <point x="1835" y="484"/>
      <point x="1699" y="348"/>
    </contour>
  </outline>
</glyph>
<glyph name="Ia-cy" format="2">
  <advance width="1404"/>
  <unicode hex="042F"/>
  <anchor x="739" y="1400" name="top"/>
  <outline>
    <contour>
      <point x="31" y="0" type="line"/>
      <point x="489" y="0" type="line"/>
      <point x="761" y="482" type="line"/>
      <point x="847" y="482" type="line"/>
      <point x="847" y="0" type="line"/>
      <point x="1251" y="0" type="line"/>
      <point x="1251" y="1400" type="line"/>
      <point x="677" y="1400" type="line" smooth="yes"/>
      <point x="337" y="1400"/>
      <point x="113" y="1252"/>
      <point x="113" y="934" type="curve" smooth="yes"/>
      <point x="113" y="762"/>
      <point x="211" y="630"/>
      <point x="373" y="552" type="curve"/>
    </contour>
    <contour>
      <point x="699" y="800" type="line" smooth="yes"/>
      <point x="589" y="800"/>
      <point x="521" y="834"/>
      <point x="521" y="936" type="curve" smooth="yes"/>
      <point x="521" y="1038"/>
      <point x="589" y="1072"/>
      <point x="697" y="1072" type="curve" smooth="yes"/>
      <point x="847" y="1072" type="line"/>
      <point x="847" y="800" type="line"/>
    </contour>
  </outline>
</glyph>
<glyph name="be-cy" format="2">
  <advance width="1293"/>
  <unicode hex="0431"/>
  <outline>
    <contour>
      <point x="669" y="-30" type="curve" smooth="yes"/>
      <point x="1009" y="-30"/>
      <point x="1233" y="198"/>
      <point x="1233" y="486" type="curve" smooth="yes"/>
      <point x="1233" y="740"/>
      <point x="1029" y="942"/>
      <point x="745" y="942" type="curve" smooth="yes"/>
      <point x="629" y="942"/>
      <point x="527" y="910"/>
      <point x="443" y="854" type="curve"/>
      <point x="459" y="996"/>
      <point x="523" y="1050"/>
      <point x="689" y="1076" type="curve" smooth="yes"/>
      <point x="1175" y="1148" type="line"/>
      <point x="1119" y="1470" type="line"/>
      <point x="621" y="1386" type="line" smooth="yes"/>
      <point x="241" y="1322"/>
      <point x="75" y="1072"/>
      <point x="75" y="628" type="curve" smooth="yes"/>
      <point x="75" y="228"/>
      <point x="317" y="-30"/>
    </contour>
    <contour>
      <point x="667" y="310" type="curve" smooth="yes"/>
      <point x="569" y="310"/>
      <point x="487" y="374"/>
      <point x="487" y="480" type="curve" smooth="yes"/>
      <point x="487" y="586"/>
      <point x="567" y="650"/>
      <point x="667" y="650" type="curve" smooth="yes"/>
      <point x="765" y="650"/>
      <point x="845" y="586"/>
      <point x="845" y="480" type="curve" smooth="yes"/>
      <point x="845" y="374"/>
      <point x="763" y="310"/>
    </contour>
  </outline>
</glyph>
<glyph name="ve-cy" format="2">
  <advance width="1213"/>
  <unicode hex="0432"/>
  <outline>
    <contour>
      <point x="128" y="0" type="line"/>
      <point x="712" y="0" type="line" smooth="yes"/>
      <point x="998" y="0"/>
      <point x="1150" y="122"/>
      <point x="1150" y="326" type="curve" smooth="yes"/>
      <point x="1150" y="496"/>
      <point x="1006" y="602"/>
      <point x="792" y="614" type="curve"/>
      <point x="798" y="524" type="line"/>
      <point x="962" y="542"/>
      <point x="1104" y="614"/>
      <point x="1104" y="774" type="curve" smooth="yes"/>
      <point x="1104" y="954"/>
      <point x="960" y="1040"/>
      <point x="706" y="1040" type="curve" smooth="yes"/>
      <point x="128" y="1040" type="line"/>
    </contour>
    <contour>
      <point x="508" y="260" type="line"/>
      <point x="508" y="780" type="line"/>
      <point x="634" y="780" type="line" smooth="yes"/>
      <point x="694" y="780"/>
      <point x="734" y="754"/>
      <point x="734" y="710" type="curve" smooth="yes"/>
      <point x="734" y="666"/>
      <point x="698" y="644"/>
      <point x="634" y="644" type="curve" smooth="yes"/>
      <point x="476" y="644" type="line"/>
      <point x="476" y="400" type="line"/>
      <point x="660" y="400" type="line" smooth="yes"/>
      <point x="730" y="400"/>
      <point x="760" y="372"/>
      <point x="760" y="332" type="curve" smooth="yes"/>
      <point x="760" y="288"/>
      <point x="726" y="260"/>
      <point x="660" y="260" type="curve" smooth="yes"/>
    </contour>
  </outline>
</glyph>
<glyph name="de-cy" format="2">
  <advance width="1463"/>
  <unicode hex="0434"/>
  <outline>
    <contour>
      <point x="836" y="0" type="line"/>
      <point x="1236" y="0" type="line"/>
      <point x="1236" y="1040" type="line"/>
      <point x="254" y="1040" type="line"/>
      <point x="254" y="698" type="line" smooth="yes"/>
      <point x="254" y="542"/>
      <point x="218" y="336"/>
      <point x="46" y="302" type="curve"/>
      <point x="114" y="20" type="line"/>
      <point x="508" y="92"/>
      <point x="614" y="418"/>
      <point x="614" y="698" type="curve" smooth="yes"/>
      <point x="614" y="728" type="line"/>
      <point x="836" y="728" type="line"/>
    </contour>
    <contour>
      <point x="46" y="-300" type="line"/>
      <point x="410" y="-300" type="line"/>
      <point x="410" y="0" type="line"/>
      <point x="1078" y="0" type="line"/>
      <point x="1078" y="-300" type="line"/>
      <point x="1442" y="-300" type="line"/>
      <point x="1442" y="312" type="line"/>
      <point x="304" y="312" type="line"/>
      <point x="240" y="290" type="line"/>
      <point x="46" y="302" type="line"/>
    </contour>
  </outline>
</glyph>
<glyph name="ze-cy" format="2">
  <advance width="1089"/>
  <unicode hex="0437"/>
  <anchor x="534" y="0" name="bottom"/>
  <anchor x="514" y="1040" name="top"/>
  <outline>
    <contour>
      <point x="508" y="-30" type="curve" smooth="yes"/>
      <point x="832" y="-30"/>
      <point x="1022" y="118"/>
      <point x="1022" y="326" type="curve" smooth="yes"/>
      <point x="1022" y="456"/>
      <point x="952" y="534"/>
      <point x="818" y="576" type="curve"/>
      <point x="922" y="606"/>
      <point x="976" y="696"/>
      <point x="976" y="784" type="curve" smooth="yes"/>
      <point x="976" y="968"/>
      <point x="808" y="1076"/>
      <point x="508" y="1076" type="curve" smooth="yes"/>
      <point x="356" y="1076"/>
      <point x="184" y="1036"/>
      <point x="54" y="938" type="curve"/>
      <point x="184" y="684" type="line"/>
      <point x="254" y="752"/>
      <point x="360" y="784"/>
      <point x="470" y="784" type="curve" smooth="yes"/>
      <point x="568" y="784"/>
      <point x="626" y="766"/>
      <point x="626" y="722" type="curve" smooth="yes"/>
      <point x="626" y="680"/>
      <point x="592" y="662"/>
      <point x="486" y="662" type="curve" smooth="yes"/>
      <point x="308" y="662" type="line"/>
      <point x="308" y="394" type="line"/>
      <point x="498" y="394" type="line" smooth="yes"/>
      <point x="610" y="394"/>
      <point x="660" y="384"/>
      <point x="660" y="334" type="curve" smooth="yes"/>
      <point x="660" y="277"/>
      <point x="600" y="252"/>
      <point x="490" y="252" type="curve" smooth="yes"/>
      <point x="368" y="252"/>
      <point x="252" y="286"/>
      <point x="180" y="354" type="curve"/>
      <point x="34" y="110" type="line"/>
      <point x="152" y="10"/>
      <point x="330" y="-30"/>
    </contour>
  </outline>
</glyph>
<glyph name="ka-cy" format="2">
  <advance width="1266"/>
  <unicode hex="043A"/>
  <anchor x="1135" y="0" name="descender"/>
  <anchor x="671" y="1040" name="top"/>
  <outline>
    <contour>
      <point x="785" y="0" type="line"/>
      <point x="1255" y="0" type="line"/>
      <point x="901" y="560" type="line"/>
      <point x="1237" y="1040" type="line"/>
      <point x="817" y="1040" type="line"/>
      <point x="475" y="538" type="line"/>
    </contour>
    <contour>
      <point x="125" y="0" type="line"/>
      <point x="525" y="0" type="line"/>
      <point x="525" y="370" type="line"/>
      <point x="845" y="370" type="line"/>
      <point x="845" y="682" type="line"/>
      <point x="525" y="682" type="line"/>
      <point x="525" y="1040" type="line"/>
      <point x="125" y="1040" type="line"/>
    </contour>
  </outline>
</glyph>
<glyph name="el-cy" format="2">
  <advance width="1330"/>
  <unicode hex="043B"/>
  <outline>
    <contour>
      <point x="149" y="-30" type="line"/>
      <point x="511" y="44"/>
      <point x="603" y="290"/>
      <point x="603" y="698" type="curve" smooth="yes"/>
      <point x="603" y="728" type="line"/>
      <point x="805" y="728" type="line"/>
      <point x="805" y="0" type="line"/>
      <point x="1205" y="0" type="line"/>
      <point x="1205" y="1040" type="line"/>
      <point x="243" y="1040" type="line"/>
      <point x="243" y="698" type="line" smooth="yes"/>
      <point x="243" y="478"/>
      <point x="229" y="372"/>
      <point x="23" y="320" type="curve"/>
    </contour>
  </outline>
</glyph>
<glyph name="en-cy" format="2">
  <advance width="1370"/>
  <unicode hex="043D"/>
  <anchor x="1245" y="0" name="descender"/>
  <anchor x="685" y="1040" name="top"/>
  <outline>
    <contour>
      <point x="125" y="0" type="line"/>
      <point x="525" y="0" type="line"/>
      <point x="525" y="370" type="line"/>
      <point x="845" y="370" type="line"/>
      <point x="845" y="0" type="line"/>
      <point x="1245" y="0" type="line"/>
      <point x="1245" y="1040" type="line"/>
      <point x="845" y="1040" type="line"/>
      <point x="845" y="682" type="line"/>
      <point x="525" y="682" type="line"/>
      <point x="525" y="1040" type="line"/>
      <point x="125" y="1040" type="line"/>
    </contour>
  </outline>
</glyph>
<glyph name="pe-cy" format="2">
  <advance width="1370"/>
  <unicode hex="043F"/>
  <anchor x="685" y="1040" name="top"/>
  <outline>
    <contour>
      <point x="125" y="0" type="line"/>
      <point x="525" y="0" type="line"/>
      <point x="525" y="728" type="line"/>
      <point x="845" y="728" type="line"/>
      <point x="845" y="0" type="line"/>
      <point x="1245" y="0" type="line"/>
      <point x="1245" y="1040" type="line"/>
      <point x="125" y="1040" type="line"/>
    </contour>
  </outline>
</glyph>
<glyph name="te-cy" format="2">
  <advance width="1030"/>
  <unicode hex="0442"/>
  <anchor x="517" y="452" name="bar"/>
  <anchor x="515" y="0" name="bottom"/>
  <anchor x="515" y="1040" name="top"/>
  <outline>
    <contour>
      <point x="315" y="0" type="line"/>
      <point x="715" y="0" type="line"/>
      <point x="715" y="728" type="line"/>
      <point x="987" y="728" type="line"/>
      <point x="987" y="1040" type="line"/>
      <point x="43" y="1040" type="line"/>
      <point x="43" y="728" type="line"/>
      <point x="315" y="728" type="line"/>
    </contour>
  </outline>
</glyph>
<glyph name="ef-cy" format="2">
  <advance width="1658"/>
  <unicode hex="0444"/>
  <outline>
    <contour>
      <point x="627" y="-420" type="line"/>
      <point x="1027" y="-420" type="line"/>
      <point x="1027" y="1440" type="line"/>
      <point x="627" y="1440" type="line"/>
    </contour>
    <contour>
      <point x="821" y="-26" type="curve" smooth="yes"/>
      <point x="1329" y="-26"/>
      <point x="1611" y="174"/>
      <point x="1611" y="520" type="curve" smooth="yes"/>
      <point x="1611" y="866"/>
      <point x="1349" y="1066"/>
      <point x="835" y="1066" type="curve" smooth="yes"/>
      <point x="321" y="1066"/>
      <point x="47" y="862"/>
      <point x="47" y="520" type="curve" smooth="yes"/>
      <point x="47" y="178"/>
      <point x="313" y="-26"/>
    </contour>
    <contour>
      <point x="829" y="290" type="curve" smooth="yes"/>
      <point x="521" y="290"/>
      <point x="433" y="366"/>
      <point x="433" y="520" type="curve" smooth="yes"/>
      <point x="433" y="674"/>
      <point x="519" y="750"/>
      <point x="827" y="750" type="curve" smooth="yes"/>
      <point x="1135" y="750"/>
      <point x="1223" y="674"/>
      <point x="1223" y="520" type="curve" smooth="yes"/>
      <point x="1223" y="366"/>
      <point x="1137" y="290"/>
    </contour>
  </outline>
</glyph>
<glyph name="che-cy" format="2">
  <advance width="1226"/>
  <unicode hex="0447"/>
  <anchor x="567" y="486" name="center"/>
  <anchor x="1101" y="0" name="descender"/>
  <anchor x="701" y="0" name="descender_alt"/>
  <anchor x="567" y="1040" name="top"/>
  <outline>
    <contour>
      <point x="701" y="0" type="line"/>
      <point x="1101" y="0" type="line"/>
      <point x="1101" y="1040" type="line"/>
      <point x="701" y="1040" type="line"/>
      <point x="701" y="638" type="line"/>
      <point x="663" y="632"/>
      <point x="627" y="626"/>
      <point x="567" y="626" type="curve" smooth="yes"/>
      <point x="471" y="626"/>
      <point x="435" y="680"/>
      <point x="435" y="782" type="curve" smooth="yes"/>
      <point x="435" y="1040" type="line"/>
      <point x="35" y="1040" type="line"/>
      <point x="35" y="730" type="line" smooth="yes"/>
      <point x="35" y="422"/>
      <point x="225" y="302"/>
      <point x="477" y="302" type="curve" smooth="yes"/>
      <point x="547" y="302"/>
      <point x="617" y="314"/>
      <point x="701" y="336" type="curve"/>
    </contour>
  </outline>
</glyph>
<glyph name="sha-cy" format="2">
  <advance width="1902"/>
  <unicode hex="0448"/>
  <anchor x="1777" y="0" name="descender"/>
  <outline>
    <contour>
      <point x="125" y="0" type="line"/>
      <point x="1777" y="0" type="line"/>
      <point x="1777" y="1040" type="line"/>
      <point x="1397" y="1040" type="line"/>
      <point x="1397" y="312" type="line"/>
      <point x="1141" y="312" type="line"/>
      <point x="1141" y="1040" type="line"/>
      <point x="761" y="1040" type="line"/>
      <point x="761" y="312" type="line"/>
      <point x="505" y="312" type="line"/>
      <point x="505" y="1040" type="line"/>
      <point x="125" y="1040" type="line"/>
    </contour>
  </outline>
</glyph>
<glyph name="yeru-cy" format="2">
  <advance width="1790"/>
  <unicode hex="044B"/>
  <anchor x="915" y="0" name="bottom"/>
  <anchor x="885" y="1040" name="top"/>
  <outline>
    <contour>
      <point x="125" y="0" type="line"/>
      <point x="665" y="0" type="line" smooth="yes"/>
      <point x="961" y="0"/>
      <point x="1145" y="144"/>
      <point x="1145" y="380" type="curve" smooth="yes"/>
      <point x="1145" y="634"/>
      <point x="963" y="758"/>
      <point x="665" y="758" type="curve" smooth="yes"/>
      <point x="489" y="758" type="line"/>
      <point x="489" y="490" type="line"/>
      <point x="631" y="490" type="line" smooth="yes"/>
      <point x="695" y="490"/>
      <point x="737" y="444"/>
      <point x="737" y="380" type="curve" smooth="yes"/>
      <point x="737" y="314"/>
      <point x="689" y="272"/>
      <point x="615" y="272" type="curve" smooth="yes"/>
      <point x="525" y="272" type="line"/>
      <point x="525" y="1040" type="line"/>
      <point x="125" y="1040" type="line"/>
    </contour>
    <contour>
      <point x="1265" y="0" type="line"/>
      <point x="1665" y="0" type="line"/>
      <point x="1665" y="1040" type="line"/>
      <point x="1265" y="1040" type="line"/>
    </contour>
  </outline>
</glyph>
<glyph name="softsign-cy" format="2">
  <advance width="1212"/>
  <unicode hex="044C"/>
  <outline>
    <contour>
      <point x="125" y="0" type="line"/>
      <point x="675" y="0" type="line" smooth="yes"/>
      <point x="971" y="0"/>
      <point x="1155" y="144"/>
      <point x="1155" y="380" type="curve" smooth="yes"/>
      <point x="1155" y="634"/>
      <point x="973" y="758"/>
      <point x="675" y="758" type="curve" smooth="yes"/>
      <point x="489" y="758" type="line"/>
      <point x="489" y="490" type="line"/>
      <point x="641" y="490" type="line" smooth="yes"/>
      <point x="705" y="490"/>
      <point x="747" y="444"/>
      <point x="747" y="380" type="curve" smooth="yes"/>
      <point x="747" y="314"/>
      <point x="699" y="272"/>
      <point x="625" y="272" type="curve" smooth="yes"/>
      <point x="525" y="272" type="line"/>
      <point x="525" y="1040" type="line"/>
      <point x="125" y="1040" type="line"/>
    </contour>
  </outline>
</glyph>
<glyph name="ereversed-cy" format="2">
  <advance width="1103"/>
  <unicode hex="044D"/>
  <anchor x="494" y="0" name="bottom"/>
  <anchor x="494" y="1040" name="top"/>
  <outline>
    <contour>
      <point x="478" y="-30" type="curve" smooth="yes"/>
      <point x="836" y="-30"/>
      <point x="1056" y="194"/>
      <point x="1056" y="524" type="curve" smooth="yes"/>
      <point x="1056" y="854"/>
      <point x="842" y="1070"/>
      <point x="494" y="1070" type="curve" smooth="yes"/>
      <point x="318" y="1070"/>
      <point x="156" y="1016"/>
      <point x="44" y="932" type="curve"/>
      <point x="174" y="678" type="line"/>
      <point x="240" y="736"/>
      <point x="334" y="778"/>
      <point x="442" y="778" type="curve" smooth="yes"/>
      <point x="622" y="778"/>
      <point x="702" y="712"/>
      <point x="702" y="524" type="curve" smooth="yes"/>
      <point x="702" y="324"/>
      <point x="626" y="262"/>
      <point x="440" y="262" type="curve" smooth="yes"/>
      <point x="344" y="262"/>
      <point x="242" y="296"/>
      <point x="170" y="364" type="curve"/>
      <point x="24" y="110" type="line"/>
      <point x="124" y="22"/>
      <point x="298" y="-30"/>
    </contour>
    <contour>
      <point x="298" y="396" type="line"/>
      <point x="826" y="396" type="line"/>
      <point x="826" y="664" type="line"/>
      <point x="298" y="664" type="line"/>
    </contour>
  </outline>
</glyph>
<glyph name="ia-cy" format="2">
  <advance width="1188"/>
  <unicode hex="044F"/>
  <guideline x="61" y="280" angle="62.8649"/>
  <anchor x="617" y="1040" name="top"/>
  <outline>
    <contour>
      <point x="41" y="0" type="line"/>
      <point x="469" y="0" type="line"/>
      <point x="639" y="320" type="line"/>
      <point x="717" y="320" type="line"/>
      <point x="717" y="578" type="line"/>
      <point x="557" y="578" type="line" smooth="yes"/>
      <point x="499" y="578"/>
      <point x="461" y="618"/>
      <point x="461" y="674" type="curve" smooth="yes"/>
      <point x="461" y="732"/>
      <point x="505" y="768"/>
      <point x="573" y="768" type="curve" smooth="yes"/>
      <point x="685" y="768" type="line"/>
      <point x="685" y="0" type="line"/>
      <point x="1063" y="0" type="line"/>
      <point x="1063" y="1040" type="line"/>
      <point x="523" y="1040" type="line" smooth="yes"/>
      <point x="243" y="1040"/>
      <point x="73" y="896"/>
      <point x="73" y="660" type="curve" smooth="yes"/>
      <point x="73" y="446"/>
      <point x="263" y="326"/>
      <point x="489" y="326" type="curve"/>
      <point x="375" y="564" type="line"/>
    </contour>
  </outline>
</glyph>
<glyph name="e-cy" format="2">
  <advance width="1111"/>
  <unicode hex="0454"/>
  <outline>
    <contour>
      <point x="641" y="-30" type="curve" smooth="yes"/>
      <point x="797" y="-30"/>
      <point x="967" y="24"/>
      <point x="1087" y="114" type="curve"/>
      <point x="949" y="362" type="line"/>
      <point x="859" y="292"/>
      <point x="765" y="262"/>
      <point x="663" y="262" type="curve" smooth="yes"/>
      <point x="479" y="262"/>
      <point x="401" y="348"/>
      <point x="401" y="520" type="curve" smooth="yes"/>
      <point x="401" y="694"/>
      <point x="477" y="778"/>
      <point x="661" y="778" type="curve" smooth="yes"/>
      <point x="749" y="778"/>
      <point x="841" y="748"/>
      <point x="919" y="674" type="curve"/>
      <point x="1079" y="938" type="line"/>
      <point x="963" y="1024"/>
      <point x="817" y="1070"/>
      <point x="653" y="1070" type="curve" smooth="yes"/>
      <point x="291" y="1070"/>
      <point x="47" y="832"/>
      <point x="47" y="520" type="curve" smooth="yes"/>
      <point x="47" y="206"/>
      <point x="283" y="-30"/>
    </contour>
    <contour>
      <point x="277" y="396" type="line"/>
      <point x="817" y="396" type="line"/>
      <point x="817" y="664" type="line"/>
      <point x="277" y="664" type="line"/>
    </contour>
  </outline>
</glyph>
<glyph name="lje-cy" format="2">
  <advance width="1878"/>
  <unicode hex="0459"/>
  <outline>
    <contour>
      <point x="152" y="-30" type="line"/>
      <point x="514" y="44"/>
      <point x="606" y="290"/>
      <point x="606" y="698" type="curve" smooth="yes"/>
      <point x="606" y="728" type="line"/>
      <point x="788" y="728" type="line"/>
      <point x="1188" y="1040" type="line"/>
      <point x="246" y="1040" type="line"/>
      <point x="246" y="698" type="line" smooth="yes"/>
      <point x="246" y="478"/>
      <point x="232" y="382"/>
      <point x="26" y="332" type="curve"/>
    </contour>
    <contour>
      <point x="788" y="0" type="line"/>
      <point x="1338" y="0" type="line" smooth="yes"/>
      <point x="1634" y="0"/>
      <point x="1818" y="144"/>
      <point x="1818" y="380" type="curve" smooth="yes"/>
      <point x="1818" y="634"/>
      <point x="1636" y="758"/>
      <point x="1338" y="758" type="curve" smooth="yes"/>
      <point x="1152" y="758" type="line"/>
      <point x="1152" y="490" type="line"/>
      <point x="1304" y="490" type="line" smooth="yes"/>
      <point x="1368" y="490"/>
      <point x="1410" y="444"/>
      <point x="1410" y="380" type="curve" smooth="yes"/>
      <point x="1410" y="314"/>
      <point x="1362" y="272"/>
      <point x="1288" y="272" type="curve" smooth="yes"/>
      <point x="1188" y="272" type="line"/>
      <point x="1188" y="1040" type="line"/>
      <point x="788" y="1040" type="line"/>
    </contour>
  </outline>
</glyph>
<glyph name="nje-cy" format="2">
  <advance width="1902"/>
  <unicode hex="045A"/>
  <outline>
    <contour>
      <point x="125" y="0" type="line"/>
      <point x="525" y="0" type="line"/>
      <point x="525" y="1040" type="line"/>
      <point x="125" y="1040" type="line"/>
    </contour>
    <contour>
      <point x="825" y="0" type="line"/>
      <point x="1375" y="0" type="line" smooth="yes"/>
      <point x="1663" y="0"/>
      <point x="1845" y="134"/>
      <point x="1845" y="354" type="curve" smooth="yes"/>
      <point x="1845" y="590"/>
      <point x="1667" y="704"/>
      <point x="1375" y="704" type="curve" smooth="yes"/>
      <point x="391" y="704" type="line"/>
      <point x="391" y="420" type="line"/>
      <point x="967" y="420" type="line"/>
      <point x="1083" y="440" type="line"/>
      <point x="1341" y="440" type="line" smooth="yes"/>
      <point x="1399" y="440"/>
      <point x="1437" y="400"/>
      <point x="1437" y="354" type="curve" smooth="yes"/>
      <point x="1437" y="304"/>
      <point x="1393" y="268"/>
      <point x="1325" y="268" type="curve" smooth="yes"/>
      <point x="1225" y="268" type="line"/>
      <point x="1225" y="1040" type="line"/>
      <point x="825" y="1040" type="line"/>
    </contour>
  </outline>
</glyph>
<glyph name="Yat-cy" format="2">
  <advance width="1546"/>
  <unicode hex="0462"/>
  <outline>
    <contour>
      <point x="353" y="0" type="line"/>
      <point x="941" y="0" type="line" smooth="yes"/>
      <point x="1301" y="0"/>
      <point x="1509" y="168"/>
      <point x="1509" y="464" type="curve" smooth="yes"/>
      <point x="1509" y="731"/>
      <point x="1271" y="888"/>
      <point x="951" y="888" type="curve" smooth="yes"/>
      <point x="475" y="888" type="line"/>
      <point x="475" y="564" type="line"/>
      <point x="927" y="564" type="line" smooth="yes"/>
      <point x="1031" y="564"/>
      <point x="1105" y="532"/>
      <point x="1105" y="428" type="curve" smooth="yes"/>
      <point x="1105" y="328"/>
      <point x="1037" y="294"/>
      <point x="925" y="294" type="curve" smooth="yes"/>
      <point x="757" y="294" type="line"/>
      <point x="757" y="1440" type="line"/>
      <point x="353" y="1440" type="line"/>
    </contour>
    <contour>
      <point x="53" y="996" type="line"/>
      <point x="1059" y="996" type="line"/>
      <point x="1059" y="1304" type="line"/>
      <point x="53" y="1304" type="line"/>
    </contour>
  </outline>
</glyph>
<glyph name="yat-cy" format="2">
  <advance width="1382"/>
  <unicode hex="0463"/>
  <outline>
    <contour>
      <point x="305" y="0" type="line"/>
      <point x="855" y="0" type="line" smooth="yes"/>
      <point x="1143" y="0"/>
      <point x="1325" y="134"/>
      <point x="1325" y="354" type="curve" smooth="yes"/>
      <point x="1325" y="570"/>
      <point x="1147" y="674"/>
      <point x="855" y="674" type="curve" smooth="yes"/>
      <point x="673" y="674" type="line"/>
      <point x="673" y="440" type="line"/>
      <point x="821" y="440" type="line" smooth="yes"/>
      <point x="879" y="440"/>
      <point x="917" y="400"/>
      <point x="917" y="354" type="curve" smooth="yes"/>
      <point x="917" y="304"/>
      <point x="873" y="268"/>
      <point x="805" y="268" type="curve" smooth="yes"/>
      <point x="705" y="268" type="line"/>
      <point x="705" y="1440" type="line"/>
      <point x="305" y="1440" type="line"/>
    </contour>
    <contour>
      <point x="43" y="748" type="line"/>
      <point x="967" y="748" type="line"/>
      <point x="967" y="1040" type="line"/>
      <point x="43" y="1040" type="line"/>
    </contour>
  </outline>
</glyph>
<glyph name="Yusbig-cy" format="2">
  <advance width="2128"/>
  <unicode hex="046A"/>
  <anchor x="1997" y="0" name="descender"/>
  <anchor x="1063" y="1400" name="top"/>
  <outline>
    <contour>
      <point x="-13" y="0" type="line"/>
      <point x="435" y="0" type="line"/>
      <point x="929" y="684" type="line"/>
      <point x="631" y="1092" type="line"/>
      <point x="1503" y="1092" type="line"/>
      <point x="1195" y="692" type="line"/>
      <point x="1675" y="0" type="line"/>
      <point x="2141" y="0" type="line"/>
      <point x="1637" y="692" type="line"/>
      <point x="1935" y="1066" type="line"/>
      <point x="1935" y="1400" type="line"/>
      <point x="185" y="1400" type="line"/>
      <point x="185" y="1066" type="line"/>
      <point x="485" y="668" type="line"/>
    </contour>
    <contour>
      <point x="861" y="0" type="line"/>
      <point x="1265" y="0" type="line"/>
      <point x="1265" y="560" type="line"/>
      <point x="1507" y="560" type="line"/>
      <point x="1507" y="832" type="line"/>
      <point x="621" y="832" type="line"/>
      <point x="621" y="560" type="line"/>
      <point x="861" y="560" type="line"/>
    </contour>
  </outline>
</glyph>
<glyph name="Fita-cy" format="2">
  <advance width="1642"/>
  <unicode hex="0472"/>
  <anchor x="821" y="0" name="bottom"/>
  <anchor x="1225" y="1400" name="horn"/>
  <anchor x="1081" y="0" name="ogonek"/>
  <anchor x="821" y="1400" name="top"/>
  <anchor x="87" y="1400" name="topleft"/>
  <outline>
    <contour>
      <point x="313" y="450" type="line"/>
      <point x="401" y="544"/>
      <point x="497" y="588"/>
      <point x="609" y="588" type="curve" smooth="yes"/>
      <point x="751" y="588"/>
      <point x="921" y="514"/>
      <point x="1077" y="514" type="curve" smooth="yes"/>
      <point x="1185" y="514"/>
      <point x="1277" y="552"/>
      <point x="1359" y="630" type="curve"/>
      <point x="1359" y="952" type="line"/>
      <point x="1275" y="858"/>
      <point x="1185" y="816"/>
      <point x="1073" y="816" type="curve" smooth="yes"/>
      <point x="935" y="816"/>
      <point x="763" y="890"/>
      <point x="605" y="890" type="curve" smooth="yes"/>
      <point x="497" y="890"/>
      <point x="403" y="852"/>
      <point x="313" y="772" type="curve"/>
    </contour>
    <component base="O"/>
  </outline>
</glyph>
<glyph name="fita-cy" format="2">
  <advance width="1276"/>
  <unicode hex="0473"/>
  <outline>
    <contour>
      <point x="638" y="-30" type="curve" smooth="yes"/>
      <point x="986" y="-30"/>
      <point x="1226" y="232"/>
      <point x="1226" y="520" type="curve" smooth="yes"/>
      <point x="1226" y="820"/>
      <point x="986" y="1070"/>
      <point x="638" y="1070" type="curve" smooth="yes"/>
      <point x="290" y="1070"/>
      <point x="50" y="808"/>
      <point x="50" y="520" type="curve" smooth="yes"/>
      <point x="50" y="220"/>
      <point x="290" y="-30"/>
    </contour>
    <contour>
      <point x="638" y="268" type="curve" smooth="yes"/>
      <point x="502" y="268"/>
      <point x="396" y="364"/>
      <point x="396" y="520" type="curve" smooth="yes"/>
      <point x="396" y="676"/>
      <point x="500" y="772"/>
      <point x="638" y="772" type="curve" smooth="yes"/>
      <point x="776" y="772"/>
      <point x="880" y="676"/>
      <point x="880" y="520" type="curve" smooth="yes"/>
      <point x="880" y="364"/>
      <point x="774" y="268"/>
    </contour>
    <contour>
      <point x="746" y="410" type="curve" smooth="yes"/>
      <point x="824" y="410"/>
      <point x="880" y="432"/>
      <point x="918" y="456" type="curve"/>
      <point x="918" y="642" type="line"/>
      <point x="872" y="624"/>
      <point x="828" y="614"/>
      <point x="782" y="614" type="curve" smooth="yes"/>
      <point x="708" y="614"/>
      <point x="630" y="644"/>
      <point x="534" y="644" type="curve" smooth="yes"/>
      <point x="456" y="644"/>
      <point x="400" y="622"/>
      <point x="362" y="598" type="curve"/>
      <point x="362" y="412" type="line"/>
      <point x="408" y="430"/>
      <point x="452" y="440"/>
      <point x="498" y="440" type="curve" smooth="yes"/>
      <point x="572" y="440"/>
      <point x="650" y="410"/>
    </contour>
  </outline>
</glyph>
<glyph name="Izhitsa-cy" format="2">
  <advance width="1514"/>
  <unicode hex="0474"/>
  <outline>
    <contour>
      <point x="481" y="0" type="line"/>
      <point x="951" y="0" type="line"/>
      <point x="1203" y="764" type="line" smooth="yes"/>
      <point x="1285" y="1010"/>
      <point x="1343" y="1078"/>
      <point x="1603" y="1064" type="curve"/>
      <point x="1467" y="1430" type="line"/>
      <point x="1125" y="1440"/>
      <point x="981" y="1282"/>
      <point x="851" y="894" type="curve" smooth="yes"/>
      <point x="721" y="504" type="line"/>
      <point x="435" y="1400" type="line"/>
      <point x="-21" y="1400" type="line"/>
    </contour>
  </outline>
</glyph>
<glyph name="izhitsa-cy" format="2">
  <advance width="1252"/>
  <unicode hex="0475"/>
  <outline>
    <contour>
      <point x="363" y="0" type="line"/>
      <point x="809" y="0" type="line"/>
      <point x="1027" y="474" type="line" smooth="yes"/>
      <point x="1101" y="636"/>
      <point x="1155" y="684"/>
      <point x="1291" y="678" type="curve"/>
      <point x="1175" y="1060" type="line"/>
      <point x="887" y="1072"/>
      <point x="811" y="960"/>
      <point x="677" y="630" type="curve" smooth="yes"/>
      <point x="601" y="444" type="line"/>
      <point x="435" y="1040" type="line"/>
      <point x="7" y="1040" type="line"/>
    </contour>
  </outline>
</glyph>
<glyph name="Kabashkir-cy" format="2">
  <advance width="1746"/>
  <unicode hex="04A0"/>
  <anchor x="1619" y="0" name="descender"/>
  <anchor x="991" y="1400" name="top"/>
  <outline>
    <contour>
      <point x="387" y="1032" type="line"/>
      <point x="787" y="1400" type="line"/>
      <point x="27" y="1400" type="line"/>
      <point x="27" y="1032" type="line"/>
    </contour>
    <component base="Ka-cy" xOffset="230"/>
  </outline>
</glyph>
<glyph name="ustraight-cy" format="2">
  <advance width="1172"/>
  <unicode hex="04AF"/>
  <guideline x="285" y="-10" angle="90"/>
  <anchor x="595" y="-80" name="bar"/>
  <outline>
    <contour>
      <point x="395" y="-420" type="line"/>
      <point x="795" y="-420" type="line"/>
      <point x="795" y="0" type="line"/>
      <point x="1165" y="1040" type="line"/>
      <point x="749" y="1040" type="line"/>
      <point x="543" y="328" type="line"/>
      <point x="645" y="328" type="line"/>
      <point x="433" y="1040" type="line"/>
      <point x="7" y="1040" type="line"/>
      <point x="395" y="0" type="line"/>
    </contour>
  </outline>
</glyph>
<glyph name="chekhakassian-cy" format="2">
  <advance width="1226"/>
  <unicode hex="04CC"/>
  <anchor x="723" y="0" name="_descender"/>
  <anchor x="567" y="486" name="center"/>
  <anchor x="1101" y="0" name="descender"/>
  <anchor x="701" y="0" name="descender_alt"/>
  <anchor x="567" y="1040" name="top"/>
  <outline>
    <contour>
      <point x="439" y="-300" type="line"/>
      <point x="803" y="-300" type="line"/>
      <point x="803" y="0" type="line"/>
      <point x="883" y="0" type="line"/>
      <point x="883" y="232" type="line"/>
      <point x="439" y="232" type="line"/>
    </contour>
    <component base="che-cy"/>
  </outline>
</glyph>
<glyph name="Obarred-cy" format="2">
  <advance width="1642"/>
  <unicode hex="04E8"/>
  <anchor x="821" y="0" name="bottom"/>
  <anchor x="1225" y="1400" name="horn"/>
  <anchor x="1081" y="0" name="ogonek"/>
  <anchor x="821" y="1400" name="top"/>
  <anchor x="87" y="1400" name="topleft"/>
  <outline>
    <contour>
      <point x="351" y="562" type="line"/>
      <point x="1313" y="562" type="line"/>
      <point x="1313" y="864" type="line"/>
      <point x="351" y="864" type="line"/>
    </contour>
    <component base="O"/>
  </outline>
</glyph>
<glyph name="Germandbls" format="2">
  <advance width="1582"/>
  <unicode hex="1E9E"/>
  <outline>
    <contour>
      <point x="1025" y="-26" type="curve" smooth="yes"/>
      <point x="1321" y="-26"/>
      <point x="1545" y="150"/>
      <point x="1545" y="384" type="curve" smooth="yes"/>
      <point x="1545" y="628"/>
      <point x="1259" y="692"/>
      <point x="1259" y="838" type="curve" smooth="yes"/>
      <point x="1259" y="900"/>
      <point x="1295" y="962"/>
      <point x="1419" y="1038" type="curve"/>
      <point x="1419" y="1276" type="line"/>
      <point x="1249" y="1372"/>
      <point x="1065" y="1430"/>
      <point x="819" y="1430" type="curve" smooth="yes"/>
      <point x="429" y="1430"/>
      <point x="151" y="1200"/>
      <point x="151" y="816" type="curve" smooth="yes"/>
      <point x="151" y="0" type="line"/>
      <point x="591" y="0" type="line"/>
      <point x="591" y="816" type="line" smooth="yes"/>
      <point x="591" y="972"/>
      <point x="671" y="1074"/>
      <point x="807" y="1074" type="curve" smooth="yes"/>
      <point x="891" y="1074"/>
      <point x="955" y="1048"/>
      <point x="995" y="1016" type="curve"/>
      <point x="881" y="940"/>
      <point x="829" y="842"/>
      <point x="829" y="778" type="curve" smooth="yes"/>
      <point x="829" y="556"/>
      <point x="1091" y="508"/>
      <point x="1091" y="394" type="curve" smooth="yes"/>
      <point x="1091" y="330"/>
      <point x="1029" y="290"/>
      <point x="939" y="290" type="curve" smooth="yes"/>
      <point x="869" y="290"/>
      <point x="803" y="319"/>
      <point x="777" y="333" type="curve"/>
      <point x="679" y="29" type="line"/>
      <point x="807" y="-16"/>
      <point x="905" y="-26"/>
    </contour>
  </outline>
</glyph>
<glyph name="quoteleft" format="2">
  <advance width="600"/>
  <unicode hex="2018"/>
  <outline>
    <contour>
      <point x="305" y="588" type="curve" smooth="yes"/>
      <point x="439" y="588"/>
      <point x="533" y="677"/>
      <point x="533" y="813" type="curve" smooth="yes"/>
      <point x="533" y="944"/>
      <point x="417" y="1026"/>
      <point x="280" y="1018" type="curve"/>
      <point x="331" y="1102"/>
      <point x="437" y="1192"/>
      <point x="565" y="1242" type="curve"/>
      <point x="455" y="1400" type="line"/>
      <point x="180" y="1243"/>
      <point x="49" y="1060"/>
      <point x="49" y="864" type="curve" smooth="yes"/>
      <point x="49" y="698"/>
      <point x="155" y="588"/>
    </contour>
  </outline>
</glyph>
<glyph name="guilsinglleft" format="2">
  <advance width="710"/>
  <unicode hex="2039"/>
  <outline>
    <contour>
      <point x="323" y="59" type="line"/>
      <point x="591" y="221" type="line"/>
      <point x="408" y="528" type="line"/>
      <point x="592" y="837" type="line"/>
      <point x="323" y="998" type="line"/>
      <point x="40" y="528" type="line"/>
    </contour>
  </outline>
</glyph>
<glyph name="guilsinglright" format="2">
  <advance width="710"/>
  <unicode hex="203A"/>
  <outline>
    <contour>
      <point x="387" y="60" type="line"/>
      <point x="670" y="530" type="line"/>
      <point x="387" y="999" type="line"/>
      <point x="119" y="837" type="line"/>
      <point x="302" y="530" type="line"/>
      <point x="118" y="221" type="line"/>
    </contour>
  </outline>
</glyph>
<glyph name="fraction" format="2">
  <advance width="396"/>
  <unicode hex="2044"/>
  <outline>
    <contour>
      <point x="-84" y="-40" type="line"/>
      <point x="680" y="1326" type="line"/>
      <point x="480" y="1440" type="line"/>
      <point x="-284" y="78" type="line"/>
    </contour>
  </outline>
</glyph>
<glyph name="franc" format="2">
  <advance width="1296"/>
  <unicode hex="20A3"/>
  <outline>
    <contour>
      <point x="48" y="140" type="line"/>
      <point x="876" y="140" type="line"/>
      <point x="876" y="390" type="line"/>
      <point x="48" y="390" type="line"/>
    </contour>
    <component base="_part.franc" xOffset="100"/>
  </outline>
</glyph>
